<svg xmlns="http://www.w3.org/2000/svg" width="512" height="512" viewBox="0 0 512 512">
  <path d="M 463.000 497.041 L 461.000 497.381 L 458.000 497.500 L 54.000 497.473 L 52.000 497.381 L 51.000 497.259 L 49.000 496.792 L 46.000 496.303 L 44.000 495.625 L 43.000 495.426 L 41.000 494.578 L 40.000 494.318 L 39.000 493.693 L 38.000 493.374 L 37.000 492.704 L 36.000 492.318 L 35.000 491.589 L 33.000 490.399 L 31.000 488.763 L 30.000 488.115 L 28.000 486.340 L 25.716 484.000 L 24.867 483.000 L 24.198 482.000 L 22.592 480.000 L 21.439 478.000 L 20.704 477.000 L 20.311 476.000 L 19.657 475.000 L 19.343 474.000 L 18.697 473.000 L 18.435 472.000 L 17.593 470.000 L 17.381 469.000 L 16.701 467.000 L 16.369 465.000 L 15.724 462.000 L 15.562 460.000 L 15.500 458.000 L 15.500 54.000 L 15.724 50.000 L 15.898 49.000 L 16.183 48.000 L 16.701 45.000 L 17.384 43.000 L 17.599 42.000 L 18.440 40.000 L 18.708 39.000 L 19.349 38.000 L 19.668 37.000 L 20.322 36.000 L 20.716 35.000 L 21.446 34.000 L 22.604 32.000 L 25.720 28.000 L 28.000 25.706 L 30.000 23.944 L 31.000 23.259 L 33.000 21.617 L 35.000 20.421 L 36.000 19.697 L 37.000 19.329 L 38.000 18.682 L 39.000 18.359 L 40.000 17.716 L 42.000 17.083 L 43.000 16.607 L 45.000 16.115 L 46.000 15.716 L 49.000 15.198 L 51.000 14.746 L 54.000 14.536 L 457.000 14.500 L 460.000 14.577 L 462.000 14.746 L 464.000 15.198 L 467.000 15.671 L 469.000 16.387 L 470.000 16.607 L 472.000 17.449 L 473.000 17.716 L 474.000 18.359 L 475.000 18.678 L 476.000 19.329 L 477.000 19.724 L 478.000 20.451 L 480.000 21.611 L 484.000 24.738 L 487.284 28.000 L 490.397 32.000 L 491.554 34.000 L 492.288 35.000 L 492.678 36.000 L 493.332 37.000 L 493.654 38.000 L 494.299 39.000 L 494.560 40.000 L 495.404 42.000 L 495.616 43.000 L 496.299 45.000 L 496.634 47.000 L 497.284 50.000 L 497.500 54.000 L 497.500 458.000 L 497.441 460.000 L 497.284 462.000 L 497.121 463.000 L 496.833 464.000 L 496.303 467.000 L 495.622 469.000 L 495.407 470.000 L 494.565 472.000 L 494.307 473.000 L 493.657 474.000 L 493.343 475.000 L 492.693 476.000 L 492.318 477.000 L 491.595 478.000 L 490.411 480.000 L 488.807 482.000 L 488.133 483.000 L 487.284 484.000 L 485.000 486.342 L 483.000 488.121 L 482.000 488.802 L 480.000 490.408 L 478.000 491.589 L 477.000 492.322 L 476.000 492.704 L 475.000 493.374 L 474.000 493.693 L 473.000 494.318 L 472.000 494.578 L 470.000 495.428 L 469.000 495.628 L 467.000 496.349 L 464.000 496.792 L 463.000 497.041 Z M 461.516 476.000 L 462.000 475.807 L 464.000 475.318 L 465.000 474.737 L 466.000 474.408 L 467.000 473.689 L 468.000 473.232 L 469.000 472.444 L 470.582 471.000 L 472.444 469.000 L 473.223 468.000 L 473.693 467.000 L 474.402 466.000 L 474.741 465.000 L 475.318 464.000 L 475.802 462.000 L 476.203 461.000 L 476.460 459.000 L 476.529 457.000 L 476.527 55.000 L 476.460 53.000 L 476.198 51.000 L 475.797 50.000 L 475.307 48.000 L 474.733 47.000 L 474.395 46.000 L 473.678 45.000 L 473.208 44.000 L 472.431 43.000 L 471.000 41.424 L 469.000 39.569 L 468.000 38.807 L 467.000 38.331 L 466.000 37.611 L 465.000 37.284 L 464.000 36.704 L 462.000 36.227 L 461.000 35.828 L 460.000 35.647 L 457.000 35.500 L 55.000 35.510 L 53.000 35.647 L 52.000 35.833 L 51.000 36.227 L 49.000 36.704 L 48.000 37.284 L 47.000 37.611 L 46.000 38.334 L 45.000 38.812 L 44.000 39.569 L 42.438 41.000 L 40.569 43.000 L 39.802 44.000 L 39.325 45.000 L 38.605 46.000 L 38.276 47.000 L 37.693 48.000 L 37.208 50.000 L 36.802 51.000 L 36.619 52.000 L 36.469 56.000 L 36.473 457.000 L 36.613 460.000 L 36.792 461.000 L 37.198 462.000 L 37.682 464.000 L 38.263 465.000 L 38.600 466.000 L 39.315 467.000 L 39.782 468.000 L 40.559 469.000 L 42.000 470.582 L 44.000 472.444 L 45.000 473.227 L 46.000 473.685 L 47.000 474.400 L 48.000 474.737 L 49.000 475.318 L 51.000 475.802 L 52.000 476.203 L 54.000 476.460 L 56.000 476.529 L 456.000 476.536 L 460.000 476.372 L 461.000 476.203 L 461.516 476.000 Z M 390.000 235.121 L 388.000 235.339 L 384.000 235.488 L 375.000 235.420 L 372.000 235.150 L 369.000 234.664 L 366.000 234.325 L 364.000 233.729 L 362.000 233.387 L 361.000 233.069 L 360.000 232.641 L 359.000 232.450 L 358.000 232.089 L 357.000 231.601 L 356.000 231.346 L 355.000 230.741 L 354.000 230.408 L 353.000 229.763 L 352.000 229.385 L 351.000 228.664 L 350.000 228.193 L 349.000 227.476 L 348.000 226.664 L 346.000 225.238 L 345.000 224.329 L 342.679 222.000 L 341.807 221.000 L 339.546 218.000 L 338.844 217.000 L 338.358 216.000 L 337.626 215.000 L 337.223 214.000 L 336.572 213.000 L 336.223 212.000 L 335.625 211.000 L 335.353 210.000 L 334.807 209.000 L 334.241 207.000 L 333.746 206.000 L 333.336 204.000 L 332.697 202.000 L 332.399 200.000 L 331.737 197.000 L 331.510 195.000 L 332.000 194.469 L 335.000 194.246 L 340.000 193.651 L 346.000 193.307 L 351.000 192.704 L 354.000 192.518 L 355.012 193.000 L 355.311 194.000 L 355.628 196.000 L 356.378 198.000 L 356.599 199.000 L 357.885 202.000 L 359.635 205.000 L 362.000 207.736 L 363.342 209.000 L 365.000 210.368 L 366.000 210.867 L 367.000 211.496 L 369.000 212.456 L 370.000 212.697 L 371.000 213.203 L 372.000 213.446 L 374.000 213.773 L 376.000 214.254 L 379.000 214.455 L 383.000 214.453 L 386.000 214.263 L 388.000 213.817 L 391.000 213.325 L 392.000 212.867 L 394.000 212.267 L 395.000 211.647 L 396.000 211.267 L 398.996 209.000 L 400.000 208.069 L 401.000 206.894 L 402.393 205.000 L 402.768 204.000 L 403.353 203.000 L 403.959 200.000 L 404.069 199.000 L 404.027 198.000 L 403.475 195.000 L 403.096 194.000 L 402.507 193.000 L 402.000 192.313 L 400.819 191.000 L 399.000 189.533 L 398.000 188.904 L 397.000 188.466 L 396.000 187.904 L 394.000 187.223 L 393.000 186.682 L 391.000 186.218 L 390.000 185.759 L 388.000 185.369 L 386.000 184.661 L 384.000 184.322 L 382.000 183.654 L 380.000 183.322 L 378.000 182.651 L 376.000 182.307 L 374.000 181.641 L 372.000 181.292 L 371.000 180.892 L 370.000 180.610 L 369.000 180.452 L 368.000 180.188 L 367.000 179.729 L 365.000 179.303 L 364.000 178.812 L 362.000 178.276 L 361.000 177.759 L 359.000 177.096 L 358.000 176.590 L 357.000 176.307 L 356.000 175.671 L 355.000 175.366 L 354.000 174.716 L 353.000 174.336 L 352.000 173.628 L 351.000 173.172 L 347.000 170.277 L 345.639 169.000 L 343.692 167.000 L 342.850 166.000 L 342.188 165.000 L 340.627 163.000 L 338.973 160.000 L 338.127 158.000 L 337.613 157.000 L 337.401 156.000 L 336.668 154.000 L 336.271 151.000 L 335.861 149.000 L 335.682 146.000 L 335.733 144.000 L 335.839 143.000 L 336.701 138.000 L 337.433 136.000 L 337.651 135.000 L 338.227 134.000 L 338.540 133.000 L 339.108 132.000 L 339.539 131.000 L 340.237 130.000 L 340.675 129.000 L 342.223 127.000 L 342.885 126.000 L 343.716 125.000 L 345.000 123.653 L 347.000 121.839 L 348.000 121.198 L 350.000 119.634 L 351.000 119.121 L 353.000 117.898 L 356.000 116.513 L 357.000 116.213 L 358.000 115.661 L 360.000 115.133 L 361.000 114.685 L 363.000 114.329 L 365.000 113.716 L 368.000 113.349 L 371.000 112.817 L 373.000 112.622 L 376.000 112.510 L 381.000 112.504 L 385.000 112.593 L 387.000 112.763 L 391.000 113.390 L 394.000 113.733 L 396.000 114.336 L 398.000 114.685 L 400.000 115.433 L 401.000 115.641 L 402.000 116.156 L 404.000 116.861 L 405.000 117.424 L 406.000 117.797 L 409.000 119.575 L 410.000 120.358 L 412.000 121.740 L 413.000 122.615 L 414.439 124.000 L 416.318 126.000 L 417.121 127.000 L 417.754 128.000 L 419.280 130.000 L 419.712 131.000 L 420.415 132.000 L 420.797 133.000 L 421.408 134.000 L 421.689 135.000 L 422.271 136.000 L 422.802 138.000 L 423.259 139.000 L 423.812 142.000 L 424.102 143.000 L 424.436 145.000 L 424.637 149.000 L 424.000 149.533 L 416.000 149.823 L 408.000 150.322 L 402.000 150.494 L 401.000 150.459 L 400.543 150.000 L 400.227 148.000 L 399.802 147.000 L 399.311 145.000 L 398.741 144.000 L 398.422 143.000 L 397.754 142.000 L 397.318 141.000 L 396.000 139.414 L 394.598 138.000 L 393.000 136.678 L 392.000 136.267 L 391.000 135.607 L 390.000 135.346 L 389.000 134.850 L 388.000 134.559 L 386.000 134.227 L 384.000 133.750 L 383.000 133.647 L 381.000 133.540 L 377.000 133.536 L 374.000 133.720 L 371.000 134.369 L 369.000 134.693 L 368.000 135.144 L 366.000 135.759 L 365.000 136.400 L 364.000 136.792 L 362.340 138.000 L 361.241 139.000 L 359.641 141.000 L 358.988 143.000 L 358.750 144.000 L 358.697 145.000 L 358.754 146.000 L 359.668 149.000 L 361.254 151.000 L 362.289 152.000 L 364.000 153.318 L 365.000 153.701 L 366.000 154.356 L 367.000 154.644 L 368.000 155.218 L 370.000 155.833 L 371.000 156.322 L 373.000 156.833 L 374.000 157.288 L 376.000 157.704 L 377.000 158.108 L 378.000 158.384 L 380.000 158.724 L 381.000 159.133 L 382.000 159.396 L 384.000 159.741 L 385.000 160.133 L 386.000 160.396 L 388.000 160.741 L 389.000 161.133 L 390.000 161.396 L 392.000 161.741 L 393.000 162.161 L 394.000 162.433 L 395.000 162.596 L 396.000 162.898 L 397.000 163.336 L 399.000 163.792 L 400.000 164.284 L 402.000 164.812 L 403.000 165.318 L 404.000 165.563 L 406.000 166.439 L 407.000 166.737 L 408.000 167.343 L 409.000 167.654 L 410.000 168.303 L 411.000 168.678 L 412.000 169.391 L 413.000 169.898 L 414.000 170.560 L 417.000 172.839 L 418.000 173.710 L 420.219 176.000 L 423.254 180.000 L 423.693 181.000 L 424.400 182.000 L 424.754 183.000 L 425.378 184.000 L 425.628 185.000 L 426.139 186.000 L 426.454 187.000 L 426.628 188.000 L 427.288 190.000 L 428.049 196.000 L 428.203 199.000 L 428.115 201.000 L 427.462 206.000 L 427.299 207.000 L 426.607 209.000 L 426.410 210.000 L 425.568 212.000 L 425.280 213.000 L 424.647 214.000 L 424.307 215.000 L 423.629 216.000 L 423.177 217.000 L 421.741 219.000 L 421.203 220.000 L 419.000 222.556 L 417.000 224.546 L 415.000 226.345 L 413.000 227.642 L 412.000 228.413 L 409.000 230.083 L 407.000 230.931 L 406.000 231.440 L 405.000 231.682 L 404.000 232.223 L 402.000 232.689 L 401.000 233.139 L 400.000 233.399 L 398.000 233.741 L 396.000 234.307 L 393.000 234.625 L 390.000 235.121 Z M 204.000 233.276 L 203.000 233.500 L 183.000 233.500 L 182.000 233.336 L 181.664 233.000 L 181.384 147.000 L 181.288 143.000 L 181.000 142.142 L 180.707 143.000 L 180.540 144.000 L 179.712 146.000 L 179.375 148.000 L 178.729 150.000 L 178.387 152.000 L 178.115 153.000 L 177.733 154.000 L 177.399 156.000 L 177.139 157.000 L 176.746 158.000 L 176.410 160.000 L 176.161 161.000 L 175.763 162.000 L 175.410 164.000 L 175.172 165.000 L 174.782 166.000 L 174.183 169.000 L 173.787 170.000 L 173.203 173.000 L 172.802 174.000 L 172.223 177.000 L 171.823 178.000 L 171.582 179.000 L 171.237 181.000 L 170.844 182.000 L 170.241 185.000 L 169.850 186.000 L 169.604 187.000 L 169.259 189.000 L 168.867 190.000 L 168.607 191.000 L 168.276 193.000 L 167.892 194.000 L 167.616 195.000 L 167.292 197.000 L 166.628 199.000 L 166.292 201.000 L 165.641 203.000 L 165.307 205.000 L 164.644 207.000 L 164.322 209.000 L 163.654 211.000 L 163.336 213.000 L 162.668 215.000 L 162.336 217.000 L 161.682 219.000 L 161.349 221.000 L 160.689 223.000 L 160.363 225.000 L 159.697 227.000 L 159.375 229.000 L 158.712 231.000 L 158.375 233.000 L 158.000 233.375 L 157.000 233.500 L 136.000 233.500 L 135.000 233.241 L 134.759 233.000 L 134.407 231.000 L 134.161 230.000 L 133.777 229.000 L 133.193 226.000 L 132.797 225.000 L 132.218 222.000 L 131.817 221.000 L 131.237 218.000 L 130.839 217.000 L 130.590 216.000 L 130.254 214.000 L 129.861 213.000 L 129.604 212.000 L 129.271 210.000 L 128.885 209.000 L 128.619 208.000 L 128.288 206.000 L 127.638 204.000 L 127.303 202.000 L 126.651 200.000 L 126.318 198.000 L 125.664 196.000 L 125.332 194.000 L 124.678 192.000 L 124.353 190.000 L 123.693 188.000 L 123.369 186.000 L 122.708 184.000 L 122.384 182.000 L 122.108 181.000 L 121.724 180.000 L 121.396 178.000 L 121.133 177.000 L 120.741 176.000 L 120.407 174.000 L 120.156 173.000 L 119.759 172.000 L 119.177 169.000 L 118.787 168.000 L 118.198 165.000 L 117.817 164.000 L 117.223 161.000 L 116.839 160.000 L 116.246 157.000 L 115.861 156.000 L 115.601 155.000 L 115.271 153.000 L 114.885 152.000 L 114.613 151.000 L 114.288 149.000 L 113.625 147.000 L 113.303 145.000 L 113.000 144.133 L 112.009 145.000 L 112.004 148.000 L 111.904 149.000 L 111.892 159.000 L 111.802 161.000 L 111.802 171.000 L 111.729 173.000 L 111.729 183.000 L 111.668 185.000 L 111.500 233.000 L 111.000 233.500 L 90.000 233.500 L 89.198 233.000 L 89.198 115.000 L 90.000 114.500 L 124.000 114.500 L 125.000 114.601 L 125.399 115.000 L 125.782 117.000 L 126.203 118.000 L 126.590 120.000 L 126.867 121.000 L 127.276 122.000 L 127.638 124.000 L 128.332 126.000 L 128.689 128.000 L 129.384 130.000 L 129.754 132.000 L 130.177 133.000 L 130.833 136.000 L 131.250 137.000 L 131.622 139.000 L 132.315 141.000 L 132.671 143.000 L 133.369 145.000 L 133.733 147.000 L 134.144 148.000 L 134.807 151.000 L 135.223 152.000 L 135.604 154.000 L 135.892 155.000 L 136.292 156.000 L 136.654 158.000 L 137.349 160.000 L 137.712 162.000 L 138.115 163.000 L 138.396 164.000 L 138.782 166.000 L 139.198 167.000 L 139.861 170.000 L 140.271 171.000 L 140.634 173.000 L 141.332 175.000 L 141.689 177.000 L 142.381 179.000 L 142.750 181.000 L 143.172 182.000 L 143.828 185.000 L 144.250 186.000 L 144.619 188.000 L 145.311 190.000 L 145.671 192.000 L 146.000 192.933 L 147.000 194.259 L 147.144 194.000 L 147.415 193.000 L 147.802 191.000 L 148.218 190.000 L 148.601 188.000 L 148.885 187.000 L 149.284 186.000 L 149.644 184.000 L 150.336 182.000 L 150.693 180.000 L 151.381 178.000 L 151.750 176.000 L 152.167 175.000 L 152.817 172.000 L 153.232 171.000 L 153.610 169.000 L 153.898 168.000 L 154.292 167.000 L 154.654 165.000 L 155.346 163.000 L 155.704 161.000 L 156.387 159.000 L 156.763 157.000 L 157.177 156.000 L 157.828 153.000 L 158.250 152.000 L 158.616 150.000 L 159.303 148.000 L 159.664 146.000 L 160.353 144.000 L 160.712 142.000 L 161.115 141.000 L 161.396 140.000 L 161.777 138.000 L 162.193 137.000 L 162.850 134.000 L 163.259 133.000 L 163.625 131.000 L 164.315 129.000 L 164.671 127.000 L 165.363 125.000 L 165.724 123.000 L 166.133 122.000 L 166.404 121.000 L 166.787 119.000 L 167.203 118.000 L 167.861 115.000 L 168.000 114.861 L 169.000 114.500 L 203.000 114.500 L 204.000 114.724 L 204.276 115.000 L 204.276 233.000 L 204.000 233.276 Z M 310.000 134.359 L 308.000 134.500 L 239.000 134.500 L 237.000 134.372 L 236.000 134.108 L 235.000 133.651 L 234.000 133.336 L 233.000 132.639 L 232.000 132.069 L 231.000 131.250 L 229.917 130.000 L 229.338 129.000 L 228.628 128.000 L 228.363 127.000 L 227.622 125.000 L 227.500 123.000 L 227.637 121.000 L 228.480 119.000 L 229.000 118.133 L 230.000 116.866 L 231.124 116.000 L 232.000 115.473 L 234.000 114.651 L 235.000 114.536 L 308.000 114.500 L 310.000 114.657 L 312.000 115.493 L 312.808 116.000 L 314.000 116.898 L 315.000 118.187 L 315.520 119.000 L 316.343 121.000 L 316.448 122.000 L 316.500 124.000 L 316.496 126.000 L 316.346 128.000 L 315.525 130.000 L 315.000 130.843 L 314.108 132.000 L 312.847 133.000 L 312.000 133.514 L 310.000 134.359 Z M 310.000 183.359 L 308.000 183.500 L 239.000 183.500 L 237.000 183.372 L 236.000 183.108 L 235.000 182.651 L 234.000 182.336 L 233.000 181.639 L 232.000 181.069 L 231.000 180.250 L 229.917 179.000 L 229.338 178.000 L 228.628 177.000 L 228.363 176.000 L 227.622 174.000 L 227.500 172.000 L 227.637 170.000 L 228.480 168.000 L 229.000 167.133 L 230.000 165.866 L 231.124 165.000 L 232.000 164.473 L 234.000 163.651 L 235.000 163.536 L 308.000 163.500 L 310.000 163.657 L 312.000 164.493 L 312.808 165.000 L 314.000 165.898 L 315.000 167.187 L 315.520 168.000 L 316.343 170.000 L 316.448 171.000 L 316.500 173.000 L 316.496 175.000 L 316.346 177.000 L 315.525 179.000 L 315.000 179.843 L 314.108 181.000 L 312.847 182.000 L 312.000 182.514 L 310.000 183.359 Z M 310.000 233.359 L 308.000 233.500 L 239.000 233.500 L 237.000 233.372 L 236.000 233.108 L 235.000 232.651 L 234.000 232.336 L 233.000 231.639 L 232.000 231.069 L 231.000 230.250 L 229.917 229.000 L 229.338 228.000 L 228.628 227.000 L 228.363 226.000 L 227.622 224.000 L 227.500 222.000 L 227.637 220.000 L 228.480 218.000 L 229.000 217.133 L 230.000 215.866 L 231.124 215.000 L 232.000 214.473 L 234.000 213.651 L 235.000 213.536 L 308.000 213.500 L 310.000 213.657 L 312.000 214.493 L 312.808 215.000 L 314.000 215.898 L 315.000 217.187 L 315.520 218.000 L 316.343 220.000 L 316.448 221.000 L 316.500 223.000 L 316.496 225.000 L 316.346 227.000 L 315.525 229.000 L 315.000 229.843 L 314.108 231.000 L 312.847 232.000 L 312.000 232.514 L 310.000 233.359 Z M 422.000 302.322 L 421.000 302.506 L 419.000 302.625 L 352.000 302.625 L 349.000 302.468 L 348.000 302.223 L 347.000 301.620 L 346.000 301.183 L 344.684 300.000 L 343.917 299.000 L 342.944 297.000 L 342.616 296.000 L 342.500 294.000 L 342.500 292.000 L 342.647 290.000 L 343.475 288.000 L 344.000 287.175 L 345.000 285.898 L 347.000 284.491 L 349.000 283.651 L 350.000 283.554 L 352.000 283.500 L 416.000 283.500 L 418.000 283.588 L 419.000 283.763 L 420.000 284.223 L 421.000 284.529 L 423.000 285.666 L 424.000 286.554 L 425.334 288.000 L 426.471 290.000 L 426.773 291.000 L 427.232 292.000 L 427.410 293.000 L 427.475 294.000 L 427.412 296.000 L 427.183 297.000 L 426.664 298.000 L 426.284 299.000 L 425.462 300.000 L 424.000 301.338 L 423.000 301.763 L 422.000 302.322 Z M 168.000 397.336 L 167.000 397.500 L 90.000 397.500 L 89.000 397.469 L 88.531 397.000 L 88.531 285.000 L 89.000 284.531 L 111.000 284.500 L 111.500 285.000 L 111.500 378.000 L 112.000 378.500 L 167.000 378.500 L 168.000 378.664 L 168.336 379.000 L 168.336 397.000 L 168.000 397.336 Z M 207.000 397.276 L 206.000 397.500 L 185.000 397.500 L 184.332 397.000 L 184.332 285.000 L 185.000 284.500 L 206.000 284.500 L 207.000 284.724 L 207.276 285.000 L 207.276 397.000 L 207.000 397.276 Z M 319.000 397.004 L 318.000 397.500 L 297.000 397.500 L 296.000 397.404 L 295.584 397.000 L 294.439 395.000 L 293.697 394.000 L 293.246 393.000 L 291.867 391.000 L 291.379 390.000 L 290.619 389.000 L 290.127 388.000 L 288.750 386.000 L 288.299 385.000 L 287.559 384.000 L 286.411 382.000 L 285.659 381.000 L 285.198 380.000 L 283.817 378.000 L 283.346 377.000 L 282.589 376.000 L 281.446 374.000 L 280.704 373.000 L 280.254 372.000 L 278.885 370.000 L 278.384 369.000 L 277.627 368.000 L 277.139 367.000 L 275.763 365.000 L 275.311 364.000 L 274.564 363.000 L 273.419 361.000 L 272.666 360.000 L 272.213 359.000 L 270.828 357.000 L 270.353 356.000 L 269.597 355.000 L 268.451 353.000 L 267.716 352.000 L 267.271 351.000 L 265.904 349.000 L 265.390 348.000 L 264.634 347.000 L 264.150 346.000 L 262.773 344.000 L 262.318 343.000 L 261.569 342.000 L 260.424 340.000 L 259.678 339.000 L 259.223 338.000 L 257.839 336.000 L 257.361 335.000 L 256.602 334.000 L 256.089 333.000 L 254.724 331.000 L 254.280 330.000 L 252.917 328.000 L 252.399 327.000 L 251.642 326.000 L 251.167 325.000 L 251.000 324.812 L 250.833 325.000 L 250.502 326.000 L 250.500 397.000 L 250.000 397.500 L 230.000 397.500 L 229.271 397.000 L 229.271 285.000 L 230.000 284.500 L 251.000 284.500 L 251.708 285.000 L 252.448 286.000 L 253.586 288.000 L 254.334 289.000 L 254.782 290.000 L 256.156 292.000 L 256.632 293.000 L 257.387 294.000 L 257.879 295.000 L 259.246 297.000 L 259.685 298.000 L 260.434 299.000 L 261.568 301.000 L 262.315 302.000 L 262.754 303.000 L 264.121 305.000 L 264.613 306.000 L 265.369 307.000 L 265.844 308.000 L 267.218 310.000 L 267.668 311.000 L 268.416 312.000 L 269.554 314.000 L 270.292 315.000 L 270.733 316.000 L 272.083 318.000 L 272.597 319.000 L 273.351 320.000 L 273.812 321.000 L 275.183 323.000 L 275.647 324.000 L 276.400 325.000 L 276.917 326.000 L 278.263 328.000 L 278.708 329.000 L 279.444 330.000 L 280.583 332.000 L 281.331 333.000 L 281.782 334.000 L 283.150 336.000 L 283.629 337.000 L 284.384 338.000 L 284.873 339.000 L 286.237 341.000 L 286.685 342.000 L 287.429 343.000 L 288.566 345.000 L 289.311 346.000 L 289.754 347.000 L 291.115 349.000 L 291.613 350.000 L 292.366 351.000 L 292.839 352.000 L 294.208 354.000 L 294.664 355.000 L 295.414 356.000 L 295.951 357.000 L 297.000 358.652 L 297.545 358.000 L 297.613 357.000 L 297.613 285.000 L 298.000 284.613 L 299.000 284.500 L 318.000 284.500 L 319.004 285.000 L 319.000 397.004 Z M 422.000 349.263 L 421.000 349.473 L 419.000 349.577 L 352.000 349.577 L 349.000 349.428 L 348.000 349.139 L 346.000 348.083 L 344.728 347.000 L 343.973 346.000 L 343.435 345.000 L 342.625 343.000 L 342.500 341.000 L 342.500 339.000 L 342.634 337.000 L 343.454 335.000 L 344.000 334.095 L 345.000 332.806 L 346.074 332.000 L 348.000 330.924 L 349.000 330.601 L 350.000 330.518 L 352.000 330.464 L 416.000 330.464 L 418.000 330.547 L 419.000 330.701 L 421.000 331.491 L 423.000 332.615 L 424.490 334.000 L 425.372 335.000 L 426.487 337.000 L 426.802 338.000 L 427.250 339.000 L 427.418 340.000 L 427.477 342.000 L 427.407 343.000 L 427.156 344.000 L 426.639 345.000 L 426.246 346.000 L 425.427 347.000 L 424.000 348.296 L 423.000 348.693 L 422.000 349.263 Z M 422.000 397.161 L 421.000 397.415 L 419.000 397.500 L 351.000 397.500 L 349.000 397.359 L 347.000 396.534 L 346.123 396.000 L 345.000 395.134 L 344.000 393.851 L 343.468 393.000 L 342.634 391.000 L 342.525 390.000 L 342.516 386.000 L 342.610 385.000 L 342.911 384.000 L 343.931 382.000 L 345.000 380.698 L 346.000 379.839 L 347.000 379.371 L 348.000 378.777 L 349.000 378.532 L 350.000 378.441 L 416.000 378.423 L 418.000 378.492 L 419.000 378.625 L 422.000 379.898 L 423.000 380.568 L 424.000 381.465 L 425.410 383.000 L 426.041 384.000 L 426.516 385.000 L 427.276 387.000 L 427.428 388.000 L 427.480 389.000 L 427.396 391.000 L 427.108 392.000 L 426.156 394.000 L 425.000 395.352 L 424.000 396.161 L 422.000 397.161 Z" fill="#fff" fill-rule="evenodd"/>
</svg>
