<svg xmlns="http://www.w3.org/2000/svg" width="24" height="24" viewBox="0 0 24 24" fill="currentColor" fill-rule="evenodd" aria-hidden="true"><path d="M18.09 19.59L18.14 19.88L18.28 20.02L18.56 20.11L18.89 20.11L19.17 19.97L19.31 19.73L19.27 19.50L19.12 19.36L18.89 19.27L18.38 19.31L18.19 19.41Z M18.42 19.59L18.84 19.55L19.03 19.69L18.80 19.83L18.56 19.83L18.47 19.78Z M5.02 19.55L5.06 19.88L5.20 20.02L5.44 20.11L5.91 20.06L6.23 19.73L6.23 19.59L6.05 19.36L5.62 19.22L5.16 19.36Z M5.34 19.59L5.81 19.55L5.95 19.64L5.72 19.83L5.48 19.83L5.39 19.78Z M5.86 18.70L6.47 18.75L6.61 18.56L6.52 18.47L5.86 18.52Z M14.58 18.42L14.58 18.94L14.77 19.12L15.66 19.08L15.94 19.12L16.12 18.94L16.12 18.52L15.94 18.28L14.72 18.28Z M14.86 18.80L14.91 18.56L15.75 18.56L15.84 18.70L15.70 18.84Z M7.78 19.27L8.16 19.31L8.25 19.41L8.25 19.55L8.39 19.69L8.67 19.78L8.67 20.02L8.77 20.11L8.91 20.06L9.00 19.73L9.33 19.73L9.42 19.83L9.38 19.97L9.42 20.06L9.56 20.11L9.66 20.02L9.70 19.73L9.98 19.73L10.08 19.83L10.12 20.11L10.27 20.11L10.36 20.02L10.41 19.73L10.78 19.78L10.78 20.02L10.92 20.11L11.06 19.97L11.11 19.73L11.44 19.78L11.48 20.11L11.67 20.06L11.77 19.73L12.00 19.69L12.14 19.55L12.23 19.31L12.61 19.31L12.70 19.12L12.19 18.94L12.52 18.94L12.61 18.75L12.33 18.70L12.19 18.75L12.09 18.66L12.47 18.61L12.56 18.52L12.52 18.38L12.09 18.23L12.42 18.23L12.56 18.09L12.47 18.00L12.09 18.00L11.95 17.77L11.81 17.67L8.62 17.67L8.39 18.00L7.97 18.00L8.02 18.23L8.39 18.28L8.30 18.38L7.88 18.42L7.92 18.56L8.30 18.66L7.83 18.75L7.83 18.89L8.30 18.98Z M8.53 19.41L8.58 19.31L11.86 19.41L11.77 19.50L9.09 19.50Z M8.58 18.75L8.77 17.95L11.72 18.00L11.86 18.98L11.77 19.08L8.58 19.03Z M15.05 17.02L15.05 17.16L15.19 17.30L15.38 17.34L15.61 17.30L15.52 17.25L15.89 17.25L15.84 17.34L16.08 17.34L16.27 17.16L16.22 16.97L16.12 16.92L15.23 16.92Z M16.92 16.69L16.88 17.30L17.02 17.44L17.20 17.48L17.39 17.77L17.81 17.77L17.91 17.67L17.91 17.53L18.09 17.44L18.23 17.25L18.23 16.92L18.00 16.64L17.02 16.64Z M17.16 17.11L17.20 16.92L17.86 16.92L17.95 17.02L17.86 17.20L17.67 17.25L17.25 17.20Z M6.05 16.88L6.09 17.25L6.56 17.48L7.03 17.39L7.27 17.11L7.27 16.92L7.17 16.78L6.89 16.64L6.38 16.64L6.23 16.69Z M6.38 16.97L6.84 16.92L6.98 17.02L6.80 17.20L6.52 17.20L6.42 17.16Z M3.09 20.44L3.09 21.66L3.28 21.94L3.61 22.08L4.50 22.03L20.30 22.08L20.81 21.94L21.09 21.56L21.09 20.48L19.69 17.67L19.36 17.16L18.94 16.22L18.56 15.89L18.23 15.80L16.88 15.84L13.97 15.80L13.55 15.84L13.55 16.03L13.64 16.12L18.38 16.12L18.56 16.22L18.70 16.36L20.34 19.73L20.81 20.53L20.62 20.72L3.52 20.72L3.38 20.58L3.52 20.20L3.84 19.69L5.53 16.31L5.77 16.12L10.59 16.12L10.69 16.08L10.73 15.84L6.52 15.80L5.72 15.84L5.44 15.98L5.25 16.22L3.94 18.89Z M3.33 21.05L3.38 20.95L20.67 20.95L20.81 21.00L20.81 21.52L20.48 21.80L3.61 21.80L3.38 21.61Z M11.86 13.83L11.81 14.30L12.05 14.86L11.95 14.95L11.06 14.95L10.97 15.05L10.97 16.36L11.02 16.45L11.25 16.55L11.34 16.88L11.53 16.83L11.62 16.55L11.95 16.59L12.00 16.88L12.19 16.88L12.28 16.78L12.33 16.55L12.70 16.59L12.70 16.88L12.94 16.83L12.98 16.55L13.12 16.55L13.31 16.36L13.31 15.09L13.17 14.95L12.23 14.91L12.23 14.77L12.47 14.25L12.42 13.88L12.23 13.88L12.14 14.16L12.00 13.88Z M11.25 15.75L11.30 15.61L12.94 15.61L13.03 15.70L13.03 16.17L12.94 16.27L11.34 16.27L11.25 16.17L11.30 15.89Z M11.25 15.33L11.30 15.19L12.94 15.19L13.03 15.28L12.94 15.38Z M7.50 4.55L7.31 4.73L7.27 4.88L7.27 7.88L7.50 8.16L7.69 8.25L8.44 8.30L8.44 10.08L8.53 10.27L8.81 10.50L10.03 10.50L10.12 10.59L10.17 11.53L10.45 11.77L10.83 11.81L10.83 12.28L10.92 12.47L11.06 12.61L11.34 12.61L11.44 12.70L11.44 13.27L11.72 13.55L11.91 13.64L12.33 13.64L12.75 13.31L12.84 13.12L12.80 12.70L12.89 12.61L13.12 12.61L13.41 12.33L13.45 11.77L13.88 11.72L14.11 11.48L14.20 10.50L15.42 10.50L15.80 10.17L15.84 10.08L15.89 8.25L16.55 8.25L16.97 7.92L17.06 7.69L17.06 4.97L16.97 4.78L16.55 4.45L7.73 4.45Z M11.77 12.61L12.52 12.70L12.52 13.12L12.19 13.36L11.86 13.27L11.72 13.12Z M11.11 12.14L11.16 11.77L13.12 11.81L13.12 12.19L12.98 12.33L11.16 12.28Z M10.45 10.50L13.83 10.50L13.92 10.59L13.88 10.92L13.92 11.25L13.69 11.48L10.55 11.48L10.41 11.34Z M8.77 8.25L15.56 8.30L15.56 9.98L15.33 10.22L9.00 10.27L8.72 10.03Z M7.50 5.02L7.69 4.78L16.59 4.78L16.73 4.92L16.78 5.53L16.78 7.64L16.73 7.78L16.50 7.97L7.73 7.97L7.59 7.88L7.50 7.69Z"/></svg>
