<svg xmlns="http://www.w3.org/2000/svg" width="24" height="24" viewBox="0 0 24 24" fill="currentColor" fill-rule="evenodd" aria-hidden="true"><path d="M19.88 18.89L19.64 18.98L19.45 19.17L19.36 19.36L19.36 19.78L19.69 20.20L20.11 20.30L20.44 20.16L20.67 19.88L20.72 19.50L20.67 19.27L20.39 18.98L20.16 18.89Z M19.88 19.17L20.20 19.17L20.44 19.41L20.44 19.73L20.11 20.02L19.83 19.97L19.59 19.64L19.69 19.31Z M14.62 15.19L14.34 15.52L14.44 15.70L14.58 15.70L14.58 16.50L14.34 16.64L14.39 16.83L14.95 16.83L15.05 16.73L15.00 16.59L14.86 16.55L14.91 15.70L15.00 15.70L15.09 15.52L14.81 15.19Z M13.64 15.19L13.41 15.47L13.45 15.70L13.64 15.75L13.64 16.50L13.45 16.59L13.50 16.83L14.06 16.83L14.16 16.69L13.88 16.50L13.88 15.94L13.97 15.66L14.06 15.70L14.16 15.56L13.83 15.19Z M8.16 15.19L7.88 15.47L7.92 15.70L8.11 15.70L8.11 16.45L7.97 16.59L7.88 16.59L7.92 16.83L8.44 16.83L8.53 16.73L8.48 16.59L8.34 16.50L8.39 15.70L8.48 15.70L8.58 15.52L8.30 15.19Z M7.17 15.19L6.89 15.52L6.94 15.70L7.12 15.75L7.12 16.50L6.94 16.59L6.98 16.83L7.55 16.83L7.64 16.73L7.59 16.59L7.41 16.55L7.45 15.70L7.55 15.70L7.64 15.52L7.41 15.23Z M11.62 9.23L11.48 9.28L11.25 9.56L11.30 9.75L11.48 9.80L11.48 10.55L11.25 10.69L11.30 10.88L11.86 10.88L11.95 10.78L11.95 10.69L11.81 10.64L11.72 10.50L11.81 9.75L11.95 9.70L11.95 9.61Z M10.59 9.23L10.31 9.56L10.36 9.75L10.55 9.80L10.55 10.55L10.36 10.64L10.36 10.88L10.92 10.88L11.02 10.78L10.97 10.64L10.78 10.59L10.83 9.75L10.97 9.75L11.06 9.66L10.69 9.23Z M20.77 8.81L20.25 8.81L20.34 10.17L20.86 9.70L21.09 9.38L21.05 9.05Z M20.72 9.09L20.81 9.19L20.81 9.33L20.53 9.66L20.62 9.09Z M19.27 8.81L19.08 8.95L18.98 9.38L19.08 9.56L19.73 10.17L19.88 10.03L19.88 8.95L19.83 8.86Z M19.41 9.05L19.59 9.14L19.50 9.61L19.27 9.33L19.31 9.09Z M6.33 5.62L6.14 5.86L6.14 11.39L6.05 11.48L3.19 11.48L2.95 11.67L2.86 11.91L2.91 17.39L2.81 17.48L1.88 17.48L1.78 17.58L1.78 18.56L1.83 18.66L2.20 18.80L2.20 19.69L2.11 19.78L1.83 19.83L1.78 19.92L1.78 20.95L1.92 21.09L17.62 21.09L18.09 20.77L18.33 19.92L18.42 19.78L18.52 19.88L18.52 20.11L18.75 20.53L19.27 21.00L19.69 21.14L20.16 21.19L20.53 21.09L20.91 20.91L21.33 20.48L21.52 20.20L21.66 19.73L21.66 19.41L21.52 18.94L21.09 18.42L21.14 18.09L21.09 17.91L20.81 17.48L20.86 17.25L20.77 16.50L20.91 16.36L20.91 15.23L20.77 15.09L20.58 15.05L20.53 11.06L20.72 10.73L21.52 9.89L21.66 9.61L21.70 9.05L21.47 8.53L21.14 8.25L20.72 8.11L20.20 8.16L19.36 8.11L18.75 8.34L18.42 8.77L18.38 8.95L18.42 9.75L19.50 10.97L19.50 14.95L19.41 15.05L18.42 15.05L18.09 15.28L16.69 19.64L16.55 19.78L16.36 19.73L16.41 18.70L16.64 18.70L16.78 18.56L16.78 17.62L16.64 17.48L16.17 17.44L15.84 17.48L15.80 17.30L15.89 17.20L15.89 11.86L15.80 11.67L15.56 11.48L12.75 11.44L12.80 5.95L12.70 5.77L12.47 5.58L6.42 5.58Z M14.53 18.70L15.80 18.75L16.03 18.70L16.12 18.80L16.12 19.69L16.03 19.78L14.48 19.73Z M10.36 18.80L10.45 18.70L11.53 18.75L13.78 18.70L14.25 18.80L14.25 19.69L14.16 19.78L10.45 19.78Z M8.58 18.70L10.03 18.70L10.12 18.80L10.12 19.69L10.03 19.78L8.58 19.78L8.48 19.69L8.48 19.12Z M4.31 18.84L4.36 18.70L5.77 18.75L8.16 18.70L8.25 18.80L8.20 19.69L8.11 19.78L4.41 19.78L4.31 19.69Z M2.53 18.70L4.08 18.75L4.08 19.69L3.98 19.78L2.48 19.73Z M19.78 18.28L20.25 18.28L20.77 18.47L21.19 18.89L21.33 19.22L21.38 19.59L21.33 19.92L21.19 20.25L20.77 20.67L20.20 20.91L19.78 20.91L19.27 20.67L18.89 20.25L18.70 19.69L18.75 19.27L18.98 18.75L19.45 18.38Z M18.84 18.33L18.98 18.38L18.84 18.56L18.80 18.42Z M2.02 17.86L2.06 17.72L3.09 17.77L16.45 17.72L16.55 17.81L16.55 18.38L16.45 18.47L2.11 18.47L2.02 18.38Z M19.17 18.05L19.50 17.39L20.48 17.39L20.58 17.48L20.58 17.67L20.86 18.05L20.67 18.14L20.25 18.00L19.83 18.00L19.45 18.09L19.22 18.23Z M9.42 17.25L9.52 17.39L9.33 17.44Z M19.45 16.59L20.53 16.64L20.53 17.02L20.44 17.11L19.36 17.06Z M20.67 15.42L20.67 16.17L20.53 16.31L19.27 16.31L19.17 16.41L18.61 18.28L18.42 18.70L17.95 20.39L17.62 20.81L2.06 20.77L2.11 20.06L16.69 20.06L16.92 19.78L18.00 16.36L18.28 15.66L18.28 15.52L18.47 15.33L20.58 15.33Z M12.19 11.77L13.17 11.81L13.17 12.70L13.08 12.80L12.14 12.75Z M9.70 11.86L9.80 11.77L11.91 11.81L11.95 13.08L13.31 13.08L13.45 12.94L13.50 11.77L15.47 11.77L15.61 11.91L15.61 17.16L15.56 17.25L15.33 17.44L10.12 17.48L9.89 17.44L9.70 17.25Z M5.67 11.77L6.66 11.81L6.66 12.70L6.56 12.80L5.62 12.75Z M3.23 11.77L5.34 11.91L5.44 13.08L6.80 13.08L6.94 12.94L6.98 11.77L9.00 11.77L9.14 11.91L9.14 17.20L8.91 17.44L3.33 17.44L3.19 17.30Z M19.27 8.39L20.81 8.39L21.19 8.62L21.42 9.05L21.42 9.47L21.28 9.75L20.44 10.64L20.25 11.02L20.30 14.95L20.20 15.05L19.78 15.00L19.78 10.92L18.75 9.75L18.66 9.52L18.66 9.00L18.75 8.77L19.03 8.48Z M9.05 5.81L9.28 5.86L9.89 5.81L9.98 5.91L9.98 6.84L9.89 6.94L8.95 6.89Z M6.42 5.95L6.61 5.81L8.58 5.81L8.67 5.91L8.67 7.12L8.77 7.22L10.08 7.22L10.27 7.03L10.31 5.81L11.44 5.86L12.33 5.81L12.52 6.00L12.52 11.20L12.42 11.34L12.23 11.48L9.75 11.48L9.56 11.58L9.42 11.81L9.38 11.67L9.09 11.48L6.61 11.48L6.52 11.44L6.42 11.30Z"/></svg>
