<svg xmlns="http://www.w3.org/2000/svg" width="24" height="24" viewBox="0 0 24 24" fill="currentColor" fill-rule="evenodd" aria-hidden="true"><path d="M14.11 20.72L14.62 20.77L14.77 20.67L14.62 20.58L14.39 20.58Z M23.95 19.50L23.81 19.59L23.62 19.92L23.62 20.72L23.72 20.77L23.95 20.72Z M7.12 20.02L7.17 20.39L7.27 20.53L7.17 20.62L7.22 20.77L7.50 20.77L7.64 20.58L7.55 20.30L7.59 20.02L8.67 19.45L8.91 19.50L9.14 19.88L9.33 20.02L9.84 19.88L10.41 19.88L10.59 19.69L10.64 19.45L10.97 19.41L12.14 19.45L12.38 19.55L12.42 20.16L12.75 20.30L13.45 20.77L13.73 20.77L13.88 20.67L12.75 19.92L12.75 19.36L12.66 19.17L12.47 19.08L10.45 19.03L10.22 19.50L9.42 19.59L9.09 19.12L8.81 18.98L7.55 19.64L7.27 19.83Z M15.89 18.70L15.56 18.89L15.42 19.08L15.33 19.36L15.38 19.69L15.52 19.97L15.75 20.16L16.36 20.20L16.83 19.78L16.92 19.36L16.83 19.12L16.59 18.84L16.31 18.70Z M15.98 19.08L16.27 19.08L16.55 19.36L16.50 19.59L16.17 19.88L15.94 19.83L15.75 19.59L15.75 19.27Z M4.41 18.70L3.98 18.94L3.84 19.22L3.80 19.50L3.94 19.88L4.31 20.20L4.59 20.25L4.92 20.16L5.30 19.78L5.39 19.41L5.30 19.12L5.11 18.89L4.73 18.70Z M4.41 19.08L4.73 19.08L5.02 19.41L4.97 19.59L4.69 19.88L4.41 19.83L4.22 19.59L4.22 19.27Z M18.05 18.98L18.00 18.75L17.77 18.28L17.39 17.91L17.16 17.77L16.69 17.62L3.89 17.67L3.23 17.95L2.95 18.23L2.77 18.56L2.67 18.89L2.72 20.77L2.91 20.77L3.00 20.67L3.00 19.03L3.09 18.84L3.09 18.66L3.19 18.47L3.47 18.19L3.94 18.00L16.69 18.00L17.16 18.19L17.62 18.75L17.67 20.67L17.77 20.77L17.91 20.77L18.09 20.62Z M23.16 8.02L21.94 8.06L21.70 9.33L21.61 9.52L21.61 9.84L21.52 10.03L21.52 10.27L21.89 11.02L21.84 12.00L21.84 17.86L21.89 18.05L21.75 18.19L21.23 18.19L20.91 18.33L20.67 18.70L20.67 19.31L20.77 19.55L21.19 19.97L21.19 20.67L21.28 20.77L21.47 20.77L21.61 20.62L21.61 20.20L21.42 19.64L21.05 19.31L21.05 18.75L21.14 18.61L21.23 18.56L23.95 18.56L23.95 18.19L23.34 18.14L23.34 10.88L23.67 10.31L23.67 10.03L23.58 9.70L23.48 8.81L23.39 8.58L23.39 8.30L23.34 8.16Z M22.27 8.39L22.92 8.39L23.02 8.48L23.11 8.91L23.11 9.28L23.20 9.47L23.20 9.84L23.30 10.12L22.97 10.78L22.97 18.09L22.88 18.19L22.31 18.19L22.22 18.09L22.27 10.88L21.94 10.31L21.94 9.98Z M3.75 7.88L2.67 10.69L2.67 11.25L2.77 11.58L2.77 12.14L2.86 12.47L2.86 13.03L2.95 13.36L3.09 15.14L3.19 15.38L3.47 15.70L3.75 15.80L3.94 15.61L5.20 12.23L5.34 11.95L5.48 11.95L7.08 12.56L7.59 12.84L7.50 12.94L7.41 13.31L7.22 13.64L7.22 13.83L6.98 14.30L6.42 15.84L6.14 16.41L6.14 16.69L6.23 16.78L6.56 16.78L6.84 16.64L8.16 15.47L9.09 14.72L9.33 14.62L12.42 15.89L12.89 15.66L13.27 14.91L15.14 15.61L15.94 15.98L17.20 16.41L18.38 16.92L18.52 16.92L19.41 17.34L19.59 17.39L19.88 17.30L20.20 16.97L20.62 15.94L20.53 15.42L20.34 15.23L19.50 14.95L18.84 14.62L17.91 14.30L17.25 13.97L14.16 12.75L14.11 12.56L14.20 12.47L14.39 11.95L14.39 11.77L14.30 11.58L13.92 11.34L13.78 11.34L13.69 11.25L12.89 10.92L12.75 10.92L11.91 10.50L11.77 10.50L11.67 10.41L11.53 10.41L10.45 9.94L10.31 9.80L10.50 9.05L10.50 8.67L10.36 8.06L9.98 7.55L9.70 7.59L9.09 9.19L8.86 9.56L8.67 10.17L8.48 10.31L8.02 10.08L7.88 10.08L7.78 9.98L7.64 9.98L6.84 9.66L6.66 9.52L6.66 9.38L6.80 9.14L7.64 6.89L7.64 6.70L7.45 6.56L7.08 6.61L6.52 6.89L5.95 7.45L5.39 8.16L5.20 8.02L4.31 7.69L4.12 7.69Z M8.72 14.53L6.70 16.27L6.66 16.12L7.50 14.06L7.69 14.02L7.97 14.20L7.69 14.81L7.73 15.00L7.88 15.09L8.16 14.77L8.25 14.44L8.34 14.34Z M13.88 13.12L14.02 13.08L14.25 13.22L20.06 15.52L20.25 15.70L20.25 15.84L20.02 16.31L19.88 16.78L19.69 16.97L19.50 16.97L18.09 16.36L17.06 16.03L15.80 15.47L13.50 14.62L13.36 14.44Z M7.92 12.89L8.16 12.66L10.31 13.59L12.80 14.53L12.94 14.67L12.84 14.77L12.70 15.23L12.52 15.47L12.38 15.47L9.75 14.44L9.33 14.20L8.67 14.16L8.39 13.92L8.16 13.88L7.69 13.59Z M9.14 9.89L9.28 9.84L10.69 10.45L11.72 10.83L11.81 10.92L12.98 11.34L13.08 11.44L13.97 11.81L14.02 11.91L13.78 12.52L13.59 12.66L8.95 10.73L8.86 10.55Z M9.98 8.16L10.12 8.95L9.98 9.66L9.89 9.75L9.70 9.61L9.47 9.56L9.38 9.38L9.75 8.48L9.75 8.34L9.84 8.16Z M3.98 8.20L4.17 8.06L4.36 8.06L5.48 8.58L5.72 8.39L6.28 7.64L6.80 7.17L7.17 7.12L6.89 7.27L6.70 7.50L6.09 8.81L6.05 9.09L5.91 9.23L5.44 9.05L5.20 9.09L5.20 9.38L8.06 10.55L8.39 10.64L8.48 10.97L13.55 12.98L13.12 14.16L12.98 14.25L8.11 12.28L7.88 12.28L7.73 12.42L7.64 12.42L4.97 11.34L4.69 11.30L4.59 11.39L4.59 11.58L5.02 11.86L3.70 15.19L3.52 15.23L3.42 15.05L3.42 14.34L3.28 13.55L3.28 12.94L3.19 12.70L3.19 12.09L3.09 11.77L3.05 10.69Z"/></svg>
