<svg xmlns="http://www.w3.org/2000/svg" width="24" height="24" viewBox="0 0 24 24" fill="currentColor" fill-rule="evenodd" aria-hidden="true"><path d="M11.16 21.38L11.20 21.61L11.58 21.61L11.67 21.52L11.62 21.38Z M13.73 21.38L13.73 21.61L13.83 21.66L14.02 21.66L14.16 21.52L14.11 21.33Z M6.09 20.91L5.77 21.09L5.67 21.42L5.86 21.75L6.05 21.84L6.42 21.80L6.66 21.56L6.70 21.23L6.52 21.00Z M6.14 21.19L6.23 21.19L6.42 21.38L6.23 21.56L6.14 21.56L5.95 21.33Z M11.91 19.73L11.81 19.78L11.86 20.34L11.77 20.67L11.81 20.81L12.05 20.95L12.23 21.28L12.52 21.33L12.75 21.05L12.75 20.81L12.61 20.67L12.14 20.62L12.19 20.30L12.52 20.25L12.47 20.11L12.33 20.06L12.38 19.88L12.23 19.73Z M12.33 20.86L12.52 20.95L12.38 21.09L12.28 21.00Z M13.12 19.59L12.98 19.73L13.03 20.53L13.17 20.58L13.22 20.72L13.36 20.81L13.50 20.62L13.69 20.62L13.73 20.77L13.92 20.72L13.92 20.62L14.11 20.48L14.20 20.30L14.16 19.73L13.97 19.59Z M13.31 19.88L13.92 19.92L13.92 20.20L13.78 20.34L13.27 20.25Z M5.77 19.41L5.67 19.55L5.67 20.06L5.81 20.25L6.47 20.30L6.66 20.16L6.70 19.50L6.56 19.36Z M6.00 19.59L6.42 19.69L6.42 19.92L6.33 20.02L5.95 19.97Z M16.27 18.28L16.08 18.38L16.12 21.84L15.89 22.12L15.52 22.12L15.42 22.22L15.42 22.36L15.52 22.41L15.98 22.41L16.31 22.12L16.41 21.94L16.36 18.33Z M8.34 17.81L8.30 17.91L8.34 18.09L8.20 18.23L8.06 18.23L7.97 18.33L7.97 18.52L7.83 18.66L7.50 18.70L7.59 18.89L7.88 18.89L7.97 19.03L7.83 19.17L7.55 19.17L7.59 19.41L7.88 19.41L7.97 19.50L7.88 19.69L7.55 19.73L7.59 19.92L7.97 20.06L7.83 20.20L7.55 20.20L7.55 20.44L7.78 20.44L7.97 20.53L7.97 20.72L8.11 20.86L8.25 20.86L8.34 20.95L8.34 21.28L8.44 21.33L8.72 20.91L8.86 21.19L9.05 21.19L9.14 21.28L9.23 21.28L9.38 21.14L9.52 21.19L9.70 20.91L9.84 20.95L9.94 21.33L10.03 21.33L10.12 21.23L10.17 20.86L10.31 20.86L10.50 20.67L10.59 20.44L10.88 20.44L10.97 20.30L10.88 20.20L10.55 20.16L10.50 20.02L10.59 19.92L10.83 19.92L10.92 19.83L10.92 19.73L10.55 19.64L10.59 19.41L10.83 19.41L10.92 19.31L10.88 19.17L10.55 19.12L10.59 18.89L10.83 18.89L10.97 18.75L10.88 18.66L10.55 18.61L10.45 18.33L10.12 18.14L10.08 17.81L9.89 17.81L9.89 18.09L9.70 18.14L9.66 18.00L9.47 18.00L9.47 18.09L9.28 18.14L9.33 17.95L9.28 17.81L9.09 17.81L9.14 18.09L9.05 18.19L8.95 18.00L8.77 17.95L8.77 18.09L8.62 18.23L8.53 17.81Z M8.30 18.47L8.77 18.52L10.12 18.47L10.22 18.56L10.27 20.44L10.12 20.58L9.70 20.62L8.39 20.58L8.30 20.62L8.20 20.53Z M11.91 17.39L11.72 17.48L11.58 17.67L11.58 18.09L11.77 18.33L11.95 18.42L12.28 18.38L12.52 18.14L12.61 17.91L12.52 17.62L12.33 17.44Z M11.95 17.67L12.14 17.67L12.33 17.91L12.09 18.14L12.00 18.14L11.81 17.91L11.81 17.81Z M6.09 17.39L5.95 17.44L5.77 17.62L5.72 18.00L5.81 18.23L5.95 18.38L6.14 18.47L6.33 18.47L6.70 18.19L6.80 17.86L6.66 17.53L6.42 17.39Z M6.14 17.67L6.33 17.67L6.52 17.86L6.52 17.95L6.23 18.19L6.05 18.05L6.05 17.77Z M4.83 16.92L4.73 17.25L4.73 21.98L4.88 22.31L5.25 22.64L5.44 22.69L14.44 22.69L14.77 22.55L15.05 22.27L15.14 22.08L15.14 19.17L15.05 18.98L14.67 18.70L13.73 18.70L13.50 18.52L13.45 18.42L13.45 17.25L13.31 16.92L12.94 16.59L12.80 16.55L5.30 16.55L4.97 16.73Z M5.11 17.06L5.39 16.83L12.70 16.83L12.89 16.92L13.17 17.25L13.17 18.56L13.45 18.89L13.73 18.98L14.58 18.98L14.91 19.31L14.91 21.94L14.58 22.31L14.39 22.41L5.48 22.41L5.34 22.36L5.11 22.12L5.06 21.98L5.06 17.16Z M17.02 13.03L16.41 13.31L16.03 13.73L15.84 14.20L15.84 14.86L16.08 15.42L16.50 15.84L17.02 16.08L17.39 16.12L17.81 16.03L18.09 15.89L18.61 15.42L18.89 14.81L18.89 14.16L18.66 13.69L18.14 13.22L17.67 13.03Z M17.11 13.31L17.77 13.36L18.19 13.59L18.42 13.88L18.61 14.34L18.56 14.91L18.33 15.33L17.86 15.70L17.53 15.80L16.97 15.75L16.55 15.52L16.36 15.33L16.12 14.72L16.17 14.11L16.31 13.83L16.64 13.50Z M16.69 11.16L16.59 11.67L16.36 11.91L16.22 11.91L16.03 12.05L15.47 11.67L15.28 11.67L14.53 12.42L14.53 12.61L14.91 13.22L14.62 13.73L14.20 13.78L13.97 13.88L13.92 15.09L14.06 15.28L14.62 15.38L14.72 15.47L14.86 15.94L14.53 16.45L14.53 16.64L15.33 17.44L15.47 17.44L15.80 17.16L16.08 17.06L16.55 17.30L16.64 17.86L16.73 18.00L16.83 18.05L17.86 18.00L18.05 17.81L18.19 17.25L18.56 17.11L18.75 17.11L19.22 17.44L19.36 17.44L20.20 16.59L19.83 15.84L20.06 15.38L20.62 15.28L20.77 15.14L20.81 14.02L20.62 13.83L20.11 13.73L20.02 13.64L19.83 13.12L20.16 12.66L20.20 12.47L19.41 11.67L19.22 11.67L18.66 12.05L18.14 11.77L18.09 11.34L17.95 11.11Z M16.92 11.39L17.81 11.44L17.95 12.05L18.66 12.38L19.12 12.05L19.36 12.00L19.88 12.56L19.55 13.08L19.55 13.27L19.83 13.92L19.97 14.02L20.34 14.06L20.53 14.16L20.53 14.91L20.39 15.05L19.83 15.14L19.69 15.61L19.55 15.84L19.55 15.98L19.88 16.55L19.22 17.11L18.75 16.78L18.56 16.78L18.47 16.88L17.91 17.06L17.81 17.62L17.72 17.72L16.97 17.72L16.88 17.62L16.78 17.06L15.98 16.73L15.38 17.11L14.86 16.59L14.86 16.45L15.14 16.03L15.14 15.75L15.05 15.66L14.91 15.19L14.77 15.09L14.30 15.05L14.20 14.95L14.25 14.06L14.77 14.02L14.91 13.88L14.95 13.64L15.19 13.17L14.86 12.61L14.95 12.38L15.38 12.00L15.47 12.00L16.03 12.38L16.64 12.09L16.83 11.91Z M5.20 11.67L5.20 11.86L5.30 11.95L5.58 12.00L5.72 12.33L5.91 12.52L6.14 12.61L6.19 14.11L6.28 14.30L6.56 14.53L7.27 14.53L7.64 15.00L7.88 15.09L8.06 15.09L8.25 15.00L8.67 14.53L9.38 14.53L9.66 14.30L9.75 14.11L9.84 12.56L11.58 12.61L11.95 13.12L12.23 13.27L12.66 13.27L13.08 12.98L13.31 12.52L13.27 12.19L12.94 11.77L12.61 11.62L12.23 11.62L11.86 11.81L11.53 12.28L9.84 12.28L9.52 12.38L9.47 12.47L9.47 14.06L9.28 14.25L8.67 14.25L8.39 13.88L8.11 13.73L7.83 13.73L7.59 13.83L7.27 14.25L6.66 14.25L6.47 14.02L6.47 12.66L6.89 12.28L7.03 11.95L7.27 11.95L7.41 11.77L7.36 11.67L7.08 11.67L6.98 11.58L7.03 11.48L6.84 11.16L6.47 10.88L6.00 10.92L5.72 11.16L5.48 11.62Z M7.78 14.06L8.11 14.06L8.34 14.30L8.30 14.58L8.06 14.77L7.83 14.77L7.59 14.48L7.59 14.30Z M12.33 11.91L12.56 11.91L12.84 12.05L13.03 12.42L12.89 12.75L12.52 12.98L12.19 12.94L11.95 12.70L11.91 12.52L11.95 12.14L12.09 12.00Z M6.19 11.16L6.47 11.20L6.75 11.53L6.70 12.05L6.28 12.38L6.09 12.28L5.81 11.91L5.81 11.53Z M5.20 9.09L5.34 9.19L11.16 9.14L11.30 9.00L11.16 8.86L5.25 8.86Z M5.20 7.31L5.20 7.45L5.30 7.55L11.16 7.55L11.25 7.45L11.25 7.31L11.16 7.27L5.30 7.27Z M13.73 3.98L13.45 3.89L3.80 3.89L3.52 3.98L3.38 4.12L3.28 4.31L3.28 21.38L3.38 21.56L3.66 21.80L4.27 21.84L4.36 21.80L4.41 21.56L3.75 21.52L3.56 21.28L3.56 4.45L3.61 4.31L3.70 4.22L13.45 4.27L13.45 6.52L13.55 6.70L13.69 6.84L13.92 6.94L16.03 6.94L16.12 7.03L16.17 10.88L16.27 10.88L16.41 10.73L16.41 6.84L16.36 6.70L15.66 5.91Z M13.78 4.45L15.89 6.56L15.80 6.66L14.02 6.66L13.83 6.56L13.73 6.42Z"/></svg>
