<svg xmlns="http://www.w3.org/2000/svg" width="24" height="24" viewBox="0 0 24 24" fill="currentColor" fill-rule="evenodd" aria-hidden="true"><path d="M17.25 18.05L17.30 18.98L18.14 18.98L18.23 18.89L18.19 18.00Z M17.53 18.23L17.67 18.28L17.58 18.42L17.62 18.61L17.81 18.61L17.91 18.42L17.67 18.23L17.86 18.19L17.95 18.23L18.00 18.61L17.86 18.75L17.48 18.70Z M11.06 17.95L11.11 18.19L15.33 18.19L15.42 18.14L15.47 17.95L15.38 17.91Z M19.27 17.67L19.27 17.86L19.45 17.86L19.50 17.67Z M17.30 17.67L17.30 17.86L17.44 17.86L17.48 17.67Z M17.67 17.67L17.77 17.86L17.95 17.81L18.28 17.86L18.42 18.14L18.66 18.33L18.70 18.42L18.61 18.47L18.42 18.38L18.38 18.47L18.38 18.75L18.52 18.89L18.70 18.89L18.89 18.75L19.12 18.98L19.41 18.98L19.50 18.89L19.45 18.70L19.22 18.56L19.55 18.33L19.55 18.00L19.17 17.95L19.03 17.67L18.84 17.67L18.75 17.86L18.47 17.39L18.28 17.44L18.28 17.53L18.14 17.67Z M19.03 17.95L19.36 18.23L19.27 18.33L18.94 18.05Z M11.06 17.06L11.11 17.30L15.38 17.30L15.47 17.20L15.47 17.06L15.38 17.02Z M19.08 16.88L18.98 16.92L18.98 17.16L19.08 17.25L19.22 17.16L19.27 17.02L19.22 16.92Z M17.62 16.88L17.62 17.16L17.72 17.25L17.81 17.20L17.91 17.02L17.86 16.92Z M18.33 16.78L18.33 16.97L18.52 16.92L18.47 16.73Z M18.66 16.55L18.70 17.53L19.45 17.53L19.55 17.44L19.59 17.20L19.59 16.64L19.50 16.55Z M18.89 16.78L19.36 16.83L19.36 17.20L19.22 17.34L18.94 17.34L18.84 17.25Z M17.25 16.55L17.30 17.53L18.09 17.53L18.23 17.34L18.23 16.64L18.14 16.55Z M17.53 16.78L17.91 16.78L18.00 16.88L18.00 17.20L17.86 17.34L17.58 17.34L17.48 17.25Z M16.41 15.56L16.50 15.61L18.00 15.61L18.19 15.42L18.09 15.33L16.41 15.38Z M19.78 14.48L19.83 14.72L20.02 14.81L20.02 18.66L19.92 18.75L19.69 18.75L19.73 18.98L20.02 19.03L20.30 18.80L20.30 14.67L20.11 14.48Z M16.36 14.62L16.41 14.72L16.55 14.77L19.17 14.77L19.27 14.72L19.27 14.48L16.41 14.48Z M15.38 14.44L15.23 14.48L15.23 16.17L15.28 16.27L15.47 16.17L15.47 14.48Z M14.95 14.44L14.77 14.48L14.77 16.17L14.91 16.27L15.05 16.08L15.05 14.53Z M14.48 14.44L14.34 14.48L14.44 16.27L14.58 16.12L14.58 14.48Z M13.92 14.48L13.88 16.08L14.11 16.22L14.11 14.48Z M13.64 14.48L13.41 14.48L13.41 16.17L13.50 16.27L13.64 16.22L13.69 16.12L13.69 14.58Z M13.12 14.44L12.98 14.48L12.98 16.17L13.12 16.27L13.27 16.12L13.22 14.48Z M12.66 14.44L12.52 14.48L12.61 16.27L12.75 16.08L12.75 14.53Z M12.23 14.44L12.05 14.48L12.05 16.17L12.09 16.27L12.28 16.17Z M11.72 14.44L11.53 14.44L11.53 16.17L11.58 16.27L11.77 16.12Z M11.25 14.44L11.06 14.48L11.11 16.27L11.30 16.17Z M3.23 8.86L3.23 18.66L3.38 18.89L3.66 19.08L9.84 19.08L9.94 19.17L9.94 19.50L10.03 19.69L10.27 19.92L10.59 20.06L20.86 20.06L21.19 19.92L21.47 19.64L21.56 19.45L21.56 13.97L21.52 13.83L21.23 13.50L21.05 13.41L18.61 13.41L18.52 13.31L18.52 8.91L16.12 6.52L15.98 6.47L5.86 6.47L5.62 6.61Z M10.31 13.83L10.50 13.69L20.95 13.69L21.23 13.92L21.28 14.25L21.28 19.31L21.23 19.45L20.95 19.73L20.72 19.78L10.64 19.78L10.50 19.73L10.22 19.41L10.22 14.02Z M9.56 9.09L12.19 9.14L12.19 11.11L12.09 11.20L9.61 11.20L9.52 11.11L9.52 9.23Z M3.52 18.56L3.56 9.09L9.23 9.14L9.23 11.34L9.38 11.48L12.33 11.48L12.47 11.30L12.52 9.09L18.14 9.09L18.23 9.19L18.23 13.27L18.09 13.41L10.45 13.41L10.08 13.64L9.94 13.92L9.94 18.70L9.84 18.80L3.75 18.80Z M12.00 6.94L12.09 6.75L12.47 6.80L15.89 6.75L17.72 8.48L17.91 8.81L12.52 8.81L12.38 8.62L12.28 7.97Z M10.17 6.75L10.55 6.80L11.62 6.75L11.72 6.84L12.00 8.25L12.09 8.44L12.14 8.72L12.05 8.81L9.61 8.77L9.70 8.25Z M3.80 8.72L5.72 6.94L6.00 6.75L6.28 6.80L6.33 6.75L6.52 6.80L9.75 6.75L9.84 6.84L9.56 7.64L9.33 8.67L9.19 8.81Z"/></svg>
