<svg xmlns="http://www.w3.org/2000/svg" width="24" height="24" viewBox="0 0 24 24" fill="currentColor" fill-rule="evenodd" aria-hidden="true"><path d="M6.19 17.77L6.05 17.81L5.81 18.05L5.72 18.28L5.72 18.56L5.95 18.98L6.23 19.12L6.56 19.12L6.94 18.89L7.08 18.66L7.12 18.33L6.94 17.95L6.75 17.81Z M6.28 18.05L6.52 18.05L6.80 18.28L6.80 18.56L6.47 18.84L6.23 18.80L6.05 18.61L6.05 18.23Z M12.00 12.38L12.00 12.61L15.00 15.42L15.05 15.23L12.23 12.38Z M18.33 2.91L18.05 2.81L17.11 2.81L16.45 2.95L15.70 3.28L14.91 3.94L14.44 4.64L14.20 5.30L14.11 6.23L14.25 7.22L14.06 7.92L13.64 8.58L11.95 10.27L11.34 9.80L10.88 9.23L10.92 8.95L10.88 8.67L10.59 8.34L10.41 8.25L10.03 8.25L9.75 8.34L9.28 7.88L9.14 7.83L8.91 7.88L6.00 4.97L5.53 4.92L5.11 4.45L3.47 3.19L3.14 3.23L3.09 3.33L3.14 3.66L4.31 5.20L4.83 5.67L4.88 6.14L7.73 9.00L7.69 9.38L8.20 9.94L8.06 10.12L8.02 10.45L8.16 10.83L8.48 11.06L8.72 11.11L9.00 11.06L9.66 11.67L10.03 12.23L5.77 16.64L4.97 17.58L4.73 18.19L4.73 18.89L4.97 19.45L5.34 19.83L5.86 20.06L6.47 20.11L6.94 19.97L7.27 19.78L7.78 19.27L8.48 18.38L11.77 14.72L12.09 14.44L14.62 17.02L15.00 17.20L15.56 17.16L16.17 17.77L16.50 17.81L17.02 18.33L17.34 18.94L17.39 19.50L17.25 20.02L17.11 20.25L16.59 20.72L16.17 20.91L15.84 20.95L13.69 21.00L13.69 21.14L13.78 21.23L16.03 21.23L16.73 21.00L17.34 20.44L17.62 19.88L17.67 19.03L17.39 18.33L16.78 17.67L16.78 17.58L17.02 17.39L17.72 18.19L18.00 18.89L18.05 19.22L18.00 19.83L17.72 20.53L17.34 20.95L17.39 21.23L17.58 21.19L17.86 20.86L18.19 20.25L18.33 19.69L18.33 19.03L18.09 18.23L17.86 17.86L17.20 17.16L17.16 16.78L16.64 16.22L16.73 15.98L16.73 15.47L16.59 15.19L13.97 12.33L16.12 10.03L16.78 9.70L17.95 9.70L18.42 9.61L19.12 9.33L19.55 9.05L20.06 8.58L20.44 8.06L20.72 7.50L20.95 6.52L20.95 5.72L20.91 5.44L20.67 5.16L20.20 5.20L18.38 7.08L18.14 7.08L17.16 6.80L16.92 6.61L16.64 5.62L16.64 5.25L18.42 3.47L18.52 3.23Z M16.45 16.45L16.92 17.02L16.36 17.53L15.84 16.97L16.36 16.45Z M10.27 12.52L11.11 13.41L8.20 16.55L8.25 16.83L8.39 16.83L10.64 14.34L11.39 13.73L11.86 14.20L9.94 16.27L7.08 19.55L6.56 19.78L5.95 19.78L5.53 19.59L5.16 19.17L5.02 18.80L5.02 18.28L5.30 17.62L8.58 14.16Z M10.59 9.47L10.73 9.52L11.20 10.08L12.14 10.83L16.45 15.56L16.41 15.98L15.47 16.88L15.09 16.92L14.91 16.83L10.64 12.52L9.89 11.48L9.28 10.92L9.23 10.83Z M10.41 8.58L10.59 8.81L10.55 9.09L8.81 10.78L8.58 10.78L8.34 10.55L8.34 10.22L9.98 8.58L10.12 8.53Z M9.14 8.16L9.56 8.58L8.39 9.70L7.97 9.28L7.97 9.14L8.95 8.16Z M5.67 5.25L5.86 5.25L8.62 8.06L7.92 8.72L5.16 6.00L5.11 5.91L5.16 5.72Z M3.75 3.80L4.73 4.55L5.30 5.16L5.02 5.44L4.41 4.83L3.70 3.89Z M18.19 3.19L18.19 3.28L16.41 5.06L16.31 5.25L16.31 5.58L16.69 6.80L17.06 7.08L18.05 7.36L18.47 7.36L20.39 5.44L20.53 5.44L20.62 5.53L20.67 6.38L20.44 7.41L20.02 8.16L19.36 8.81L19.08 9.00L18.33 9.33L16.88 9.38L16.50 9.47L16.12 9.66L15.05 10.69L14.06 11.81L13.73 12.09L13.27 11.58L15.00 9.70L14.95 9.56L14.72 9.56L13.03 11.34L12.23 10.45L13.92 8.72L14.39 7.92L14.53 7.41L14.53 6.89L14.44 6.56L14.44 5.67L14.62 4.97L15.19 4.08L15.75 3.61L16.31 3.33L16.97 3.14L17.81 3.09Z"/></svg>
