<svg xmlns="http://www.w3.org/2000/svg" width="24" height="24" viewBox="0 0 24 24" fill="currentColor" fill-rule="evenodd" aria-hidden="true"><path d="M18.47 17.77L18.52 18.14L18.84 18.28L19.08 18.28L19.31 18.19L19.50 17.91L19.36 17.72L19.12 17.62L18.80 17.62Z M18.70 18.00L18.75 17.86L19.12 17.86L19.22 17.95L19.12 18.05Z M2.34 17.86L2.34 18.05L2.48 18.19L2.77 18.28L3.05 18.23L3.33 18.05L3.28 17.77L3.00 17.62L2.53 17.67Z M2.58 17.95L2.62 17.86L3.05 17.95L2.95 18.05L2.67 18.05Z M14.53 17.67L14.58 18.00L14.77 18.14L15.00 18.19L15.61 18.14L15.84 17.91L15.80 17.62L15.56 17.48L14.77 17.48L14.58 17.58Z M14.81 17.91L14.81 17.72L15.28 17.67L15.61 17.81L15.47 17.95Z M12.00 16.97L12.00 17.16L12.09 17.34L12.05 17.48L12.09 17.72L12.19 17.77L13.41 17.77L13.55 17.58L13.55 17.39L13.73 17.34L13.78 17.25L13.45 17.16L13.31 16.88L12.09 16.88Z M12.23 17.16L13.22 17.16L13.17 17.53L12.28 17.48Z M11.86 16.08L11.95 16.27L12.66 16.27L12.80 16.12L12.70 16.03Z M16.17 15.61L16.08 15.70L16.08 15.89L16.31 16.69L16.59 16.78L16.64 17.06L16.83 16.97L16.78 16.78L17.25 16.73L17.48 17.16L17.62 17.02L17.58 16.73L17.77 16.69L17.86 16.55L17.58 15.66L17.48 15.61Z M16.41 15.84L17.34 15.84L17.48 16.03L17.58 16.41L17.48 16.50L17.16 16.45L16.69 16.50L16.45 16.41L16.36 15.98Z M13.64 15.52L13.64 15.66L13.73 15.80L13.73 16.22L13.83 16.31L14.11 16.36L14.16 16.55L14.30 16.50L14.34 16.31L15.00 16.31L15.14 16.17L15.14 16.03L14.95 15.80L15.05 15.70L15.05 15.56L14.86 15.38L13.78 15.38Z M13.97 15.61L14.77 15.61L14.86 15.70L14.81 16.08L13.97 16.03L13.92 15.80Z M4.97 17.30L5.72 17.39L5.86 17.67L6.33 17.77L6.28 18.05L6.42 18.14L6.52 18.05L6.56 17.72L7.22 17.77L7.27 18.09L7.41 18.05L7.45 17.72L7.88 17.77L7.92 18.09L8.06 18.00L8.11 17.72L8.53 17.77L8.67 18.09L8.77 17.72L9.47 17.77L9.56 18.14L9.66 18.05L9.70 17.72L10.08 17.67L10.27 17.48L10.31 17.34L10.88 17.34L11.02 17.20L10.92 17.11L10.27 17.06L10.31 16.83L10.83 16.83L10.88 16.64L10.22 16.59L10.27 16.45L10.78 16.45L10.88 16.36L10.78 16.27L10.17 16.27L10.22 16.08L10.73 16.03L10.83 15.94L10.73 15.84L10.12 15.80L10.12 15.66L9.98 15.47L9.56 15.38L9.56 15.14L9.38 15.14L9.38 15.33L9.28 15.42L8.81 15.38L8.77 15.14L8.58 15.14L8.58 15.33L8.48 15.42L7.69 15.42L7.64 15.19L7.55 15.09L7.41 15.19L7.41 15.33L7.31 15.42L6.89 15.42L6.80 15.14L6.66 15.14L6.52 15.42L6.14 15.47L5.91 15.84L5.30 15.84L5.34 16.08L5.91 16.08L5.91 16.22L5.81 16.31L5.53 16.27L5.20 16.36L5.25 16.50L5.81 16.50L5.67 16.64L5.11 16.64L5.16 16.83L5.72 16.83L5.72 17.02L5.62 17.11L4.97 17.16Z M5.91 17.39L6.00 17.30L10.03 17.39L9.89 17.53L9.66 17.53L9.61 17.44L9.42 17.44L9.33 17.53L8.86 17.53L8.72 17.44L8.48 17.53L7.50 17.53L7.41 17.44L7.27 17.44L7.17 17.53L6.61 17.53L6.52 17.44L6.05 17.53Z M5.95 16.88L6.28 15.66L9.80 15.66L9.89 15.75L10.03 16.88L9.94 17.06L9.61 17.11L6.05 17.11L5.95 17.02Z M3.52 15.23L3.56 15.47L3.89 15.66L4.27 15.61L4.55 15.38L4.50 15.19L4.27 15.05L3.80 15.05Z M3.84 15.28L4.12 15.23L4.27 15.33L4.17 15.42Z M16.31 15.19L17.16 15.23L17.30 15.05L17.20 15.00L16.69 15.05L16.31 15.14Z M1.08 18.61L1.08 19.88L1.31 20.11L20.48 20.11L20.81 19.83L20.81 18.66L19.88 16.45L19.08 14.44L18.80 14.20L13.59 14.16L13.73 13.73L13.73 11.30L14.02 11.06L13.97 10.88L13.73 10.88L13.64 11.02L13.08 11.06L12.98 10.92L13.88 10.73L14.02 10.55L13.92 10.45L13.41 10.59L13.17 10.55L13.59 10.27L13.88 10.31L14.02 10.12L13.92 10.03L13.55 9.98L13.17 9.80L12.66 9.84L12.66 10.03L13.36 10.08L13.45 10.17L12.66 10.36L12.66 10.50L12.80 10.59L12.94 10.55L13.12 10.64L12.70 10.83L12.61 11.02L12.75 11.20L12.89 11.25L12.94 13.73L13.08 14.11L12.98 14.20L10.83 14.16L10.97 13.69L11.02 11.25L11.25 11.06L11.25 10.97L11.16 10.88L10.97 10.88L10.88 11.02L10.31 11.06L10.17 10.92L11.11 10.73L11.25 10.55L11.06 10.41L10.97 10.41L10.88 10.55L10.59 10.59L10.41 10.55L10.78 10.27L11.11 10.27L11.20 10.17L11.16 10.03L11.06 9.98L10.73 9.98L10.59 9.84L10.31 9.80L9.89 9.84L9.89 10.03L9.98 10.08L10.17 10.03L10.59 10.22L9.89 10.31L9.94 10.55L10.45 10.59L9.84 10.92L9.89 11.16L10.17 11.34L10.12 13.31L10.17 13.78L10.31 14.11L10.22 14.20L8.02 14.11L8.20 13.64L8.20 11.30L8.44 11.06L8.39 10.88L8.16 10.88L8.11 11.02L7.55 11.06L7.41 10.92L7.64 10.92L7.97 10.78L8.30 10.73L8.44 10.59L8.39 10.45L8.20 10.45L8.02 10.59L7.73 10.59L7.69 10.41L7.92 10.36L8.02 10.27L8.34 10.27L8.44 10.12L8.39 10.03L8.06 10.03L7.73 9.84L7.50 9.80L7.08 9.89L7.08 9.98L7.17 10.08L7.83 10.22L7.12 10.31L7.12 10.55L7.41 10.55L7.59 10.64L7.50 10.73L7.12 10.83L7.08 11.11L7.31 11.25L7.36 13.73L7.55 14.11L7.45 14.20L5.25 14.11L5.44 13.50L5.44 11.30L5.67 11.06L5.67 10.97L5.58 10.88L5.44 10.88L5.34 11.02L5.20 11.06L4.78 11.06L4.64 10.92L4.92 10.92L5.20 10.78L5.58 10.73L5.67 10.64L5.62 10.50L5.20 10.55L5.02 10.45L5.20 10.31L5.53 10.27L5.67 10.12L5.58 10.03L5.20 10.03L5.02 9.89L4.69 9.84L4.31 9.89L4.41 10.08L5.06 10.17L4.97 10.27L4.31 10.36L4.31 10.50L4.41 10.59L4.88 10.64L4.78 10.73L4.31 10.88L4.31 11.11L4.59 11.30L4.59 13.73L4.73 14.11L4.64 14.20L2.81 14.20L2.53 14.44Z M1.31 19.73L1.36 19.03L2.16 19.12L3.05 19.08L15.33 19.12L20.44 19.03L20.58 19.08L20.58 19.69L20.39 19.88L1.45 19.88Z M1.36 18.56L2.34 15.84L2.44 15.42L2.58 15.19L2.72 14.67L2.91 14.44L4.88 14.48L4.88 14.58L5.02 14.67L5.20 14.44L7.64 14.48L7.73 14.67L7.88 14.62L7.92 14.48L10.36 14.44L10.55 14.72L10.78 14.44L13.22 14.48L13.27 14.67L13.36 14.67L13.55 14.44L18.66 14.44L18.94 14.67L19.03 15.05L20.53 18.66L20.30 18.84L1.50 18.84L1.36 18.70Z M13.22 11.25L13.50 11.30L13.50 13.69L13.36 14.11L13.27 14.02L13.17 13.69Z M10.41 11.25L10.73 11.30L10.73 13.64L10.64 14.02L10.55 14.11L10.41 13.73L10.36 11.34Z M7.64 11.25L7.97 11.30L7.97 13.64L7.78 14.11L7.69 14.02L7.59 13.64Z M4.88 11.25L5.20 11.30L5.20 13.59L5.02 14.11L4.83 13.69Z M18.75 8.72L18.56 8.77L17.86 9.80L17.86 9.94L17.95 9.98L18.47 10.03L18.19 10.73L18.28 10.92L19.17 9.75L19.08 9.66L18.56 9.61L18.80 8.86Z M3.09 4.31L3.09 6.75L3.19 6.94L3.47 7.17L4.22 7.27L4.22 8.11L4.50 8.25L4.50 9.19L4.31 9.33L4.27 9.47L4.36 9.56L5.20 9.84L5.58 9.84L5.67 9.75L5.62 9.61L5.11 9.56L4.92 9.47L5.44 9.38L5.67 9.23L5.67 9.14L5.53 9.09L5.53 8.16L5.72 8.11L5.81 7.97L5.77 7.55L5.81 7.22L6.94 7.27L6.94 8.02L7.08 8.16L7.27 8.20L7.27 9.19L7.08 9.33L7.12 9.56L8.16 9.84L8.34 9.84L8.44 9.75L8.39 9.61L7.69 9.47L8.34 9.33L8.48 9.19L8.34 9.09L8.34 8.16L8.44 8.16L8.58 8.02L8.62 7.22L9.75 7.27L9.75 8.06L10.03 8.20L10.03 9.23L9.89 9.33L9.84 9.47L9.89 9.56L10.08 9.56L10.97 9.84L11.11 9.84L11.25 9.70L11.20 9.61L10.50 9.47L11.16 9.33L11.20 9.14L11.06 9.05L11.11 8.16L11.20 8.16L11.34 8.02L11.39 7.22L12.52 7.27L12.52 8.06L12.80 8.20L12.80 9.23L12.66 9.33L12.61 9.47L12.70 9.56L13.31 9.70L13.45 9.80L13.88 9.84L13.97 9.61L13.27 9.47L13.78 9.38L14.02 9.23L13.97 9.09L13.83 9.05L13.88 8.16L13.97 8.16L14.11 8.02L14.16 7.22L14.72 7.17L15.09 6.84L15.19 5.58L17.81 5.58L17.95 5.62L18.28 5.91L18.38 6.14L18.38 7.83L18.28 7.92L17.06 7.92L16.88 8.02L16.64 8.44L16.64 11.16L16.88 11.58L17.16 11.72L19.83 11.72L20.16 11.53L20.34 11.20L20.34 8.39L20.25 8.16L19.92 7.92L18.66 7.88L18.66 6.19L18.42 5.67L18.14 5.44L17.86 5.34L15.14 5.30L15.14 4.36L15.05 4.17L14.77 3.94L14.30 3.94L14.25 3.89L3.70 3.89L3.33 3.98Z M17.16 8.16L19.83 8.16L20.02 8.30L20.11 8.44L20.11 11.11L19.92 11.39L19.73 11.48L17.25 11.48L17.11 11.44L16.92 11.25L16.92 8.34Z M13.12 8.16L13.59 8.20L13.59 9.09L13.45 9.23L13.12 9.28Z M10.83 8.20L10.83 9.09L10.73 9.19L10.36 9.28L10.27 9.19L10.27 8.34L10.36 8.16Z M7.55 8.16L8.06 8.20L8.06 9.09L7.97 9.19L7.78 9.23L7.50 9.19Z M4.78 8.16L5.25 8.20L5.25 9.09L5.02 9.23L4.73 9.19Z M12.84 7.22L13.88 7.27L13.88 7.83L13.78 7.92L12.80 7.88Z M10.03 7.22L11.11 7.27L11.11 7.83L11.02 7.92L9.98 7.88Z M7.27 7.22L8.30 7.27L8.30 7.83L8.20 7.92L7.22 7.88Z M4.41 7.27L5.53 7.27L5.53 7.83L5.44 7.92L4.50 7.92L4.41 7.78L4.45 7.31Z M3.33 4.50L3.38 4.31L3.52 4.17L14.67 4.17L14.86 4.31L14.91 4.45L14.91 6.66L14.62 6.94L3.56 6.94L3.38 6.80L3.33 6.61Z"/></svg>
