<svg xmlns="http://www.w3.org/2000/svg" width="24" height="24" viewBox="0 0 24 24" fill="currentColor" fill-rule="evenodd" aria-hidden="true"><path d="M14.86 18.89L15.19 18.98L15.38 18.89L15.47 18.66L15.00 18.61L14.91 18.66Z M8.67 18.80L8.86 18.75L8.95 18.61L8.62 18.61Z M6.98 18.56L6.98 18.75L7.08 18.84L7.41 18.80L7.50 18.56L7.41 18.52Z M13.03 18.70L13.17 18.84L13.73 18.84L13.92 18.75L14.11 18.47L13.97 18.28L13.41 18.28L13.03 18.61Z M13.36 18.56L13.78 18.56L13.69 18.66L13.50 18.66Z M7.69 18.33L8.53 18.38L9.05 17.81L8.95 17.72L8.11 17.72L7.64 18.14Z M8.06 18.14L8.06 18.05L8.25 17.91L8.58 17.95L8.39 18.14L8.25 18.19Z M14.86 17.95L15.05 18.28L15.23 18.09L15.56 18.14L15.61 18.28L16.27 17.62L16.22 17.44L15.33 17.39L14.91 17.81Z M15.23 17.86L15.23 17.77L15.38 17.62L15.89 17.67L15.66 17.91Z M14.81 17.16L14.72 17.11L14.11 17.16L13.92 17.34L13.92 17.48L13.73 17.62L13.73 17.81L13.88 17.86L14.39 17.81L14.86 17.25Z M14.53 17.39L14.34 17.62L14.06 17.53L14.25 17.34Z M9.80 17.11L9.70 17.06L9.52 17.11L9.52 17.34L9.70 17.30Z M16.92 17.06L16.92 17.20L17.16 17.25L17.25 17.16L17.25 17.02Z M13.27 17.44L13.03 17.39L12.94 17.02L12.80 17.02L12.47 17.20L12.52 17.06L12.33 17.02L12.09 17.25L11.95 17.20L12.00 17.06L11.77 17.06L11.67 17.20L11.44 17.16L11.48 17.06L11.25 17.02L11.06 17.20L10.78 17.20L10.55 17.39L10.17 17.39L10.17 17.53L10.31 17.62L10.22 17.72L9.75 17.77L9.75 17.91L9.89 18.00L9.80 18.09L9.61 18.05L9.42 18.09L9.47 18.28L9.75 18.33L9.75 18.47L9.84 18.52L9.75 18.61L9.75 18.75L9.84 18.75L10.08 18.52L10.36 18.56L10.31 18.75L10.45 18.75L10.64 18.52L10.88 18.56L10.88 18.75L10.97 18.75L11.20 18.52L11.44 18.56L11.48 18.80L11.86 18.47L12.05 18.52L12.23 18.33L12.66 18.33L12.75 18.14L12.47 18.05L12.70 17.95L12.89 18.00L13.03 17.81L12.80 17.77L12.84 17.62L13.31 17.58Z M10.17 18.05L10.83 17.44L12.66 17.48L12.05 18.14L10.22 18.14Z M11.58 15.89L11.62 16.08L12.00 16.03L11.95 15.84Z M8.25 3.52L7.73 3.47L7.41 3.66L7.22 3.89L7.17 4.27L7.36 4.31L7.41 4.08L7.59 3.80L7.78 3.70L8.30 3.66Z M11.81 3.56L11.72 3.47L11.44 3.42L10.92 3.66L10.69 3.98L10.73 4.36L10.88 4.36L10.88 4.12L11.11 3.80L11.30 3.70L11.72 3.70Z M7.41 3.14L7.12 3.33L6.89 3.61L6.75 3.89L6.75 4.41L7.88 6.05L7.73 6.42L7.78 7.03L8.62 8.20L8.53 8.44L8.53 9.38L8.58 9.42L8.53 10.69L8.62 10.97L8.81 11.20L9.33 11.39L9.33 12.56L9.56 12.84L9.94 12.94L10.03 13.03L10.03 13.59L9.80 13.83L9.84 14.53L10.03 14.72L10.45 14.86L11.34 15.00L12.80 14.95L13.50 14.81L13.83 14.67L14.06 14.39L14.06 13.92L13.83 13.69L13.88 12.94L14.30 12.80L14.53 12.47L14.53 11.39L14.62 11.30L14.95 11.25L15.19 11.06L16.64 10.83L16.73 10.92L16.69 11.02L16.78 11.39L17.06 11.58L17.11 14.86L17.02 14.95L16.03 14.95L15.84 15.05L15.61 15.33L15.56 15.75L15.47 15.84L13.92 15.84L13.97 16.08L15.56 16.12L15.61 16.41L15.52 16.50L8.58 16.50L8.16 16.69L5.53 18.80L5.39 18.98L5.39 19.22L5.62 19.41L11.44 19.41L15.52 19.50L15.19 19.73L3.84 19.73L3.75 19.69L3.75 19.41L7.78 16.27L8.30 16.08L10.45 16.03L10.45 15.84L10.17 15.89L8.30 15.84L7.92 15.94L7.50 16.17L3.52 19.31L3.38 19.64L3.47 20.81L3.75 21.00L16.17 21.00L17.06 20.67L17.58 20.25L20.25 17.44L20.44 17.06L20.44 15.70L20.30 15.28L19.88 14.95L18.80 14.91L18.80 11.62L19.17 11.25L19.22 10.45L20.02 10.41L20.39 9.98L20.58 9.33L20.53 8.48L20.39 8.06L20.11 7.73L18.80 7.64L18.80 4.50L18.56 4.27L17.30 4.27L17.20 4.31L17.06 4.59L17.11 7.55L17.02 7.64L16.64 7.69L15.42 7.59L15.42 6.38L15.28 6.09L14.86 5.81L14.34 5.77L13.64 5.81L13.50 5.39L13.17 5.11L13.08 4.83L12.66 4.17L12.33 3.47L11.95 3.09L11.67 3.00L11.16 3.05L10.83 3.19L10.50 3.47L10.27 3.89L10.22 4.22L10.27 4.45L10.64 5.06L10.55 5.16L9.84 5.11L9.66 4.92L8.72 3.38L8.48 3.14L8.11 3.00L7.88 3.00Z M5.62 19.12L5.67 18.98L8.48 16.78L8.81 16.73L18.09 16.73L18.19 16.83L16.12 18.89L15.70 19.22Z M20.16 15.52L20.16 17.16L17.16 20.30L16.31 20.72L16.03 20.77L3.84 20.77L3.66 20.62L3.75 19.92L15.14 19.97L15.33 19.92L15.94 19.45L18.28 17.11L18.42 16.88L18.38 16.69L18.14 16.50L15.89 16.50L15.80 16.41L15.80 15.47L15.94 15.28L16.12 15.19L19.78 15.19L19.97 15.28Z M10.03 14.39L10.12 13.88L10.41 14.06L11.58 14.25L12.66 14.20L13.36 14.06L13.64 13.92L13.78 13.97L13.78 14.34L13.64 14.48L13.45 14.58L12.23 14.77L11.02 14.72L10.45 14.62Z M10.31 13.03L11.34 13.17L12.42 13.17L13.36 13.03L13.59 13.08L13.59 13.64L13.36 13.83L12.70 13.97L11.81 14.02L10.78 13.92L10.31 13.73L10.27 13.64Z M17.39 11.62L18.56 11.67L18.56 14.86L18.47 14.95L17.34 14.91Z M9.61 11.39L11.62 11.62L12.94 11.58L13.97 11.39L14.30 11.44L14.30 12.42L14.06 12.66L13.50 12.80L12.38 12.94L11.48 12.94L9.98 12.75L9.70 12.66L9.56 12.47Z M18.75 9.80L19.27 9.84L19.41 10.12L19.31 10.22L18.94 10.22L18.70 9.94Z M14.62 9.80L15.52 9.75L15.66 9.94L15.56 10.03L14.86 10.03Z M18.61 9.14L19.12 9.19L19.17 9.52L19.08 9.61L18.66 9.61L18.56 9.52Z M14.62 9.05L15.52 9.09L15.52 9.42L15.42 9.52L14.58 9.47Z M15.98 8.53L16.17 8.53L16.36 8.72L16.50 9.14L16.45 9.61L16.12 10.03L15.98 10.03L15.75 9.66L15.75 8.91L15.84 8.67Z M14.67 8.77L14.67 8.67L14.91 8.48L15.70 8.53L15.52 8.81Z M19.17 8.48L19.17 8.86L19.03 9.00L18.84 9.05L18.56 8.95L18.61 8.53Z M19.92 7.92L20.11 8.06L20.25 8.34L20.34 9.14L20.25 9.70L20.11 9.98L19.92 10.17L19.78 10.22L19.55 9.98L19.36 9.33L19.36 8.81L19.45 8.30L19.55 8.11L19.73 7.92Z M18.70 8.16L18.94 7.92L19.36 8.02L19.17 8.30L18.70 8.25Z M15.47 7.92L17.11 7.97L17.11 10.45L17.02 10.55L16.22 10.64L15.66 10.78L15.42 10.73L15.47 10.27L16.27 10.22L16.50 9.98L16.69 9.61L16.69 8.91L16.55 8.58L16.22 8.30L15.42 8.25Z M13.27 5.48L13.36 5.67L13.36 5.95L13.17 6.28L12.75 6.66L12.42 6.80L12.09 6.80L11.72 6.47L11.62 6.28L12.28 6.19L12.70 5.95L12.89 5.77L13.12 5.34Z M8.06 6.38L8.30 6.70L8.62 6.94L9.09 6.98L9.70 6.66L10.08 6.23L10.22 5.86L10.17 5.53L10.08 5.44L10.12 5.34L10.73 5.34L11.16 5.81L11.25 6.05L11.11 6.23L11.06 6.75L11.16 6.94L11.30 6.98L11.39 6.89L11.30 6.61L11.30 6.47L11.39 6.33L11.62 6.70L11.95 6.98L12.52 7.03L12.98 6.80L13.50 6.28L13.64 5.95L13.78 6.05L14.81 6.05L14.91 6.09L15.19 6.42L15.19 8.20L15.09 8.30L14.77 8.30L14.48 8.53L14.34 8.86L14.30 9.47L14.39 9.84L14.67 10.22L15.19 10.31L15.14 10.78L14.77 11.06L12.70 11.34L10.64 11.30L9.05 11.06L8.81 10.78L8.86 8.34L9.09 8.44L11.81 8.62L12.00 8.53L12.23 8.25L12.05 7.64L12.19 7.55L12.66 7.50L13.12 7.27L13.45 6.98L13.64 6.70L13.55 6.66L13.17 6.98L12.66 7.27L11.95 7.41L11.86 7.50L11.86 7.92L11.95 8.20L11.72 8.39L8.91 8.16L7.97 6.89Z M9.66 5.30L9.94 5.62L9.94 5.95L9.70 6.33L9.42 6.56L8.95 6.75L8.58 6.66L8.25 6.23L8.62 6.19L9.00 6.05L9.38 5.72Z M17.44 4.45L18.42 4.45L18.56 4.59L18.61 7.92L18.42 8.20L18.28 9.09L18.42 9.89L18.56 10.17L18.94 10.50L18.94 11.16L18.75 11.34L17.39 11.39L17.11 11.34L16.92 11.16L16.97 10.78L17.20 10.73L17.34 10.55L17.30 7.92L17.34 4.55Z M12.33 4.03L12.75 4.73L12.89 5.30L12.80 5.48L12.42 5.86L12.14 6.00L11.72 6.05L11.39 5.95L11.16 5.72L11.16 5.48L10.88 4.88L11.34 4.88L11.77 4.69L12.19 4.27Z M8.86 4.03L9.47 5.02L9.42 5.20L9.23 5.53L8.77 5.91L8.44 6.00L8.11 5.95L7.36 4.92L7.73 4.88L8.25 4.64L8.58 4.31L8.72 4.03Z M11.86 3.33L12.09 3.56L12.09 3.94L12.00 4.12L11.62 4.50L11.34 4.64L10.92 4.69L10.69 4.59L10.55 4.45L10.50 3.94L10.78 3.52L11.20 3.28Z M8.58 3.61L8.53 3.98L7.97 4.55L7.73 4.64L7.36 4.64L7.22 4.59L6.98 4.31L7.03 3.84L7.41 3.42L7.69 3.28L8.02 3.23L8.34 3.33Z"/></svg>
