<svg xmlns="http://www.w3.org/2000/svg" width="24" height="24" viewBox="0 0 24 24" fill="currentColor" fill-rule="evenodd" aria-hidden="true"><path d="M12.94 20.77L12.80 20.91L12.84 21.28L12.98 21.47L13.22 21.56L13.27 21.38L13.08 21.28L12.98 21.09L13.03 20.86Z M7.92 10.78L7.69 10.97L7.55 11.30L7.59 11.77L7.88 12.09L8.25 12.23L8.53 12.19L8.77 12.05L9.00 11.77L9.05 11.25L8.95 11.06L8.53 10.73Z M8.16 11.06L8.44 11.06L8.72 11.34L8.72 11.58L8.44 11.86L8.30 11.91L8.06 11.81L7.88 11.58L7.92 11.25Z M9.98 5.06L9.52 5.20L8.81 5.62L8.44 6.00L8.06 6.61L7.83 7.50L7.78 9.75L7.64 9.80L3.33 9.84L3.33 9.98L3.47 10.12L6.42 10.17L6.42 12.33L6.33 12.42L3.42 12.42L3.33 12.52L3.33 12.66L3.42 12.75L6.42 12.75L6.66 13.03L6.84 13.12L9.70 13.17L9.70 14.95L9.80 15.23L9.98 15.47L10.22 15.61L10.59 15.70L11.20 15.70L11.25 16.59L11.48 16.88L11.86 16.97L11.91 17.72L12.09 17.91L12.47 18.05L12.52 18.66L12.70 18.84L13.17 18.98L13.17 19.22L12.33 20.67L12.28 21.23L12.38 21.52L12.56 21.80L12.89 22.03L13.27 22.12L13.59 22.08L13.88 21.94L14.20 21.61L14.34 21.28L14.34 20.81L14.20 20.44L13.45 19.22L13.50 18.94L13.83 18.89L14.06 18.70L14.16 18.52L14.20 18.00L14.48 17.91L14.72 17.67L14.81 16.92L15.09 16.88L15.38 16.55L15.47 15.70L15.94 15.70L16.31 15.61L16.73 15.23L16.88 14.81L16.83 9.70L16.69 9.42L16.50 9.23L16.08 9.05L14.58 9.00L14.53 8.16L14.30 7.97L13.69 7.92L13.69 7.22L13.50 6.47L13.22 6.00L12.70 5.48L12.09 5.16L11.53 5.02Z M13.31 19.64L13.88 20.48L14.06 20.91L14.06 21.19L13.92 21.47L13.73 21.66L13.45 21.80L13.17 21.80L12.94 21.70L12.61 21.28L12.61 20.77Z M12.84 18.00L13.83 18.05L13.83 18.42L13.59 18.61L13.03 18.61L12.84 18.52L12.80 18.42Z M12.23 16.92L14.44 16.97L14.44 17.44L14.30 17.62L12.33 17.62L12.19 17.48Z M11.62 15.70L15.09 15.75L15.05 16.41L14.86 16.59L11.72 16.59L11.58 16.45Z M10.12 14.11L16.50 14.16L16.50 14.91L16.08 15.33L10.45 15.33L10.27 15.23L10.08 15.00Z M6.84 10.12L9.70 10.17L9.70 12.70L9.61 12.80L6.98 12.80L6.80 12.66Z M10.08 9.70L10.22 9.52L10.41 9.42L16.12 9.42L16.45 9.70L16.50 9.84L16.50 13.69L16.41 13.78L10.08 13.73Z M12.23 8.34L14.25 8.39L14.25 8.95L14.16 9.05L12.19 9.00Z M11.95 6.42L12.38 6.89L12.47 7.17L12.47 7.88L12.38 7.97L12.14 7.97L11.91 8.11L11.86 8.95L11.77 9.05L10.27 9.09L9.84 9.42L9.66 9.75L9.28 9.80L9.05 9.70L9.05 7.41L9.38 6.75L9.75 6.42L10.22 6.23L11.58 6.23Z M12.98 6.28L13.31 7.03L13.31 7.88L13.22 7.97L12.84 7.92L12.80 7.03L12.52 6.47L12.23 6.19L11.81 5.95L11.48 5.86L10.31 5.86L9.80 6.00L9.33 6.28L8.91 6.80L8.72 7.31L8.62 9.75L8.44 9.80L8.20 9.75L8.20 7.36L8.48 6.56L8.67 6.28L9.09 5.86L9.66 5.53L10.12 5.39L11.62 5.39L12.09 5.53L12.42 5.72Z"/></svg>
