<svg xmlns="http://www.w3.org/2000/svg" width="24" height="24" viewBox="0 0 24 24" fill="currentColor" fill-rule="evenodd" aria-hidden="true"><path d="M19.45 16.88L19.36 16.78L19.17 16.78L17.67 18.23L17.06 17.62L16.83 17.67L16.83 17.86L17.67 18.70L17.77 18.70L19.22 17.20Z M12.75 14.86L12.75 15.05L12.84 15.14L14.48 15.14L14.62 14.95L14.48 14.81L12.84 14.81Z M12.75 13.73L12.75 13.92L12.84 14.02L15.89 14.02L16.08 13.83L15.94 13.69Z M16.08 12.75L16.03 12.56L15.89 12.52L12.75 12.61L12.80 12.84L12.89 12.89L15.89 12.89Z M11.11 12.56L11.02 12.47L10.78 12.52L10.78 15.47L10.69 15.56L10.27 15.61L10.17 15.52L10.17 13.64L10.12 13.55L9.84 13.55L9.84 15.47L9.75 15.56L9.14 15.52L9.14 13.12L9.05 13.03L8.86 13.03L8.81 13.12L8.81 15.47L8.72 15.56L8.34 15.61L8.25 15.52L8.25 14.34L8.16 14.25L7.92 14.30L7.92 15.47L7.83 15.56L7.59 15.61L7.59 15.84L7.69 15.89L11.34 15.89L11.44 15.84L11.44 15.61L11.34 15.56L11.20 15.61L11.11 15.52Z M4.41 5.34L4.12 5.86L4.08 6.09L4.12 6.80L4.36 7.27L4.64 7.55L4.92 7.69L4.92 7.83L4.73 7.83L4.08 8.11L3.42 8.77L3.14 9.47L3.14 10.64L3.28 10.78L4.88 10.83L4.88 18.61L5.02 18.89L5.20 19.08L5.44 19.22L10.45 19.27L10.41 20.34L10.22 20.48L9.33 20.44L8.81 20.53L8.67 20.72L8.67 21.33L8.77 21.42L14.91 21.42L15.05 21.28L15.05 20.72L14.81 20.48L13.45 20.48L13.36 20.39L13.31 19.55L13.36 19.22L15.70 19.22L16.12 19.78L16.64 20.25L17.30 20.72L18.05 21.09L18.42 20.95L19.41 20.34L20.16 19.64L20.53 19.12L20.72 18.75L20.86 18.23L20.91 16.03L20.86 15.84L20.91 15.66L20.67 15.42L20.39 15.42L19.69 15.23L18.98 14.95L18.89 14.81L18.94 10.78L20.34 10.78L20.53 10.59L20.53 9.47L20.44 9.14L20.06 8.53L19.55 8.11L19.17 7.92L18.89 7.88L18.75 7.69L18.89 7.64L19.41 7.12L19.59 6.70L19.59 6.00L19.50 5.72L19.03 5.16L18.42 4.88L17.81 4.88L17.25 5.11L16.92 5.44L16.73 5.77L16.64 6.09L16.64 6.66L16.92 7.27L17.25 7.59L17.58 7.78L17.02 7.92L16.50 8.20L15.98 8.77L15.75 9.38L15.75 9.61L15.61 9.75L8.02 9.75L7.92 9.66L7.83 9.09L7.36 8.39L6.94 8.06L6.66 7.92L6.38 7.88L6.23 7.69L6.38 7.64L6.80 7.22L7.03 6.75L7.08 6.09L6.94 5.67L6.75 5.39L6.38 5.06L5.91 4.88L5.02 4.92Z M8.95 21.05L9.05 20.77L14.67 20.77L14.77 20.86L14.77 21.00L14.62 21.14L9.05 21.14Z M10.83 19.22L12.98 19.27L13.08 20.34L12.98 20.44L10.78 20.48L10.69 20.39Z M17.95 14.91L18.19 14.91L19.45 15.52L20.34 15.70L20.53 15.80L20.53 18.28L20.44 18.61L20.06 19.22L19.55 19.78L18.89 20.30L18.19 20.72L18.00 20.72L17.62 20.53L16.69 19.88L16.27 19.45L15.89 18.94L15.66 18.23L15.70 15.75L16.59 15.56L17.20 15.33Z M6.23 11.02L17.53 11.02L17.62 11.11L17.62 14.67L17.44 14.86L16.55 15.23L15.80 15.42L15.52 15.42L15.33 15.52L15.33 17.20L15.23 17.30L6.19 17.25Z M18.52 10.31L18.61 10.50L18.61 14.62L18.47 14.72L18.19 14.53L18.00 14.58L17.95 10.88L17.77 10.69L6.00 10.69L5.91 10.73L5.86 10.83L5.91 17.58L6.00 17.62L15.33 17.67L15.33 18.33L15.52 18.80L15.42 18.89L13.73 18.94L5.62 18.94L5.25 18.66L5.20 18.52L5.20 10.41L5.39 10.12L5.48 10.08L13.59 10.03L18.23 10.08Z M16.03 9.61L16.12 9.23L16.36 8.81L16.73 8.44L16.97 8.30L17.58 8.11L18.61 8.11L19.31 8.34L19.64 8.58L19.97 8.95L20.16 9.33L20.25 10.31L20.11 10.45L18.89 10.41L18.75 10.08L18.52 9.84L18.28 9.75L17.39 9.70L16.12 9.75Z M3.47 10.41L3.47 9.52L3.80 8.81L4.27 8.39L5.02 8.11L6.05 8.11L6.84 8.39L7.41 8.95L7.59 9.42L7.59 9.66L7.50 9.75L5.44 9.75L5.30 9.80L5.06 9.98L4.92 10.31L4.78 10.45Z M17.81 5.20L18.38 5.20L18.80 5.39L19.08 5.67L19.27 6.09L19.27 6.61L19.12 6.94L18.80 7.31L18.42 7.50L18.05 7.55L17.58 7.41L17.20 7.08L17.02 6.70L16.97 6.23L17.11 5.77L17.44 5.39Z M5.30 5.20L5.86 5.20L6.19 5.34L6.56 5.72L6.75 6.09L6.75 6.56L6.56 6.98L6.19 7.36L5.67 7.55L5.25 7.50L4.88 7.31L4.59 6.98L4.41 6.52L4.41 6.14L4.59 5.67L4.88 5.39Z M9.98 1.78L9.94 2.48L10.03 2.86L10.22 3.23L10.64 3.70L11.30 4.08L11.20 4.17L10.88 4.17L10.69 4.27L10.50 4.27L9.84 4.55L9.52 4.78L8.95 5.39L8.72 5.86L8.58 6.38L8.58 7.69L8.86 7.83L14.91 7.83L15.14 7.64L15.14 6.47L14.95 5.81L14.67 5.34L13.97 4.64L13.22 4.27L13.03 4.27L12.38 4.03L13.03 3.70L13.55 3.09L13.73 2.67L13.78 2.39L13.73 1.78L13.41 1.78L13.45 2.39L13.36 2.72L13.08 3.19L12.56 3.61L12.05 3.80L11.62 3.80L11.30 3.70L10.83 3.42L10.50 3.05L10.31 2.62L10.27 2.39L10.31 1.78Z M8.86 6.61L9.05 5.95L9.33 5.48L9.70 5.06L10.12 4.78L10.69 4.55L11.16 4.45L12.52 4.45L13.27 4.64L14.02 5.11L14.44 5.58L14.77 6.28L14.81 7.36L14.72 7.45L9.61 7.50L8.86 7.41L8.91 7.22Z"/></svg>
