<svg xmlns="http://www.w3.org/2000/svg" width="24" height="24" viewBox="0 0 24 24" fill="currentColor" fill-rule="evenodd" aria-hidden="true"><path d="M12.61 17.77L12.61 17.91L12.70 18.00L13.41 18.00L13.50 17.91L13.45 17.72Z M6.23 17.44L6.09 17.62L6.09 17.86L6.23 18.05L6.56 18.09L6.80 17.86L6.80 17.62L6.70 17.48L6.52 17.39Z M6.33 17.77L6.38 17.67L6.56 17.77L6.42 17.86Z M7.97 17.25L7.92 18.09L8.06 18.23L9.70 18.23L9.89 18.05L9.89 17.34L9.75 17.20L8.06 17.20Z M8.20 17.95L8.30 17.44L9.56 17.44L9.66 17.53L9.66 17.86L9.52 18.00Z M16.59 16.97L16.36 17.06L16.17 17.25L16.08 17.67L16.17 17.95L16.36 18.14L16.55 18.23L16.83 18.23L16.97 18.19L17.30 17.86L17.39 17.58L17.30 17.30L17.06 17.06L16.83 16.97Z M16.55 17.25L16.88 17.25L17.06 17.44L17.11 17.58L17.02 17.81L16.73 18.00L16.50 17.91L16.36 17.67L16.36 17.48Z M4.31 16.83L4.08 16.92L3.94 17.06L3.84 17.25L3.84 17.67L4.12 18.00L4.31 18.09L4.59 18.09L5.02 17.77L5.11 17.39L5.06 17.20L4.83 16.92L4.59 16.83Z M4.27 17.11L4.59 17.11L4.73 17.20L4.83 17.39L4.78 17.62L4.50 17.86L4.31 17.81L4.12 17.62L4.08 17.48L4.12 17.25Z M4.22 15.14L4.31 15.23L4.69 15.23L4.83 15.05L4.73 14.95L4.22 15.00Z M13.03 14.53L13.03 14.67L13.12 14.77L13.45 14.77L13.55 14.67L13.50 14.53L13.17 14.48Z M11.72 14.39L11.67 14.72L11.77 14.91L12.14 14.95L12.33 14.72L12.28 14.44L12.05 14.30Z M4.22 13.83L4.31 13.92L4.69 13.92L4.83 13.73L4.73 13.64L4.22 13.69Z M7.03 11.81L7.03 12.19L6.94 12.28L6.66 12.33L6.56 12.42L6.56 12.66L6.47 12.75L6.05 12.80L6.05 12.94L6.14 13.03L6.56 13.08L6.56 13.22L6.47 13.31L6.05 13.36L6.09 13.55L6.56 13.64L6.56 13.78L6.47 13.88L6.05 13.92L6.09 14.11L6.19 14.16L6.42 14.11L6.56 14.16L6.56 14.34L6.47 14.44L6.05 14.48L6.09 14.67L6.56 14.72L6.56 14.86L6.47 14.95L6.05 15.00L6.05 15.14L6.14 15.23L6.56 15.28L6.56 15.52L6.75 15.70L7.03 15.75L7.08 16.27L7.27 16.17L7.31 15.70L7.55 15.75L7.55 16.17L7.69 16.27L7.83 16.12L7.88 15.70L8.11 15.75L8.11 16.17L8.25 16.27L8.39 16.08L8.44 15.70L8.67 15.75L8.67 16.22L8.77 16.27L8.91 16.12L8.95 15.70L9.14 15.70L9.23 15.80L9.19 16.12L9.33 16.27L9.47 16.12L9.52 15.70L9.70 15.70L9.89 15.52L9.94 15.23L10.31 15.23L10.45 15.05L10.36 14.95L9.94 14.91L9.98 14.67L10.31 14.67L10.41 14.58L10.36 14.44L9.94 14.39L9.98 14.16L10.36 14.11L10.36 13.88L9.94 13.83L9.98 13.59L10.36 13.55L10.41 13.36L9.94 13.27L9.98 13.03L10.31 13.03L10.41 12.94L10.41 12.80L10.31 12.75L9.98 12.80L9.89 12.42L9.70 12.28L9.47 12.23L9.47 11.86L9.38 11.77L9.23 11.77L9.19 12.19L9.09 12.28L8.91 12.23L8.86 11.77L8.67 11.77L8.67 12.19L8.58 12.28L8.39 12.23L8.39 11.86L8.30 11.77L8.11 11.81L8.11 12.19L8.02 12.28L7.83 12.23L7.78 11.77L7.59 11.77L7.50 12.28L7.27 12.23L7.22 11.77Z M6.89 12.56L9.66 12.61L9.66 15.33L9.56 15.42L7.17 15.47L6.80 15.38Z M11.58 11.16L11.53 12.38L11.62 12.47L11.72 12.47L11.86 12.61L11.95 12.61L12.09 12.47L12.33 12.47L12.42 12.61L12.56 12.61L12.94 12.33L12.98 12.23L12.98 11.30L12.80 11.11L11.67 11.11Z M11.86 11.34L12.70 11.44L12.70 12.14L12.61 12.23L11.77 12.19Z M4.31 10.92L4.08 11.02L3.94 11.16L3.84 11.34L3.84 11.72L3.98 12.00L4.17 12.14L4.59 12.19L5.02 11.86L5.11 11.53L5.06 11.30L4.83 11.02L4.64 10.92Z M4.36 11.16L4.69 11.25L4.83 11.48L4.83 11.62L4.73 11.77L4.45 11.95L4.31 11.91L4.08 11.62L4.12 11.34Z M20.06 6.84L19.88 6.89L19.69 7.22L19.59 7.50L18.23 9.89L18.23 10.12L18.38 10.17L18.52 10.03L20.16 6.94Z M19.55 6.00L19.45 5.95L19.27 6.09L17.44 9.42L17.53 9.61L17.62 9.61L17.77 9.47L18.84 7.41L19.59 6.09Z M20.72 5.53L20.30 5.16L19.88 5.02L19.36 5.06L18.94 5.30L18.70 5.53L16.45 9.70L16.45 9.84L16.36 9.94L3.94 9.94L3.47 10.12L3.23 10.36L3.05 10.83L3.05 18.09L3.09 18.38L3.28 18.70L3.61 18.98L3.89 19.08L17.34 19.08L17.72 18.94L18.14 18.47L18.23 18.09L18.23 13.41L18.14 13.31L17.95 13.36L17.95 18.14L17.81 18.47L17.48 18.75L17.34 18.80L3.89 18.80L3.75 18.75L3.42 18.42L3.33 18.09L3.38 17.58L3.33 10.88L3.52 10.45L3.94 10.22L16.45 10.27L16.50 10.55L16.31 10.88L16.17 10.97L15.94 10.83L15.70 10.83L15.47 11.02L15.28 11.34L15.23 11.53L15.28 11.72L15.89 12.14L15.94 12.28L14.67 14.62L14.39 14.91L14.02 15.14L13.64 16.22L13.59 16.59L13.50 16.69L12.61 16.73L12.61 16.92L12.70 16.97L13.97 16.97L14.16 17.11L14.30 17.11L15.38 15.89L15.42 15.19L16.69 12.89L16.88 12.75L17.39 13.08L17.67 13.08L17.86 12.94L18.09 12.56L18.14 12.23L17.72 11.81L18.00 11.39L18.33 11.34L18.70 11.06L20.86 7.03L20.95 6.61L20.95 6.14L20.86 5.77Z M16.27 12.38L16.55 12.61L15.14 15.14L15.14 15.75L14.25 16.78L14.16 16.78L13.92 16.64L13.88 16.45L14.20 15.42L14.30 15.28L14.86 14.86L16.12 12.47Z M15.56 11.39L15.80 11.11L15.89 11.11L17.81 12.28L17.86 12.42L17.58 12.80L17.48 12.80L15.75 11.77L15.56 11.58Z M20.02 5.34L20.20 5.44L20.53 5.77L20.62 5.95L20.67 6.66L20.58 6.98L18.47 10.88L18.28 11.06L17.86 11.16L17.53 11.62L17.39 11.72L16.55 11.20L16.50 11.06L16.78 10.59L16.69 9.84L18.89 5.77L19.31 5.39L19.64 5.30Z M10.97 4.31L10.08 5.20L10.03 5.34L11.11 6.42L11.25 6.28L11.25 6.19L10.55 5.48L10.64 5.44L12.56 5.48L12.80 5.58L13.08 5.81L13.27 6.28L13.17 6.80L12.75 7.27L12.28 7.41L11.30 7.36L11.20 7.41L11.20 7.59L11.30 7.69L12.42 7.69L12.94 7.50L13.36 7.08L13.50 6.80L13.55 6.23L13.45 5.86L12.98 5.34L12.66 5.20L10.64 5.06L11.25 4.45L11.16 4.27Z M8.72 3.52L8.58 3.89L8.58 7.92L8.77 8.39L9.00 8.62L9.38 8.81L14.16 8.81L14.48 8.67L14.86 8.30L15.00 7.97L15.00 7.27L15.05 7.22L15.05 4.08L15.00 3.84L14.67 3.33L14.16 3.05L9.42 3.05L9.00 3.23Z M9.05 3.56L9.47 3.33L14.06 3.33L14.34 3.42L14.62 3.70L14.72 3.94L14.72 7.88L14.53 8.25L14.11 8.53L13.31 8.58L10.64 8.58L9.47 8.53L9.23 8.44L8.95 8.16L8.86 7.92L8.86 3.94Z"/></svg>
