<svg xmlns="http://www.w3.org/2000/svg" width="24" height="24" viewBox="0 0 24 24" fill="currentColor" fill-rule="evenodd" aria-hidden="true"><path d="M16.08 16.97L16.12 17.20L17.34 17.25L17.62 17.20L17.77 17.06L17.67 16.88L16.12 16.88Z M16.08 16.17L16.12 16.45L19.12 16.45L19.22 16.36L19.22 16.17L19.12 16.08L16.17 16.08Z M15.09 15.70L14.81 15.66L14.20 16.45L13.83 16.78L13.36 16.36L13.08 16.45L13.08 16.69L13.78 17.39L14.25 17.25L14.53 16.69L15.14 15.98Z M16.08 14.25L16.17 14.34L17.62 14.34L17.86 14.11L17.81 14.02L16.08 14.02Z M16.08 13.41L16.12 13.50L19.12 13.55L19.22 13.45L19.22 13.22L17.58 13.12L16.50 13.17L16.22 13.12L16.12 13.17Z M15.14 12.75L15.05 12.70L14.86 12.75L14.44 13.17L14.34 13.36L14.02 13.69L13.83 13.78L13.41 13.41L13.17 13.41L13.08 13.50L13.08 13.83L13.45 14.20L13.55 14.44L13.73 14.53L13.97 14.44L14.25 14.48L14.53 14.25L14.53 13.73L15.19 13.03Z M7.12 11.34L6.80 11.53L6.47 11.86L6.28 12.19L6.14 12.56L6.19 13.41L6.47 13.92L6.94 14.34L7.41 14.53L8.11 14.53L8.58 14.34L9.19 13.73L9.42 13.12L9.38 12.38L9.05 11.81L8.44 11.39L7.88 11.25Z M7.45 11.72L8.06 11.72L8.30 11.81L8.72 12.14L8.95 12.56L9.00 12.84L8.95 13.17L8.81 13.50L8.34 13.97L8.02 14.11L7.55 14.11L7.03 13.88L6.75 13.59L6.56 13.12L6.56 12.56L6.70 12.23L7.03 11.91Z M16.08 11.06L16.12 11.39L16.22 11.44L17.06 11.39L17.58 11.44L17.77 11.30L17.72 11.02Z M16.08 10.27L16.12 10.64L16.22 10.69L17.77 10.64L19.03 10.69L19.27 10.50L19.27 10.36L19.12 10.22L16.59 10.27L16.17 10.22Z M15.14 9.94L14.86 9.89L14.25 10.59L13.83 10.97L13.36 10.50L13.12 10.55L13.08 10.78L13.73 11.58L14.30 11.53L14.44 11.39L14.44 11.06L15.19 10.12Z M7.12 8.81L6.89 8.91L6.80 9.05L6.80 9.75L6.66 9.89L6.23 9.98L5.77 9.61L5.48 9.52L5.20 9.70L4.55 10.36L4.45 10.55L4.45 10.73L4.88 11.34L4.88 11.58L4.73 11.81L4.55 11.95L3.80 12.00L3.66 12.42L3.66 13.41L3.75 13.73L3.89 13.88L4.59 13.92L4.88 14.20L4.92 14.34L4.50 14.91L4.41 15.23L5.25 16.12L5.44 16.27L5.67 16.27L6.19 15.89L6.47 15.84L6.70 15.98L6.80 16.12L6.80 16.73L6.94 16.92L7.22 17.02L8.25 17.02L8.53 16.92L8.67 16.78L8.77 16.59L8.72 16.08L8.86 15.94L9.05 15.84L9.28 15.84L9.80 16.27L9.98 16.27L10.27 16.08L10.88 15.42L10.97 15.14L10.59 14.48L10.59 14.25L10.83 13.78L10.78 13.55L10.45 13.59L10.08 14.30L10.08 14.48L10.55 15.19L9.94 15.80L9.84 15.80L9.38 15.42L9.09 15.38L8.44 15.66L8.34 15.80L8.30 16.31L8.34 16.41L8.16 16.59L7.31 16.59L7.17 16.41L7.17 15.80L6.70 15.47L6.28 15.38L5.86 15.61L5.67 15.80L5.53 15.80L5.02 15.33L4.92 15.09L5.34 14.53L5.39 14.25L4.97 13.55L4.31 13.50L4.08 13.27L4.08 12.47L4.17 12.38L4.88 12.33L5.16 12.00L5.20 11.77L5.39 11.44L5.34 11.25L4.92 10.73L4.92 10.59L5.20 10.27L5.53 10.03L5.72 10.08L6.28 10.50L6.94 10.27L7.17 10.03L7.17 9.66L7.27 9.28L7.36 9.23L7.97 9.28L8.11 9.23L8.30 9.33L8.34 9.89L8.44 10.17L9.09 10.50L9.33 10.50L9.84 10.12L10.03 10.12L10.55 10.64L10.55 10.73L10.12 11.30L10.08 11.48L10.41 12.19L10.55 12.33L10.69 12.33L10.78 12.23L10.83 12.09L10.64 11.58L10.64 11.30L10.92 10.78L10.92 10.55L10.78 10.22L10.59 9.98L10.12 9.61L9.84 9.56L9.28 10.03L9.14 10.03L8.77 9.80L8.77 9.23L8.62 8.91L8.39 8.81Z M18.66 6.80L18.42 6.70L17.95 6.75L17.91 6.70L12.05 6.75L11.62 6.94L11.44 7.17L11.30 7.55L11.30 17.86L11.34 18.89L11.48 19.17L11.86 19.50L12.19 19.59L20.25 19.59L20.53 19.50L20.95 19.12L21.14 18.61L21.14 10.41L21.09 9.84L21.14 9.47L20.95 9.09Z M18.84 7.59L19.64 8.34L20.20 9.09L18.98 9.09L18.89 9.05L18.80 8.86Z M12.14 7.12L12.38 7.17L18.28 7.12L18.38 7.22L18.38 9.14L18.52 9.33L18.89 9.56L20.44 9.52L20.62 9.56L20.67 18.75L20.30 19.17L12.09 19.17L11.77 18.84L11.77 7.45Z"/></svg>
