<svg xmlns="http://www.w3.org/2000/svg" width="24" height="24" viewBox="0 0 24 24" fill="currentColor" fill-rule="evenodd" aria-hidden="true"><path d="M5.48 17.58L5.48 18.00L5.62 18.14L10.59 18.19L13.41 18.14L13.69 17.86L13.59 17.53L13.41 17.44L13.17 17.44L12.89 17.62L12.56 17.62L12.38 17.53L7.69 17.58L6.19 17.53L5.95 17.44L5.72 17.44Z M18.56 16.69L18.05 16.64L17.81 16.78L17.44 16.88L16.69 16.83L16.50 16.88L16.41 16.97L16.41 18.14L16.50 18.33L16.83 18.42L17.53 18.38L18.66 18.42L18.80 18.28L18.84 18.09L18.75 17.77L18.52 17.77L18.28 17.91L17.02 17.91L16.88 17.77L16.92 17.30L17.58 17.39L18.05 17.11L18.23 17.11L18.56 17.48L18.70 17.48L18.84 17.34L18.84 17.11Z M8.77 16.41L8.77 16.64L8.86 16.73L9.09 16.78L12.42 16.83L12.61 16.69L12.89 16.69L13.03 16.88L13.36 16.92L13.50 16.88L13.69 16.64L13.64 16.41L13.36 16.22L12.09 16.27L10.03 16.22L9.05 16.27Z M5.58 16.45L5.62 16.78L6.00 17.16L6.23 17.16L6.33 17.06L6.33 16.69L6.56 16.69L6.70 16.83L6.70 17.06L6.94 17.25L7.22 17.25L7.50 17.11L7.64 16.88L7.64 16.50L7.36 16.22L5.81 16.22Z M4.03 14.91L3.98 18.80L4.12 19.12L4.41 19.41L4.78 19.55L14.02 19.55L14.16 19.45L14.48 19.50L14.77 19.41L19.22 19.45L19.59 19.22L19.88 18.94L20.02 18.61L20.02 16.08L19.83 15.70L19.41 15.38L15.56 15.33L15.33 15.42L15.14 15.28L15.05 14.91L14.91 14.77L14.72 14.77L14.58 14.86L13.64 14.77L4.78 14.77L4.45 14.91Z M15.28 16.08L15.47 16.17L15.42 18.66L15.33 18.75L15.23 18.66Z M16.08 15.94L19.22 15.94L19.31 15.98L19.41 16.17L19.36 18.28L19.41 18.56L19.36 18.70L19.08 18.89L16.17 18.94L16.08 18.89L15.98 18.75L15.98 16.12Z M4.64 15.38L14.53 15.33L14.67 15.61L14.62 18.75L14.20 19.22L13.97 18.98L13.78 18.94L9.00 18.98L4.78 18.94L4.59 18.75Z M18.94 11.95L18.75 11.77L18.14 11.77L17.86 12.00L17.77 12.00L17.53 11.81L16.69 11.86L16.41 12.05L16.36 12.23L16.41 13.03L16.64 13.31L16.78 13.36L17.62 13.31L18.61 13.41L18.84 13.22L18.84 12.98L18.70 12.80L16.92 12.80L16.83 12.66L16.83 12.38L16.92 12.28L17.39 12.28L17.62 12.52L17.81 12.52L17.95 12.28L18.09 12.23L18.23 12.33L18.66 12.33L18.89 12.19Z M6.80 11.58L6.70 11.67L6.75 12.14L7.17 12.47L7.41 12.42L7.78 12.05L7.78 11.67L7.59 11.53L7.03 11.48Z M5.62 11.58L5.53 11.81L5.62 12.28L5.86 12.47L6.23 12.42L6.38 12.23L6.23 12.05L6.28 11.86L6.56 11.72L6.52 11.53L5.86 11.48Z M13.69 11.81L13.64 11.67L13.31 11.44L12.70 11.44L11.91 11.58L8.86 11.58L8.67 11.72L8.67 12.00L9.28 12.14L11.34 12.09L11.77 12.00L12.19 12.23L12.42 12.23L12.70 12.00L12.84 12.00L13.03 12.28L13.41 12.28L13.59 12.14Z M4.03 9.89L3.98 13.92L4.03 14.16L4.27 14.48L4.59 14.48L4.83 14.20L4.69 14.02L4.55 13.41L4.64 13.31L5.30 13.36L5.67 13.50L12.98 13.50L13.64 13.45L14.02 13.17L14.02 13.03L13.92 12.94L13.45 12.89L8.30 12.94L5.53 12.89L4.73 12.98L4.59 12.80L4.64 10.41L4.78 10.36L5.39 10.45L14.58 10.41L14.67 10.50L14.62 13.59L14.58 13.73L14.25 13.97L14.20 14.06L14.25 14.34L14.44 14.44L15.66 14.39L19.27 14.44L19.50 14.34L19.88 13.97L20.02 13.69L20.02 11.16L19.88 10.83L19.55 10.50L19.27 10.36L15.98 10.41L15.80 10.22L15.66 10.17L15.56 10.22L15.52 10.41L15.28 10.59L15.19 10.50L15.14 10.08L15.00 9.94L14.30 9.84L13.36 9.89L4.59 9.84L4.36 9.70L4.17 9.70Z M15.38 11.06L15.47 11.20L15.42 12.42L15.47 13.73L15.23 13.83L15.19 13.64L15.28 11.06Z M16.03 11.02L19.22 10.97L19.41 11.25L19.36 13.69L19.17 13.88L16.17 13.92L16.08 13.88L15.98 13.73Z M4.88 7.97L4.88 8.20L4.97 8.30L5.20 8.30L5.62 8.44L12.42 8.48L13.69 8.44L13.92 8.25L13.92 8.06L13.59 7.88L7.41 7.88L5.77 7.78Z M18.75 6.98L18.38 6.80L18.00 6.84L17.39 7.12L17.20 7.12L17.02 7.03L16.59 7.03L16.41 7.12L16.36 8.30L16.45 8.53L16.69 8.62L18.66 8.62L18.84 8.39L18.84 8.20L18.70 7.97L18.33 7.97L18.14 8.06L17.39 8.06L16.88 7.97L16.83 7.69L16.92 7.59L17.62 7.69L18.09 7.36L18.19 7.36L18.42 7.59L18.66 7.59L18.80 7.41Z M8.67 6.33L8.67 6.56L8.95 6.75L12.42 6.80L12.56 6.70L12.94 6.66L13.12 6.80L12.94 6.98L12.47 6.98L12.47 7.17L12.61 7.36L13.41 7.50L13.59 7.22L13.55 6.94L13.59 6.33L13.41 6.14L9.94 6.14L8.81 6.19Z M5.58 6.33L5.58 6.84L5.67 7.12L5.81 7.27L6.14 7.36L6.28 7.31L6.38 7.08L6.23 6.80L6.33 6.61L6.56 6.56L6.70 6.75L6.66 6.98L6.75 7.17L6.84 7.22L7.17 7.22L7.55 7.08L7.73 6.89L7.83 6.66L7.73 6.33L7.45 6.14L6.80 6.19L6.52 6.09L5.95 6.09L5.67 6.19Z M4.03 4.92L3.98 5.11L3.98 8.95L4.08 9.19L4.45 9.47L4.59 9.47L4.73 9.33L4.73 9.05L4.59 8.77L4.64 8.16L4.59 5.16L4.73 4.97L5.02 4.88L5.91 4.92L6.47 4.88L14.39 4.92L14.67 5.20L14.67 7.78L14.44 8.11L14.48 8.34L14.62 8.53L14.62 8.91L14.48 9.19L14.53 9.61L14.81 9.70L15.05 9.56L15.33 9.56L15.70 9.80L15.89 9.66L18.19 9.66L18.56 9.52L18.80 9.52L19.03 9.66L19.27 9.66L19.83 9.19L19.97 8.86L20.02 6.23L19.88 5.95L19.55 5.62L19.17 5.48L15.33 5.53L15.23 5.44L15.23 5.02L15.14 4.78L14.91 4.50L14.58 4.31L6.94 4.27L4.73 4.31L4.27 4.59Z M15.38 6.19L15.47 6.28L15.42 8.91L15.23 8.95L15.28 6.19Z M15.98 6.19L16.12 6.05L19.22 6.09L19.41 6.38L19.41 8.72L19.36 8.86L19.17 9.05L18.89 9.14L17.95 9.05L16.12 9.09L15.98 8.91L16.03 6.52Z"/></svg>
