<svg xmlns="http://www.w3.org/2000/svg" width="24" height="24" viewBox="0 0 24 24" fill="currentColor" fill-rule="evenodd" aria-hidden="true"><path d="M7.83 20.91L7.88 21.05L8.06 21.09L7.83 21.19L7.83 21.33L7.92 21.38L8.11 21.38L8.34 21.14L8.34 21.00L8.20 20.86Z M13.83 20.95L13.88 21.23L14.11 21.38L14.53 21.38L14.72 21.23L14.81 21.00L14.72 20.86L14.53 20.77L14.06 20.77L13.88 20.86Z M14.11 21.09L14.16 21.00L14.53 21.05L14.44 21.14Z M9.38 21.00L9.56 21.05L9.66 21.33L9.80 21.19L9.84 21.00L12.52 20.95L12.61 21.05L12.66 21.33L12.84 21.28L12.89 21.19L12.80 20.95L12.84 20.81L13.03 20.67L12.98 20.58L12.80 20.53L12.66 20.30L9.84 20.30L9.70 20.44L9.70 20.67L9.61 20.77L9.38 20.81Z M9.94 20.67L9.98 20.53L12.56 20.62L12.47 20.72Z M8.11 19.36L7.83 19.88L7.78 20.20L7.97 20.39L8.16 20.30L8.44 20.30L8.58 20.44L8.72 20.44L9.05 20.02L9.14 19.50L9.00 19.36Z M8.06 19.92L8.25 19.59L8.86 19.64L8.81 19.88L8.67 20.06L8.11 20.11Z M13.97 18.56L13.12 18.61L13.03 18.75L13.12 19.45L13.50 19.83L13.64 19.64L13.88 19.64L13.92 19.78L14.02 19.83L14.34 19.36L14.16 18.70Z M13.36 18.84L13.88 18.84L13.97 18.94L14.06 19.27L13.97 19.36L13.36 19.31L13.31 18.98Z M10.88 18.05L10.88 18.14L10.64 18.33L10.55 18.94L10.45 19.08L10.50 19.27L10.69 19.41L10.69 19.59L10.88 19.55L10.97 19.31L11.11 19.36L11.16 19.59L11.34 19.55L11.39 19.36L11.53 19.31L11.62 19.41L11.62 19.59L11.81 19.55L11.86 19.36L12.05 19.17L12.05 18.38L11.86 18.19L11.86 18.05L11.67 18.05L11.53 18.23L11.44 18.05L11.30 18.05L11.30 18.14L11.11 18.19L11.11 18.05Z M10.88 18.52L11.81 18.52L11.81 18.98L11.67 19.12L10.83 19.12L10.78 18.94Z M11.02 17.48L11.06 17.62L11.77 17.62L11.81 17.44Z M9.09 17.58L9.05 18.00L9.19 18.14L9.89 18.09L10.08 17.67L10.03 17.48L9.23 17.44Z M9.33 17.72L9.42 17.62L9.80 17.67L9.80 17.81L9.70 17.91L9.33 17.86Z M13.55 17.44L13.55 17.77L13.64 17.86L13.92 17.86L14.11 17.67L14.11 17.58L13.92 17.39Z M12.38 17.58L12.38 17.72L12.52 17.91L12.98 17.91L13.17 17.72L13.08 17.44L12.98 17.39L12.56 17.39Z M12.66 17.67L12.70 17.58L12.89 17.62L12.80 17.72Z M19.17 12.33L18.89 12.52L18.84 12.98L19.12 13.31L19.41 13.36L19.55 13.31L19.83 13.03L19.88 12.66L19.55 12.33Z M19.22 12.56L19.45 12.56L19.59 12.70L19.59 12.89L19.41 13.08L19.17 13.03L19.08 12.89L19.08 12.75Z M17.62 12.28L17.25 12.56L17.20 12.89L17.30 13.12L17.44 13.27L17.62 13.36L17.81 13.36L18.14 13.12L18.23 12.94L18.23 12.61L18.00 12.38L17.81 12.28Z M17.58 12.56L17.81 12.56L18.00 12.75L18.00 12.84L17.77 13.08L17.62 13.08L17.48 12.94L17.44 12.75Z M19.22 11.62L19.27 11.81L19.64 11.81L19.73 11.72L19.73 11.62L19.64 11.58Z M18.23 11.62L18.28 11.81L18.75 11.81L18.84 11.67L18.75 11.58Z M17.34 11.62L17.39 11.81L17.53 11.86L17.77 11.81L17.86 11.72L17.86 11.62L17.77 11.58Z M17.11 8.95L17.06 9.05L17.11 10.31L17.06 10.92L17.16 11.06L17.25 11.11L19.83 11.11L20.02 10.92L20.02 9.00L19.83 8.86L17.25 8.86Z M17.39 9.14L19.78 9.19L19.78 10.73L19.64 10.88L17.34 10.83Z M4.50 4.22L4.31 4.41L4.31 6.70L4.59 6.98L4.59 7.22L4.50 7.31L3.23 7.31L2.95 7.45L2.86 7.64L2.86 18.94L2.95 19.12L3.33 19.41L3.33 20.30L3.61 20.53L4.73 20.53L5.06 20.30L5.11 19.36L6.84 19.41L6.75 19.50L6.66 19.83L6.56 19.92L5.77 21.70L5.81 22.03L6.09 22.27L15.89 22.27L16.22 22.03L16.31 21.75L15.66 19.97L15.52 19.36L18.66 19.41L18.66 20.30L18.75 20.44L20.11 20.53L20.20 20.48L20.44 20.20L20.48 19.31L20.58 19.31L20.91 18.89L20.91 7.73L20.86 7.59L20.53 7.31L5.30 7.27L5.34 6.89L5.58 6.66L5.58 4.45L5.34 4.22Z M18.94 19.36L20.16 19.41L20.16 20.16L20.06 20.25L18.89 20.20Z M3.61 19.36L4.83 19.41L4.83 20.16L4.73 20.25L3.66 20.25L3.56 20.16Z M14.86 17.67L14.91 17.53L20.53 17.53L20.62 17.62L20.62 18.89L20.44 19.08L15.42 19.08L15.33 18.98Z M3.14 18.94L3.19 17.53L7.64 17.58L7.17 18.66L6.89 19.08L3.28 19.08Z M6.00 21.80L8.20 16.97L8.77 16.88L13.50 16.88L13.78 16.92L14.16 16.88L14.25 16.92L14.44 17.16L14.44 17.30L14.62 17.67L14.81 18.33L15.42 19.92L15.66 20.77L16.03 21.70L16.03 21.84L15.89 21.98L6.14 21.98Z M6.52 14.77L11.48 14.81L11.53 15.05L11.72 15.14L11.72 15.47L11.81 15.80L12.00 15.98L12.19 15.75L12.28 15.09L12.47 14.95L12.52 14.77L16.08 14.81L16.08 17.20L15.98 17.30L14.72 17.25L14.58 16.83L14.25 16.64L8.25 16.64L7.97 16.83L7.73 17.30L6.56 17.30L6.47 17.20Z M11.77 14.25L12.28 14.30L12.28 14.77L12.19 14.86L11.81 14.86L11.72 14.72Z M8.86 14.48L8.91 14.25L11.44 14.30L11.44 14.44L11.34 14.53Z M11.67 13.64L12.38 13.69L12.38 13.92L12.28 14.02L11.62 13.97Z M12.56 12.89L13.03 12.94L13.03 13.27L12.89 13.41L12.52 13.36Z M11.72 12.89L12.28 12.94L12.28 13.31L12.19 13.41L11.67 13.36Z M11.06 12.89L11.44 12.94L11.44 13.31L11.34 13.41L11.02 13.36Z M12.52 14.39L12.61 14.30L13.41 14.20L13.41 14.02L13.03 13.97L13.03 13.69L13.27 13.45L13.31 12.89L13.45 12.84L13.73 12.52L13.78 12.00L16.08 12.05L16.08 14.11L15.98 14.20L15.70 13.97L15.52 13.97L15.42 14.11L15.47 14.20L15.70 14.25L15.89 14.44L15.80 14.53L15.38 14.53L15.09 13.97L14.95 13.97L14.91 14.11L15.05 14.44L14.95 14.53L14.77 14.48L14.67 14.02L14.53 13.97L14.44 14.02L14.53 14.44L14.44 14.53L14.30 14.53L14.20 14.44L14.16 14.16L14.06 14.02L13.88 14.02L13.97 14.44L13.88 14.53L12.61 14.53Z M6.56 12.00L10.17 12.00L10.27 12.09L10.22 12.42L10.27 12.61L10.36 12.75L10.78 12.98L10.73 13.31L10.78 13.55L11.06 13.69L11.06 13.92L10.97 14.02L9.70 13.97L9.33 14.06L9.19 13.97L8.86 13.97L8.77 14.02L8.48 14.53L8.34 14.53L8.30 14.34L8.39 14.06L8.30 13.97L8.16 13.97L8.06 14.30L7.88 14.53L7.69 14.53L7.59 14.39L7.73 14.16L7.69 13.97L7.50 13.97L7.41 14.30L7.22 14.53L6.70 14.44L6.89 14.25L7.03 14.20L7.17 14.02L6.84 13.97L6.52 14.30L6.47 12.47Z M13.78 11.06L16.08 11.11L16.08 11.62L15.98 11.72L13.83 11.77L13.73 11.67Z M6.52 11.67L6.56 11.06L10.17 11.06L10.27 11.20L10.27 11.62L10.17 11.72Z M10.64 9.66L13.31 9.66L13.41 9.70L13.45 12.52L13.27 12.66L11.16 12.66L10.55 12.56L10.50 12.47L10.50 9.80Z M6.47 7.73L6.61 7.59L15.94 7.59L16.08 7.73L16.08 10.69L15.98 10.78L15.42 10.83L13.92 10.78L13.83 10.83L13.73 10.73L13.73 9.70L13.64 9.56L13.41 9.42L10.59 9.42L10.45 9.47L10.27 9.66L10.22 9.84L10.27 10.69L10.12 10.83L9.14 10.78L6.75 10.78L6.56 10.83L6.47 10.73L6.52 8.81Z M20.44 7.55L20.62 7.69L20.62 17.20L20.53 17.30L16.31 17.25L16.27 7.64Z M3.33 7.55L6.28 7.64L6.23 17.20L6.14 17.30L3.14 17.25L3.14 7.69Z M4.88 6.94L5.06 6.98L5.06 7.22L4.97 7.31L4.83 7.27Z M4.59 6.09L5.25 6.09L5.34 6.19L5.30 6.56L5.20 6.66L4.64 6.66L4.55 6.56Z M4.59 5.30L5.25 5.30L5.34 5.39L5.34 5.72L5.20 5.86L4.64 5.86L4.55 5.77Z M4.64 4.45L5.30 4.50L5.30 4.92L5.20 5.02L4.64 5.02L4.55 4.88Z"/></svg>
