<svg xmlns="http://www.w3.org/2000/svg" width="24" height="24" viewBox="0 0 24 24" fill="currentColor" fill-rule="evenodd" aria-hidden="true"><path d="M7.73 19.22L7.83 19.27L8.11 19.22L8.25 19.03L8.20 18.84L8.11 18.80L7.78 18.84L7.88 19.03L7.73 19.08Z M13.83 18.94L13.92 19.17L14.11 19.27L14.48 19.27L14.77 18.98L14.62 18.80L14.48 18.75L14.02 18.75Z M14.06 19.03L14.11 18.94L14.53 18.98L14.44 19.08Z M9.33 18.80L9.56 19.27L9.70 19.12L9.75 18.94L12.42 18.89L12.61 19.27L12.75 19.12L12.66 18.89L12.80 18.56L12.61 18.52L12.52 18.33L9.70 18.38L9.66 18.66L9.56 18.75Z M9.84 18.66L9.89 18.52L12.38 18.52L12.47 18.61L12.38 18.70Z M7.73 18.05L7.78 18.33L7.88 18.33L7.97 18.47L8.11 18.33L8.39 18.33L8.48 18.47L8.81 18.14L8.95 17.72L8.91 17.53L7.97 17.58Z M7.92 18.05L8.06 17.77L8.67 17.86L8.53 18.14Z M13.03 16.92L13.12 17.62L13.31 17.72L13.41 17.91L13.55 17.86L13.59 17.72L13.88 17.77L13.92 17.91L14.06 17.86L14.06 17.77L14.20 17.62L14.20 17.44L14.02 16.88Z M13.22 17.11L13.31 17.02L13.88 17.11L13.97 17.30L13.92 17.53L13.31 17.48Z M10.73 16.36L10.50 16.64L10.41 17.16L10.55 17.67L10.64 17.77L10.83 17.48L11.02 17.53L11.02 17.72L11.20 17.67L11.25 17.48L11.44 17.53L11.48 17.72L11.62 17.67L11.62 17.53L11.81 17.34L11.81 16.69L11.62 16.36L11.48 16.36L11.34 16.55L11.25 16.36L11.11 16.36L10.97 16.55L10.88 16.36Z M10.59 17.25L10.73 16.73L11.58 16.78L11.62 17.20L11.53 17.30Z M10.78 15.94L10.88 16.03L11.53 16.03L11.58 15.84Z M8.91 16.36L9.00 16.45L9.61 16.45L9.75 16.27L9.84 15.94L9.75 15.84L9.00 15.89Z M9.14 16.22L9.19 16.03L9.61 16.12L9.47 16.27Z M13.45 15.84L13.41 15.94L13.45 16.17L13.83 16.22L13.97 16.08L13.97 15.94L13.83 15.80Z M12.28 15.94L12.28 16.12L12.47 16.31L12.75 16.31L12.98 16.12L12.94 15.89L12.80 15.80L12.52 15.80Z M12.47 16.08L12.52 15.98L12.75 16.03L12.66 16.12Z M19.41 11.30L19.27 11.39L19.17 11.58L19.22 11.95L19.41 12.14L19.55 12.19L19.78 12.14L20.02 11.91L20.06 11.58L19.78 11.30Z M19.50 11.48L19.69 11.48L19.83 11.62L19.83 11.77L19.64 11.95L19.55 11.95L19.41 11.81L19.41 11.58Z M17.81 11.34L17.67 11.53L17.72 11.95L18.05 12.19L18.28 12.14L18.56 11.81L18.52 11.48L18.28 11.30Z M18.00 11.48L18.19 11.48L18.38 11.72L18.14 11.95L18.00 11.95L17.86 11.77L17.86 11.62Z M19.55 10.78L19.83 10.83L19.92 10.59L19.55 10.59Z M18.61 10.64L18.70 10.83L19.03 10.78L19.03 10.59Z M17.81 10.59L17.81 10.78L17.91 10.83L18.19 10.73L18.14 10.59Z M17.53 8.20L17.48 10.03L17.53 10.12L20.06 10.17L20.20 10.08L20.25 9.98L20.25 8.30L20.16 8.20L17.72 8.16Z M17.77 8.39L20.02 8.44L20.02 9.84L19.92 9.94L17.72 9.89L17.67 8.77Z M4.36 4.41L4.31 4.50L4.31 6.38L4.55 6.56L4.59 6.84L4.50 6.94L3.33 6.94L3.14 7.03L3.00 7.27L3.00 17.11L3.23 17.44L3.47 17.53L3.47 18.33L3.56 18.47L3.66 18.52L4.83 18.52L5.06 18.23L5.06 17.48L6.94 17.53L5.95 19.50L5.95 19.83L6.19 20.02L15.98 20.02L16.27 19.83L16.31 19.59L15.56 17.81L15.52 17.48L19.03 17.53L19.03 18.28L19.22 18.52L20.39 18.52L20.58 18.38L20.62 17.53L21.05 17.11L21.05 7.31L20.86 7.03L20.67 6.94L5.20 6.89L5.20 6.61L5.44 6.38L5.44 4.50L5.34 4.36L5.16 4.27L4.55 4.27Z M19.31 17.48L20.44 17.53L20.44 18.19L20.30 18.33L19.36 18.33L19.27 18.23Z M3.75 17.48L4.83 17.53L4.83 18.19L4.69 18.33L3.80 18.33L3.70 18.23Z M14.86 16.08L14.91 15.94L16.55 15.98L20.48 15.94L20.81 16.03L20.81 17.11L20.58 17.30L15.42 17.30L15.28 17.11Z M3.23 17.11L3.28 15.94L3.56 15.98L5.25 15.94L6.61 15.98L6.94 15.94L7.64 16.03L7.12 17.16L6.94 17.30L3.42 17.30Z M6.14 19.59L8.06 15.66L8.25 15.42L12.09 15.38L12.19 15.42L12.38 15.38L14.30 15.42L14.44 15.56L16.08 19.55L16.08 19.69L15.98 19.78L6.42 19.83L6.23 19.78Z M6.33 13.45L10.78 13.50L10.83 13.73L11.02 13.83L11.02 14.20L11.16 14.48L11.34 14.39L11.48 13.73L11.67 13.59L11.72 13.45L16.50 13.50L16.50 15.66L16.41 15.75L14.77 15.75L14.67 15.66L14.62 15.42L14.44 15.23L14.30 15.19L8.25 15.19L8.02 15.33L7.78 15.75L6.28 15.70Z M10.97 12.98L11.53 13.03L11.44 13.27L11.48 13.45L11.39 13.55L11.20 13.59L10.97 13.50L10.92 13.17Z M10.92 12.42L11.53 12.42L11.62 12.52L11.62 12.70L11.53 12.80L10.88 12.75Z M11.77 11.77L12.14 11.81L12.14 12.14L12.05 12.23L11.72 12.19Z M10.97 11.77L11.53 11.81L11.53 12.14L11.44 12.23L10.92 12.19Z M10.36 11.77L10.73 11.81L10.73 12.14L10.64 12.23L10.31 12.19Z M11.77 13.27L11.81 13.03L12.94 12.98L12.98 12.80L12.19 12.75L12.14 12.47L12.38 12.19L12.38 11.77L12.56 11.72L12.80 11.44L12.84 10.97L16.50 11.02L16.50 12.94L16.41 13.03L16.08 12.75L15.80 12.75L15.84 12.94L15.98 12.94L16.27 13.17L15.38 13.17L15.23 12.84L15.00 12.75L15.00 12.89L15.14 13.08L15.09 13.22L14.62 13.17L14.44 12.75L14.25 12.84L14.39 13.08L14.34 13.22L13.97 13.27L13.88 13.17L13.78 12.84L13.69 12.75L13.55 12.75L13.55 12.94L13.64 13.08L13.59 13.22Z M6.33 10.97L9.66 11.02L9.70 11.53L9.89 11.72L10.12 11.81L10.12 12.28L10.17 12.38L10.36 12.47L10.36 12.70L10.27 12.80L9.61 12.84L9.66 12.98L10.73 13.03L10.73 13.17L10.64 13.27L9.00 13.17L9.09 12.98L9.28 12.98L9.38 12.84L9.28 12.75L8.91 12.80L8.81 13.08L8.67 13.22L8.25 13.12L8.39 12.89L8.34 12.75L8.20 12.80L7.97 13.22L7.50 13.12L7.69 12.75L7.50 12.75L7.22 13.22L6.52 13.17L6.75 12.94L6.89 12.94L6.98 12.75L6.66 12.75L6.33 13.03Z M12.80 10.73L12.84 10.08L16.41 10.08L16.50 10.17L16.50 10.64L16.36 10.78Z M6.28 10.69L6.33 10.08L9.61 10.08L9.70 10.17L9.70 10.64L9.42 10.78L6.38 10.78Z M10.03 8.95L12.42 8.95L12.56 9.09L12.56 11.39L12.33 11.58L10.08 11.58L9.89 11.39L9.89 9.09Z M16.69 7.17L20.67 7.17L20.81 7.31L20.81 15.66L20.72 15.75L16.69 15.70L16.64 7.27Z M6.28 7.31L6.42 7.17L16.36 7.17L16.50 7.31L16.50 9.80L16.41 9.89L12.80 9.84L12.80 9.05L12.61 8.81L12.47 8.77L9.94 8.77L9.70 9.00L9.70 9.80L9.61 9.89L6.28 9.84Z M3.33 7.17L6.14 7.22L6.09 15.66L6.00 15.75L3.23 15.70L3.23 7.27Z M4.83 6.56L5.02 6.61L5.02 6.84L4.92 6.94L4.78 6.89Z M4.59 5.91L5.25 5.95L5.25 6.23L5.11 6.38L4.64 6.38L4.55 6.28Z M4.59 5.16L5.11 5.16L5.25 5.25L5.25 5.58L5.16 5.67L4.55 5.62Z M4.59 4.50L5.16 4.50L5.25 4.59L5.25 4.88L5.16 4.97L4.55 4.92Z"/></svg>
