<svg xmlns="http://www.w3.org/2000/svg" width="24" height="24" viewBox="0 0 24 24" fill="currentColor" fill-rule="evenodd" aria-hidden="true"><path d="M13.97 20.11L14.02 20.86L14.11 20.91L14.86 20.86L15.05 20.62L15.00 20.11L14.06 20.06Z M15.84 20.06L15.75 20.20L15.75 20.67L15.84 20.86L16.50 20.91L16.73 20.62L16.69 20.16L16.59 20.06L16.12 20.02Z M17.58 19.97L17.44 20.16L17.44 20.62L17.58 20.86L18.14 20.91L18.47 20.67L18.52 20.16L18.38 19.97L18.28 19.92Z M17.48 18.52L17.44 19.17L17.58 19.36L17.95 19.31L18.33 19.36L18.52 19.22L18.56 18.75L18.42 18.52L18.33 18.47Z M15.80 18.52L15.66 19.03L15.84 19.36L16.64 19.36L16.78 19.22L16.83 18.94L16.73 18.61L16.55 18.47Z M13.97 18.56L13.97 19.27L14.06 19.36L14.86 19.36L15.00 19.27L15.05 19.17L15.00 18.56L14.39 18.47Z M6.80 18.14L6.84 18.47L7.08 18.56L9.42 18.52L11.25 18.56L11.39 18.52L11.53 18.33L11.53 18.19L11.39 18.05L6.89 18.05Z M17.44 17.02L17.48 17.77L17.72 17.86L17.91 17.81L18.09 17.86L18.33 17.81L18.52 17.62L18.56 17.25L18.42 16.97L17.53 16.92Z M15.75 16.97L15.70 17.62L15.80 17.77L16.55 17.81L16.73 17.62L16.73 17.11L16.59 16.92L16.12 16.88Z M13.97 17.06L13.97 17.67L14.06 17.77L14.58 17.81L14.91 17.77L15.05 17.62L15.05 17.11L14.95 16.97L14.30 16.88L14.11 16.92Z M11.53 15.66L11.39 15.47L11.20 15.42L7.50 15.52L7.03 15.47L6.84 15.56L6.80 15.80L6.94 15.98L7.08 16.03L7.27 15.98L11.30 16.03L11.48 15.89Z M13.64 13.83L13.64 15.84L13.69 16.12L13.88 16.27L18.70 16.27L18.89 16.08L18.84 15.00L18.89 14.11L18.80 13.83L18.66 13.69L18.52 13.64L13.97 13.59L13.73 13.69Z M14.25 14.20L18.14 14.16L18.23 14.20L18.28 15.61L18.14 15.75L14.34 15.75L14.20 15.61Z M6.84 12.94L6.84 13.36L6.94 13.41L11.39 13.41L11.53 13.27L11.53 13.03L11.39 12.89L6.94 12.89Z M12.94 12.75L12.70 13.12L12.70 21.56L12.75 21.70L12.98 21.98L13.27 22.12L19.31 22.12L19.55 21.98L19.73 21.80L19.88 21.52L19.88 13.22L19.78 12.94L19.55 12.70L19.08 12.56L17.02 12.61L13.97 12.56L13.22 12.61Z M13.31 13.17L19.22 13.17L19.31 13.27L19.27 15.70L19.31 21.38L19.12 21.56L13.41 21.56L13.27 21.42L13.22 16.27Z M6.84 10.50L6.89 10.83L7.17 10.92L8.62 10.88L12.98 10.92L13.17 10.88L13.31 10.73L13.27 10.45L13.17 10.41L9.89 10.36L6.94 10.41Z M10.64 5.62L10.41 5.91L10.41 6.14L10.64 6.33L10.97 6.28L11.16 6.09L11.16 5.81L10.92 5.62Z M16.73 6.19L16.45 6.05L13.59 6.05L13.45 5.86L13.41 5.62L13.27 5.48L13.08 5.39L12.00 5.39L11.91 5.30L11.81 4.97L11.44 4.55L11.02 4.36L10.55 4.36L10.12 4.55L9.84 4.83L9.80 5.11L9.61 5.34L9.52 5.39L8.30 5.39L8.02 5.62L7.97 5.91L7.83 6.05L4.92 6.05L4.59 6.19L4.22 6.56L4.03 7.08L4.08 21.23L4.27 21.61L4.50 21.84L4.97 22.08L11.48 22.08L11.67 21.89L11.67 21.70L11.44 21.52L5.11 21.56L4.88 21.42L4.64 21.14L4.64 6.98L4.69 6.89L5.02 6.61L7.88 6.61L7.97 6.75L7.92 7.27L7.97 7.41L8.34 7.78L12.98 7.78L13.36 7.45L13.50 7.17L13.55 6.61L16.36 6.61L16.64 6.84L16.73 7.03L16.73 11.44L16.83 11.62L17.06 11.67L17.30 11.39L17.30 6.94L17.06 6.47Z M8.48 6.05L8.67 5.91L10.08 5.95L10.27 5.72L10.31 5.16L10.59 4.97L11.02 4.97L11.25 5.11L11.39 5.44L11.39 5.72L11.58 5.95L12.84 5.95L12.94 6.05L12.94 7.03L12.75 7.22L12.61 7.17L8.62 7.22L8.48 7.08Z"/></svg>
