<svg xmlns="http://www.w3.org/2000/svg" width="24" height="24" viewBox="0 0 24 24" fill="currentColor" fill-rule="evenodd" aria-hidden="true"><path d="M16.97 18.89L17.02 19.08L18.28 19.08L18.38 18.94L18.28 18.84Z M11.77 18.98L11.86 19.08L13.92 19.08L14.02 18.94L13.92 18.84L11.86 18.84Z M7.03 18.98L7.08 19.08L9.23 19.03L9.28 18.94L9.19 18.84L7.12 18.84Z M16.97 17.91L17.06 18.09L18.33 18.05L18.33 17.86Z M11.81 17.91L11.86 18.09L15.14 18.09L15.23 18.00L15.23 17.91L15.14 17.86Z M7.03 18.00L7.12 18.09L9.14 18.09L9.28 17.95L9.19 17.86L7.08 17.86Z M9.66 15.47L9.75 15.66L9.98 15.70L9.94 16.27L9.98 16.41L10.17 16.36L10.22 15.66L10.31 15.66L10.41 15.47Z M9.05 15.47L8.81 15.70L8.81 16.17L8.95 16.36L9.28 16.45L9.42 16.41L9.56 16.27L9.56 16.17L9.14 16.27L9.00 16.08L9.00 15.75L9.14 15.61L9.28 15.61L9.42 15.70L9.56 15.66L9.56 15.56L9.42 15.47Z M8.02 15.47L7.83 15.66L7.78 15.89L7.83 16.22L8.02 16.41L8.30 16.45L8.48 16.36L8.62 16.17L8.67 15.75L8.39 15.47Z M8.16 15.61L8.34 15.66L8.48 15.84L8.48 16.03L8.30 16.27L8.16 16.27L8.02 16.12L7.97 15.89L8.06 15.66Z M7.69 15.47L7.08 15.47L7.08 16.36L7.17 16.45L7.31 16.31L7.36 15.66L7.69 15.61Z M7.03 9.98L7.12 10.17L11.62 10.17L11.77 10.03L11.67 9.94Z M7.08 8.53L12.52 8.58L12.61 8.34L12.52 8.30L7.12 8.30Z M7.03 6.75L7.12 6.94L11.62 6.94L11.77 6.80L11.67 6.70Z M5.34 3.09L5.16 3.28L5.11 3.42L5.11 20.53L5.20 20.77L5.53 21.00L18.42 21.00L18.56 20.95L18.84 20.67L18.94 20.44L18.89 19.08L18.89 13.78L18.94 13.22L18.94 6.80L18.89 6.61L18.94 6.19L18.89 6.09L15.84 3.00L5.53 3.00Z M16.73 17.06L18.66 17.11L18.66 19.78L18.52 19.92L16.69 19.88Z M11.16 17.06L16.45 17.11L16.45 19.83L16.36 19.92L11.11 19.88Z M6.42 17.06L10.88 17.11L10.88 19.83L10.78 19.92L6.38 19.88Z M16.73 15.05L18.66 15.09L18.66 16.69L18.56 16.78L16.88 16.83L16.69 16.73Z M11.16 15.05L16.45 15.09L16.45 16.69L16.36 16.78L11.34 16.83L11.11 16.73Z M6.42 15.05L10.88 15.09L10.88 16.69L10.78 16.78L6.84 16.83L6.52 16.78L6.42 16.83Z M16.08 3.56L18.38 5.91L18.38 6.05L16.31 6.05L16.03 5.81Z M5.53 3.28L15.75 3.33L15.75 5.77L15.84 6.00L16.08 6.23L16.36 6.33L18.66 6.38L18.66 14.67L18.52 14.81L6.19 14.81L6.09 14.91L6.09 20.02L6.23 20.16L18.66 20.20L18.66 20.44L18.42 20.72L5.58 20.72L5.39 20.58L5.39 3.42Z"/></svg>
