<svg xmlns="http://www.w3.org/2000/svg" width="24" height="24" viewBox="0 0 24 24" fill="currentColor" fill-rule="evenodd" aria-hidden="true"><path d="M5.81 16.88L5.81 17.86L6.05 18.05L6.98 18.05L7.22 17.86L7.27 16.97L7.12 16.78L7.03 16.73L6.00 16.73Z M6.09 17.02L6.98 17.06L6.98 17.67L6.89 17.77L6.05 17.72Z M4.08 16.73L3.94 16.88L3.94 17.91L4.12 18.05L5.06 18.05L5.16 18.00L5.34 17.77L5.30 16.88L5.11 16.73Z M4.22 17.02L5.11 17.06L5.11 17.67L5.02 17.77L4.17 17.72Z M7.88 14.86L7.73 15.05L7.73 17.81L7.97 18.05L8.91 18.05L9.19 17.77L9.19 15.09L9.00 14.86Z M8.02 15.09L8.91 15.19L8.91 17.67L8.81 17.77L7.97 17.72Z M5.81 14.95L5.81 15.98L5.95 16.12L6.94 16.17L7.22 15.98L7.27 15.09L7.08 14.86L5.91 14.86Z M6.14 15.09L6.98 15.14L6.98 15.80L6.89 15.89L6.05 15.84Z M3.94 14.95L3.94 15.98L3.98 16.08L4.17 16.17L5.06 16.17L5.34 15.94L5.34 15.00L5.20 14.86L4.03 14.86Z M4.22 15.09L5.02 15.09L5.11 15.19L5.11 15.75L4.97 15.89L4.17 15.84Z M15.61 14.95L15.56 14.86L15.05 14.81L11.20 14.86L11.25 15.09L11.39 15.14L15.47 15.09Z M18.89 13.88L18.84 13.97L18.84 15.28L18.94 15.47L19.78 15.94L19.92 15.75L19.12 15.23L19.08 13.88Z M11.20 13.73L11.30 13.83L16.17 13.83L16.27 13.59L16.17 13.55L11.30 13.55L11.20 13.59Z M7.88 12.94L7.73 13.08L7.73 14.02L7.78 14.11L8.02 14.25L9.00 14.20L9.19 13.97L9.14 13.08L9.00 12.94Z M8.02 13.17L8.62 13.22L8.81 13.17L8.91 13.27L8.91 13.88L8.81 13.97L7.97 13.92Z M5.95 12.94L5.81 13.08L5.81 14.06L6.09 14.25L7.03 14.20L7.27 13.92L7.22 13.08L7.08 12.94Z M6.09 13.17L6.98 13.27L6.98 13.88L6.89 13.97L6.05 13.92Z M3.98 12.98L3.89 13.17L3.94 14.06L4.03 14.20L4.12 14.25L4.83 14.20L5.06 14.25L5.30 14.06L5.34 13.12L5.25 12.98L5.16 12.94L4.08 12.94Z M4.22 13.22L5.11 13.27L5.11 13.88L5.02 13.97L4.17 13.92Z M11.20 12.52L11.30 12.61L16.17 12.61L16.31 12.42L16.22 12.33L11.20 12.38Z M15.09 10.92L15.19 11.02L17.44 11.02L17.53 10.78L17.44 10.73L15.47 10.73L15.09 10.78Z M3.94 9.94L3.89 11.72L3.94 11.86L4.12 12.00L8.95 12.00L9.19 11.72L9.19 10.03L8.95 9.80L4.08 9.80Z M4.22 10.08L8.86 10.08L8.95 10.17L8.91 10.27L8.95 11.62L8.67 11.72L4.17 11.72Z M10.92 10.73L10.97 11.34L11.16 11.30L11.20 10.69L11.48 10.22L11.95 9.98L12.75 9.94L13.17 10.03L13.55 10.27L13.83 10.73L13.88 11.34L13.97 11.39L14.11 11.20L14.11 10.78L13.92 10.31L13.45 9.89L12.94 9.70L12.05 9.70L11.67 9.80L11.20 10.12Z M15.09 9.52L15.09 9.70L15.19 9.75L17.44 9.75L17.53 9.70L17.53 9.52L17.39 9.47L15.19 9.47Z M12.14 7.59L11.81 7.78L11.58 8.11L11.53 8.86L11.67 9.14L11.95 9.42L12.23 9.56L12.75 9.56L13.17 9.28L13.36 9.05L13.50 8.77L13.50 8.34L13.27 7.88L12.89 7.59L12.70 7.55Z M12.42 7.78L12.75 7.83L12.98 7.97L13.22 8.34L13.22 8.77L13.12 8.95L12.89 9.19L12.61 9.33L12.33 9.33L12.00 9.14L11.81 8.91L11.77 8.72L11.77 8.34L11.86 8.11L12.05 7.92Z M2.86 9.05L2.77 9.33L2.77 18.47L3.00 18.98L3.33 19.22L3.52 19.27L9.56 19.27L9.80 19.17L10.12 18.89L10.27 18.66L10.31 18.38L18.70 18.38L19.03 18.14L19.17 17.81L19.41 17.81L19.88 17.67L20.62 17.20L21.00 16.78L21.33 16.12L21.47 15.42L21.42 14.86L21.23 14.30L20.91 13.78L20.62 13.50L20.06 13.12L19.69 12.98L19.17 12.94L19.08 12.84L19.12 11.53L19.08 7.45L16.31 4.64L8.62 4.64L8.48 4.69L8.34 4.88L8.39 8.48L8.30 8.58L3.52 8.58L3.09 8.77Z M18.47 13.22L19.27 13.17L19.55 13.22L20.11 13.45L20.72 13.97L20.95 14.30L21.14 14.81L21.19 15.61L21.09 16.03L20.91 16.45L20.20 17.20L19.45 17.53L18.61 17.53L17.95 17.30L17.53 16.97L17.20 16.59L16.92 15.94L16.88 15.00L17.16 14.20L17.77 13.55Z M3.28 8.95L3.47 8.86L9.56 8.86L9.94 9.09L10.03 9.28L10.03 18.47L9.94 18.70L9.75 18.89L9.42 19.03L5.72 18.98L3.56 19.03L3.23 18.84L3.05 18.52L3.05 9.33L3.14 9.09Z M16.45 5.16L18.61 7.31L18.52 7.41L16.59 7.41L16.41 7.27Z M8.67 4.92L16.08 4.92L16.17 5.02L16.17 7.36L16.22 7.45L16.50 7.64L18.84 7.69L18.84 12.84L18.75 12.94L18.14 13.03L17.44 13.45L16.88 14.16L16.64 14.77L16.59 15.56L16.69 16.08L17.11 16.88L17.77 17.48L18.84 17.91L18.70 18.09L10.31 18.05L10.31 9.38L10.17 9.00L9.89 8.72L9.56 8.58L8.62 8.53Z"/></svg>
