<svg xmlns="http://www.w3.org/2000/svg" width="24" height="24" viewBox="0 0 24 24" fill="currentColor" fill-rule="evenodd" aria-hidden="true"><path d="M11.48 13.45L11.44 13.83L11.53 13.92L11.81 13.97L12.00 13.83L12.05 13.59L11.86 13.41Z M11.58 13.73L11.62 13.59L11.77 13.59L11.86 13.69L11.77 13.78Z M6.38 13.41L6.19 13.55L6.14 13.73L6.23 13.92L6.47 14.02L6.75 13.83L6.80 13.64L6.66 13.45Z M6.42 13.59L6.61 13.69L6.47 13.83L6.38 13.73Z M10.03 13.12L10.03 13.55L10.12 13.64L10.64 13.64L10.78 13.50L10.78 13.22L10.69 13.12Z M10.22 13.41L10.27 13.27L10.50 13.27L10.59 13.36L10.31 13.50Z M6.56 12.75L6.61 12.89L6.75 12.94L6.89 12.80L6.80 12.70Z M12.61 12.14L12.66 12.28L12.89 12.19L13.27 12.19L13.78 12.47L14.11 12.42L14.39 12.19L14.20 12.09L13.88 12.28L13.31 12.00L12.80 12.00Z M19.45 11.72L19.12 11.91L19.08 12.33L19.31 12.61L19.64 12.66L19.92 12.42L20.02 12.09L19.83 11.81L19.64 11.72Z M19.41 11.95L19.64 11.95L19.78 12.09L19.78 12.23L19.59 12.42L19.45 12.42L19.31 12.28L19.27 12.14Z M17.86 11.72L17.58 11.91L17.53 12.28L17.77 12.61L18.09 12.66L18.38 12.47L18.47 12.28L18.47 12.05L18.23 11.77Z M17.86 11.95L18.14 11.95L18.23 12.05L18.28 12.19L18.09 12.42L17.91 12.42L17.77 12.28L17.72 12.14Z M10.50 11.72L10.55 12.33L10.78 12.47L10.83 12.66L10.97 12.56L11.02 12.42L11.34 12.47L11.39 12.66L11.53 12.56L11.53 12.47L11.67 12.33L11.58 11.77L11.48 11.67Z M10.73 11.86L11.39 11.91L11.44 12.09L11.39 12.23L10.78 12.23L10.69 12.14Z M8.06 11.58L8.06 11.67L7.73 12.00L7.59 12.00L7.64 12.19L7.83 12.23L7.73 12.33L7.59 12.33L7.64 12.52L7.83 12.56L7.55 12.70L7.64 12.89L7.83 12.94L7.73 13.03L7.55 13.03L7.59 13.22L7.73 13.22L7.97 13.45L8.06 13.73L8.20 13.45L8.34 13.50L8.34 13.69L8.44 13.69L8.67 13.50L8.72 13.69L8.86 13.64L8.91 13.45L9.05 13.50L9.05 13.69L9.19 13.64L9.19 13.50L9.42 13.27L9.56 13.22L9.61 13.03L9.42 12.98L9.47 12.84L9.66 12.80L9.66 12.70L9.52 12.70L9.47 12.52L9.66 12.47L9.47 12.19L9.66 12.14L9.70 12.05L9.52 12.00L9.38 11.77L9.19 11.67L9.19 11.53L9.05 11.58L8.95 11.77L8.86 11.53L8.58 11.67L8.53 11.53L8.25 11.67L8.25 11.53Z M9.19 11.91L9.28 12.00L9.28 13.12L9.14 13.27L7.97 13.22L8.06 11.95Z M15.80 11.20L15.42 11.25L15.47 11.44L15.80 11.48L15.80 13.78L15.66 13.92L15.42 13.92L15.47 14.11L15.80 14.11L15.98 13.92L15.98 11.34Z M11.06 11.20L11.06 11.34L11.34 11.30L11.34 11.20Z M10.55 11.34L10.83 11.34L10.92 11.25L10.55 11.20Z M6.75 11.20L6.66 11.30L6.66 11.58L6.80 11.72L7.08 11.72L7.27 11.53L7.22 11.25Z M6.84 11.48L6.89 11.39L7.08 11.44L6.98 11.53Z M19.41 11.02L19.45 11.20L19.73 11.20L19.88 11.06Z M18.47 11.02L18.52 11.20L18.98 11.16L18.98 11.02Z M17.67 11.02L17.72 11.20L18.00 11.20L18.05 11.02Z M12.61 11.06L12.75 11.16L12.84 11.06L13.27 11.06L13.83 11.34L14.06 11.30L14.39 11.06L14.16 11.02L14.02 11.11L13.73 11.11L13.31 10.88L12.80 10.88Z M6.14 10.78L5.44 14.06L5.44 14.91L5.53 15.05L5.72 15.14L12.42 15.14L12.75 14.95L12.89 14.44L13.17 14.44L13.69 14.72L14.02 14.72L14.30 14.58L14.34 14.39L13.73 14.53L13.27 14.25L12.80 14.20L12.75 13.73L12.66 13.55L12.70 13.41L12.89 13.31L13.22 13.31L13.64 13.55L13.97 13.59L14.39 13.31L14.20 13.22L13.97 13.36L13.69 13.36L13.27 13.12L12.84 13.12L12.66 13.27L12.47 12.66L12.14 10.92L11.91 10.64L6.38 10.59Z M5.58 14.62L12.66 14.62L12.66 14.72L12.47 14.91L5.72 14.91Z M6.33 10.88L6.42 10.78L11.81 10.83L11.95 11.02L12.33 12.94L12.52 13.55L12.56 14.06L12.66 14.20L12.47 14.39L5.77 14.39L5.62 14.25L5.62 14.06Z M4.45 8.86L4.27 9.23L4.31 14.53L4.27 16.08L4.31 16.36L4.55 16.69L4.88 16.83L14.48 16.83L14.77 16.73L15.05 16.45L15.14 16.27L15.14 9.23L15.05 9.00L14.81 8.77L14.53 8.67L4.88 8.67Z M4.55 9.09L4.83 8.91L14.58 8.91L14.77 9.00L14.91 9.23L14.91 16.22L14.86 16.31L14.53 16.59L4.88 16.59L4.73 16.55L4.50 16.27L4.50 9.19Z M17.39 8.48L17.34 8.58L17.34 10.41L17.39 10.50L17.48 10.55L19.97 10.55L20.16 10.36L20.11 8.53L20.02 8.48Z M17.62 8.72L17.81 8.67L19.92 8.72L19.92 10.22L19.83 10.31L17.58 10.27Z M3.14 7.12L3.05 7.31L3.05 18.09L3.09 18.23L3.33 18.47L3.61 18.56L3.61 19.36L3.70 19.50L3.84 19.59L4.97 19.59L5.25 19.36L5.30 19.22L5.34 18.56L18.80 18.61L18.80 19.36L19.03 19.59L20.20 19.59L20.39 19.45L20.48 19.31L20.53 18.52L20.86 18.33L21.05 17.95L21.00 14.81L21.05 7.45L20.77 7.03L20.58 6.94L3.47 6.94Z M19.03 18.56L20.30 18.61L20.25 19.27L20.16 19.36L19.08 19.36L18.98 19.27Z M3.84 18.56L5.06 18.61L5.06 19.22L4.92 19.36L3.89 19.36L3.80 19.27Z M16.59 7.17L20.58 7.17L20.81 7.41L20.81 18.00L20.48 18.33L16.55 18.28Z M3.42 7.17L16.31 7.22L16.31 18.23L16.22 18.33L3.52 18.33L3.38 18.23L3.23 18.00L3.23 7.41Z"/></svg>
