<svg xmlns="http://www.w3.org/2000/svg" width="24" height="24" viewBox="0 0 24 24" fill="currentColor" fill-rule="evenodd" aria-hidden="true"><path d="M14.30 12.61L14.30 12.80L14.34 12.89L14.44 12.89L14.58 12.70L14.48 12.61Z M14.72 12.52L15.38 12.47L15.38 12.38L15.00 12.33Z M8.81 12.33L8.86 12.52L9.28 12.52L9.33 12.33Z M13.22 11.67L13.22 12.14L13.45 12.38L13.64 12.28L14.11 12.33L14.25 12.14L14.16 11.67L13.31 11.62Z M13.45 12.05L13.50 11.81L14.02 11.86L14.06 12.00L13.97 12.09Z M14.58 11.25L14.53 11.44L14.72 11.72L14.86 11.77L15.05 11.67L15.19 11.48L15.00 11.20Z M14.77 11.53L14.81 11.39L15.00 11.48L14.91 11.58Z M13.36 11.30L13.41 11.39L13.97 11.34L13.92 11.20Z M9.70 11.25L9.47 11.16L9.09 11.25L9.09 11.62L9.28 11.72L9.56 11.67L9.80 11.39Z M9.23 11.44L9.52 11.44L9.42 11.53Z M4.97 8.06L3.09 10.88L3.05 11.16L3.19 11.34L5.44 12.66L5.72 12.89L5.67 13.22L4.92 15.42L4.83 15.94L4.92 16.03L6.00 15.98L6.09 16.08L6.09 19.41L6.28 19.69L6.47 19.78L17.53 19.78L17.67 19.73L17.91 19.50L18.00 19.27L18.09 15.98L18.52 16.03L19.12 15.98L19.27 15.84L19.17 15.70L19.12 15.38L19.03 15.23L18.38 13.17L18.38 12.84L18.52 12.70L20.72 11.44L20.95 11.25L21.05 11.06L19.08 8.06L18.75 8.02L16.73 9.23L16.59 8.86L16.55 8.30L16.45 8.11L16.31 7.22L16.22 6.98L16.08 6.84L15.84 6.75L13.88 6.70L8.20 6.75L8.02 6.84L7.78 7.17L7.59 8.34L7.45 8.77L7.45 9.05L7.36 9.23L7.27 9.23L5.30 8.02Z M6.38 15.98L9.94 16.03L10.45 15.98L10.88 16.03L17.67 15.98L17.77 16.08L17.72 19.36L17.53 19.55L6.52 19.55L6.33 19.36Z M5.11 15.75L5.44 14.58L5.91 13.27L18.19 13.31L18.94 15.61L18.84 15.80Z M10.78 11.86L12.14 11.86L12.23 11.95L12.23 12.94L12.14 13.03L10.69 12.98L10.69 12.38Z M8.02 12.98L8.62 11.02L8.72 10.83L8.81 10.78L15.38 10.78L15.47 10.83L15.56 11.02L16.12 12.94L16.03 13.03L15.38 12.98L14.86 13.03L14.77 12.94L14.58 13.03L14.06 12.98L14.02 12.84L13.92 12.80L13.27 12.84L13.17 13.03L12.70 13.03L12.42 12.94L12.47 12.80L12.66 12.75L12.61 12.19L12.42 12.14L12.66 12.05L12.61 11.91L12.47 11.91L12.23 11.67L12.14 11.44L11.86 11.58L11.86 11.44L11.72 11.48L11.67 11.62L11.58 11.44L11.44 11.44L11.44 11.58L11.34 11.67L11.25 11.44L10.97 11.62L10.92 11.44L10.83 11.44L10.83 11.58L10.73 11.67L10.59 11.72L10.45 11.91L10.27 11.95L10.31 12.09L10.50 12.14L10.41 12.23L10.27 12.19L10.22 12.70L10.45 12.84L10.41 12.98L10.12 13.03Z M16.92 10.59L18.14 12.84L18.05 13.03L17.25 13.03L17.16 12.94L17.16 12.56L17.06 12.28L16.97 11.20L16.88 10.88Z M7.17 10.55L7.22 10.69L6.89 12.94L6.80 13.03L6.00 13.03L5.95 12.75Z M7.59 9.70L7.64 9.61L8.06 9.56L8.95 9.61L16.36 9.56L16.45 9.61L16.55 9.84L16.73 11.67L16.97 12.94L16.88 13.03L16.45 13.03L16.36 12.94L15.75 10.88L15.42 10.55L8.77 10.55L8.53 10.69L8.39 10.97L7.78 12.94L7.69 13.03L7.12 12.98Z M18.89 8.25L20.77 11.06L20.48 11.30L18.52 12.47L18.23 12.52L16.69 9.56Z M5.20 8.25L7.41 9.56L5.86 12.47L5.72 12.61L5.11 12.19L3.33 11.16L3.28 11.02L4.97 8.48Z M7.64 9.09L8.06 7.12L8.25 6.98L13.83 6.94L14.86 7.03L15.80 6.98L15.98 7.08L16.08 7.22L16.12 7.69L16.22 7.88L16.27 8.34L16.50 9.23L16.36 9.38L11.02 9.28L8.30 9.38L7.64 9.28Z"/></svg>
