<svg xmlns="http://www.w3.org/2000/svg" width="24" height="24" viewBox="0 0 24 24" fill="currentColor" fill-rule="evenodd" aria-hidden="true"><path d="M5.34 15.28L5.44 15.47L8.02 15.47L8.16 15.33L8.06 15.23Z M4.69 14.91L4.55 14.91L3.94 15.56L3.70 15.33L3.52 15.33L3.52 15.47L3.98 15.89L4.73 15.05Z M5.34 13.27L5.39 13.45L8.02 13.45L8.16 13.31L8.06 13.22Z M4.69 12.89L4.55 12.89L3.94 13.55L3.66 13.27L3.52 13.31L3.52 13.45L3.94 13.88L4.73 13.03Z M5.34 11.34L5.48 11.48L8.06 11.44L8.11 11.25L8.02 11.20L5.44 11.20Z M4.69 10.88L4.55 10.88L3.94 11.53L3.70 11.30L3.52 11.30L3.52 11.44L3.98 11.86L4.73 11.02Z M5.72 7.83L5.58 7.97L5.58 8.25L5.72 8.39L5.91 8.39L6.09 8.20L6.09 8.02L5.91 7.83Z M2.39 8.77L2.30 8.95L2.34 9.56L2.30 17.39L2.39 17.62L2.53 17.77L2.72 17.86L5.72 17.91L5.72 18.19L5.62 18.28L5.30 18.33L5.30 19.17L5.53 19.36L9.94 19.31L20.58 19.36L20.72 19.31L20.91 19.12L20.95 18.47L20.81 18.28L20.53 18.28L20.44 18.14L20.53 17.11L20.77 17.11L20.91 16.97L20.91 16.12L20.72 15.98L19.41 15.89L19.45 12.00L19.41 11.91L19.12 11.72L17.06 11.67L17.06 7.73L16.88 7.50L16.78 7.45L11.39 7.45L11.30 7.50L11.11 7.78L11.16 11.48L11.02 11.72L9.38 11.67L9.38 9.00L9.33 8.86L9.00 8.58L8.58 8.53L7.88 8.58L7.55 8.25L6.75 8.20L6.66 8.25L6.52 7.64L6.23 7.36L6.05 7.27L5.62 7.27L5.39 7.36L5.20 7.55L5.06 7.83L5.02 8.20L4.08 8.25L3.75 8.58L2.62 8.58Z M5.53 19.08L5.58 18.52L20.72 18.56L20.72 18.98L20.62 19.08L19.83 19.12L18.70 19.08Z M5.95 18.23L6.00 17.86L7.50 17.86L7.59 17.95L7.59 18.19L7.50 18.28Z M18.66 17.11L20.25 17.16L20.25 18.19L20.16 18.28L18.61 18.23Z M14.48 17.11L18.42 17.16L18.42 18.14L18.28 18.28L14.44 18.23Z M11.95 17.20L12.00 17.11L14.25 17.16L14.20 17.25L14.25 17.58L14.20 18.19L14.11 18.28L11.95 18.23Z M7.83 18.23L7.88 17.86L8.91 17.86L9.09 17.77L9.28 17.58L9.42 17.11L11.72 17.16L11.77 18.14L11.62 18.28Z M9.38 16.83L9.42 16.22L20.72 16.27L20.72 16.78L20.62 16.88Z M16.31 11.95L17.11 12.00L17.11 12.98L17.02 13.08L16.31 13.08L16.22 12.94Z M14.11 12.05L14.20 11.95L15.98 12.00L15.98 13.22L16.08 13.31L17.20 13.31L17.34 13.17L17.39 11.95L19.08 11.95L19.17 12.00L19.22 15.84L19.08 15.98L14.20 15.98L14.11 15.89Z M10.97 11.95L11.77 12.00L11.77 12.98L11.67 13.08L10.92 13.03Z M9.42 11.95L10.69 12.00L10.73 13.31L11.91 13.31L12.00 13.22L12.05 11.95L13.78 11.95L13.92 12.09L13.88 14.86L13.92 15.80L13.78 15.98L9.38 15.94Z M2.67 8.81L3.84 8.86L3.84 9.42L4.03 9.61L7.59 9.61L7.83 9.38L7.88 8.81L8.95 8.81L9.09 8.91L9.14 9.00L9.14 17.34L8.91 17.62L8.44 17.67L2.81 17.67L2.58 17.48L2.53 17.39L2.53 9.00Z M13.78 7.69L14.58 7.73L14.58 8.72L14.48 8.81L13.73 8.77Z M11.34 7.78L11.44 7.69L13.50 7.73L13.50 8.95L13.55 9.05L14.72 9.05L14.81 8.95L14.86 7.69L16.73 7.69L16.88 7.83L16.88 11.53L16.73 11.72L14.11 11.77L11.44 11.72L11.34 11.62Z M4.08 8.58L4.17 8.48L4.78 8.44L5.11 8.48L5.30 8.34L5.30 7.92L5.39 7.69L5.62 7.50L6.00 7.50L6.33 7.83L6.42 8.44L6.52 8.48L7.50 8.48L7.59 8.58L7.59 9.28L7.50 9.38L4.41 9.42L4.08 9.33Z"/></svg>
