<svg xmlns="http://www.w3.org/2000/svg" width="24" height="24" viewBox="0 0 24 24" fill="currentColor" fill-rule="evenodd" aria-hidden="true"><path d="M15.89 19.55L15.89 19.64L15.98 19.69L17.39 19.69L17.48 19.59L17.39 19.50Z M13.50 17.62L13.55 17.81L13.69 17.86L13.69 18.23L13.55 18.33L13.59 18.52L14.58 18.47L14.48 18.28L14.53 17.81L14.67 17.72L14.44 17.44L14.30 17.44L14.06 17.67L13.83 17.44L13.69 17.44Z M13.92 17.81L14.25 17.86L14.30 18.23L14.20 18.33L13.88 18.28Z M8.72 17.62L8.72 17.81L8.91 17.86L8.91 18.23L8.77 18.33L8.77 18.52L9.84 18.47L9.80 18.33L9.70 18.28L9.75 17.81L9.94 17.72L9.66 17.44L9.56 17.44L9.28 17.72L9.09 17.48L8.91 17.44Z M9.14 17.81L9.52 17.86L9.52 18.23L9.42 18.33L9.09 18.28Z M19.73 15.38L19.59 15.38L18.23 16.83L17.48 16.12L17.39 16.31L18.23 17.16L19.69 15.61Z M13.64 13.69L13.45 13.88L13.50 14.06L13.64 14.11L13.64 14.44L13.55 14.53L13.59 14.77L14.39 14.72L14.44 14.58L14.34 14.48L14.39 14.06L14.53 13.92L14.34 13.69L14.20 13.69L13.97 13.92L13.78 13.69Z M13.88 14.06L14.16 14.11L14.16 14.44L14.06 14.53L13.83 14.48Z M9.56 13.69L9.38 13.88L9.38 14.06L9.52 14.11L9.52 14.48L9.42 14.58L9.42 14.72L9.98 14.77L10.08 14.72L10.22 14.06L10.36 13.92L10.17 13.73L10.03 13.73L9.89 13.92L9.66 13.69Z M9.80 14.06L10.03 14.16L10.03 14.44L9.94 14.53L9.75 14.48Z M6.70 11.48L6.66 11.58L6.66 14.95L6.56 15.05L5.95 15.05L5.72 15.28L5.72 18.70L5.62 18.80L5.39 18.84L5.34 18.94L5.34 19.59L5.53 19.73L15.52 19.73L15.75 19.55L15.75 19.03L15.56 18.80L15.38 18.75L15.38 15.33L15.09 15.05L15.05 14.91L15.09 14.81L15.05 11.81L15.09 11.72L14.95 11.44L14.77 11.34L10.97 11.39L7.08 11.34Z M5.58 19.45L5.62 19.03L15.52 19.08L15.52 19.41L15.42 19.50Z M12.66 15.28L13.31 15.33L13.31 16.03L13.22 16.12L12.61 16.08Z M10.69 15.28L12.38 15.33L12.42 16.36L13.41 16.36L13.55 16.22L13.59 15.28L15.05 15.28L15.14 15.38L15.14 18.66L15.00 18.80L10.73 18.80L10.64 18.70Z M7.78 15.28L8.44 15.33L8.44 16.03L8.34 16.12L7.73 16.08Z M6.00 15.28L7.50 15.33L7.50 16.27L7.59 16.36L8.58 16.36L8.67 16.27L8.72 15.28L10.41 15.33L10.41 18.66L10.27 18.80L5.95 18.75Z M12.61 11.58L13.31 11.62L13.31 12.33L13.22 12.42L12.56 12.38Z M10.97 11.67L11.06 11.58L12.33 11.62L12.33 12.56L12.42 12.66L13.41 12.66L13.50 12.56L13.55 11.58L14.72 11.58L14.86 11.72L14.86 14.86L14.67 15.05L11.11 15.05L10.97 14.91Z M8.53 11.58L9.19 11.62L9.19 12.33L9.09 12.42L8.48 12.38Z M6.94 11.58L8.25 11.62L8.30 12.66L9.28 12.66L9.38 12.61L9.47 11.58L10.64 11.58L10.73 11.67L10.73 14.91L10.55 15.09L6.98 15.05L6.89 14.95Z M6.09 8.58L6.09 9.38L6.28 9.52L16.08 9.52L16.31 9.33L16.31 8.62L16.12 8.44L6.28 8.44Z M6.33 9.23L6.38 8.67L16.08 8.72L16.08 9.19L15.98 9.28Z M2.44 8.77L2.39 8.86L2.39 10.41L2.62 10.64L2.86 10.69L2.81 16.50L2.86 19.41L2.77 19.50L2.25 19.50L2.30 19.73L5.02 19.69L5.06 19.50L4.59 19.45L4.64 10.59L17.95 10.64L17.95 13.83L17.86 13.92L17.34 14.11L17.02 14.34L16.55 14.91L16.36 15.28L16.22 15.84L16.27 16.78L16.55 17.48L16.88 17.91L17.34 18.28L17.95 18.56L17.95 19.41L17.81 19.50L17.81 19.64L18.05 19.73L20.25 19.73L20.39 19.59L20.30 19.50L19.83 19.45L19.83 18.28L20.44 17.72L20.81 17.06L20.95 16.59L20.95 15.75L20.81 15.28L20.48 14.72L20.06 14.30L19.88 14.20L19.83 8.67L19.59 8.39L17.06 7.55L14.53 6.61L14.11 6.52L11.58 5.58L10.88 5.53L5.81 7.41L5.20 7.69L2.67 8.58Z M19.59 18.47L19.59 19.41L19.50 19.50L18.19 19.45L18.23 18.61L18.98 18.61L19.45 18.42Z M18.38 14.02L19.08 14.06L19.92 14.48L20.25 14.81L20.53 15.23L20.72 15.84L20.67 16.78L20.39 17.39L19.73 18.05L19.41 18.23L18.94 18.38L18.00 18.33L17.39 18.05L16.97 17.67L16.69 17.25L16.50 16.78L16.45 16.45L16.50 15.61L16.83 14.91L17.06 14.62L17.67 14.20Z M19.59 8.72L19.55 13.97L18.84 13.78L18.19 13.78L18.19 10.59L18.00 10.36L4.50 10.36L4.31 10.64L4.36 19.36L4.22 19.50L3.09 19.45L3.09 10.50L3.00 10.41L2.72 10.41L2.62 10.31L2.62 8.95L2.67 8.86L11.06 5.72L11.67 5.86L15.94 7.41L18.09 8.11L18.61 8.34L19.41 8.58Z"/></svg>
