<svg xmlns="http://www.w3.org/2000/svg" width="24" height="24" viewBox="0 0 24 24" fill="currentColor" fill-rule="evenodd" aria-hidden="true"><path d="M13.17 14.02L13.27 14.11L13.55 14.11L14.06 13.92L14.91 13.83L15.94 13.83L16.73 13.92L16.97 14.06L17.25 14.06L17.39 13.88L17.39 13.73L17.06 13.55L16.78 13.55L16.22 13.41L14.81 13.36L13.88 13.50L13.27 13.69L13.17 13.78Z M6.52 13.73L6.56 14.02L6.84 14.06L7.22 13.92L8.06 13.83L9.56 13.88L10.64 14.16L10.78 14.02L10.64 13.73L9.33 13.36L8.02 13.36L7.73 13.45L6.89 13.55L6.56 13.64Z M6.56 12.19L6.61 12.52L6.89 12.52L7.73 12.33L9.05 12.33L9.47 12.47L10.08 12.52L10.55 12.70L10.73 12.56L10.69 12.23L10.41 12.19L10.27 12.09L9.75 12.05L9.23 11.91L7.50 11.91L7.08 12.05L6.66 12.09Z M13.17 12.28L13.17 12.47L13.31 12.61L13.45 12.61L13.69 12.47L15.19 12.28L16.50 12.38L16.97 12.52L17.20 12.52L17.34 12.38L17.34 12.19L17.25 12.09L16.50 11.91L15.84 11.86L14.25 11.91L13.88 12.05L13.31 12.14Z M13.17 11.06L13.31 11.20L13.41 11.20L13.64 11.06L14.62 10.88L16.17 10.88L17.06 11.06L17.30 10.88L17.30 10.73L17.11 10.59L16.36 10.45L15.66 10.41L14.34 10.45L13.55 10.64L13.22 10.78Z M6.66 10.73L6.70 11.06L6.80 11.11L7.92 10.88L9.28 10.88L10.17 11.06L10.41 11.20L10.59 11.20L10.73 11.06L10.69 10.83L10.50 10.73L9.66 10.50L9.00 10.41L7.69 10.45L7.17 10.55L6.98 10.64L6.75 10.64Z M6.75 9.23L6.80 9.61L7.22 9.61L7.92 9.47L9.28 9.47L10.12 9.61L10.36 9.75L10.64 9.75L10.73 9.61L10.69 9.38L10.55 9.28L9.70 9.05L9.28 9.00L7.88 9.00L7.41 9.05Z M13.17 9.61L13.45 9.75L13.69 9.61L14.44 9.56L14.67 9.47L15.23 9.42L16.17 9.47L17.11 9.61L17.25 9.47L17.20 9.23L16.73 9.05L15.80 8.95L14.77 8.95L13.41 9.23L13.22 9.33Z M13.17 8.25L13.22 8.34L13.45 8.39L13.78 8.25L14.77 8.06L16.12 8.06L17.02 8.20L17.20 7.97L17.16 7.83L16.97 7.73L16.73 7.73L16.31 7.59L14.58 7.59L13.83 7.73L13.59 7.88L13.22 7.97Z M6.80 7.92L6.80 8.11L6.94 8.25L8.11 8.06L9.38 8.11L9.98 8.20L10.41 8.39L10.59 8.39L10.73 8.25L10.73 8.06L10.55 7.92L9.19 7.59L8.02 7.59L7.22 7.78L6.94 7.78Z M4.41 8.02L4.22 9.94L4.22 10.78L4.08 11.77L3.84 15.89L3.70 16.69L3.75 16.97L4.12 17.30L5.34 17.30L6.75 17.16L8.67 17.11L9.80 16.97L10.73 16.97L10.83 17.06L10.88 17.39L11.30 17.81L11.53 17.91L12.38 17.91L12.61 17.81L13.08 17.34L13.22 16.97L13.36 16.92L14.72 16.97L15.52 17.11L17.16 17.16L18.56 17.30L19.83 17.30L20.16 17.02L20.20 16.41L20.16 16.36L20.02 13.64L19.92 13.12L19.92 12.47L19.73 10.50L19.64 8.20L19.59 8.06L19.41 7.88L18.98 7.64L18.70 7.59L18.56 7.45L18.56 6.94L18.28 6.61L17.25 6.28L16.36 6.14L14.62 6.09L13.08 6.47L12.52 6.70L11.95 7.08L11.62 6.84L10.83 6.47L9.94 6.23L9.05 6.09L7.50 6.14L6.47 6.33L5.58 6.66L5.44 6.80L5.34 7.03L5.34 7.45L4.69 7.78Z M4.83 8.34L4.97 8.20L5.20 8.11L5.30 8.20L5.30 8.95L5.11 10.78L5.11 11.77L5.02 12.19L4.88 14.95L4.78 15.61L4.83 16.22L5.06 16.27L6.28 15.89L6.56 15.89L7.22 15.70L8.16 15.61L9.00 15.61L10.03 15.70L10.59 15.84L11.20 16.08L11.62 16.41L12.09 16.50L12.38 16.27L13.22 15.89L13.97 15.70L14.48 15.66L16.45 15.70L17.86 16.03L18.09 16.03L18.75 16.27L18.98 16.27L19.12 16.12L19.17 15.89L19.08 13.97L18.66 8.77L18.70 8.11L18.98 8.20L19.12 8.39L19.22 9.38L19.27 11.02L19.41 12.28L19.45 13.73L19.59 14.72L19.69 16.69L19.55 16.83L17.48 16.73L16.55 16.59L13.17 16.45L12.80 16.64L12.61 17.20L12.28 17.44L11.53 17.39L11.30 17.16L11.30 16.88L11.20 16.59L10.92 16.45L10.17 16.50L9.66 16.45L9.23 16.55L7.45 16.59L7.08 16.69L4.36 16.83L4.27 16.73L4.27 15.98L4.64 11.95L4.64 11.06L4.78 9.94Z M12.38 7.36L13.17 6.94L13.78 6.75L14.62 6.61L16.17 6.61L16.55 6.70L16.92 6.70L17.81 6.94L18.09 7.12L18.38 11.81L18.52 13.08L18.52 14.02L18.66 15.56L18.56 15.66L17.53 15.47L17.16 15.33L16.50 15.28L15.84 15.14L14.30 15.14L13.83 15.28L13.36 15.33L12.28 15.75L12.19 15.66L12.23 7.50Z M5.95 6.98L7.03 6.70L8.30 6.56L9.23 6.61L9.89 6.70L10.73 6.94L11.39 7.27L11.72 7.55L11.77 8.25L11.77 10.12L11.72 10.17L11.77 15.66L11.58 15.80L11.16 15.52L9.47 15.14L7.73 15.14L6.56 15.33L6.28 15.47L5.81 15.52L5.53 15.66L5.39 15.66L5.30 15.56L5.39 13.73L5.53 12.61L5.53 11.72L5.67 10.64L5.72 8.81L5.86 8.02L5.86 7.08Z"/></svg>
