<svg xmlns="http://www.w3.org/2000/svg" width="24" height="24" viewBox="0 0 24 24" fill="currentColor" fill-rule="evenodd" aria-hidden="true"><path d="M8.11 14.91L8.11 15.84L8.25 16.03L10.50 16.03L10.64 15.89L10.64 14.86L10.55 14.77L8.16 14.81Z M8.34 15.14L8.39 15.00L8.58 15.05L10.22 15.00L10.36 15.05L10.36 15.70L10.27 15.80L10.17 15.75L8.44 15.80L8.34 15.70Z M4.97 14.86L4.97 15.89L5.02 15.98L7.36 16.03L7.50 15.89L7.50 14.86L7.41 14.77L5.06 14.77Z M5.30 15.05L7.27 15.09L7.27 15.66L7.17 15.75L6.80 15.80L5.48 15.75L5.34 15.80L5.25 15.70Z M15.14 12.80L14.48 13.03L14.20 13.22L13.78 13.69L13.55 14.20L13.50 15.14L13.73 15.80L14.02 16.17L14.30 16.41L15.00 16.73L15.75 16.78L16.36 16.59L17.02 16.08L17.25 15.75L17.44 15.33L17.48 14.53L17.44 14.25L17.16 13.69L16.59 13.12L15.80 12.80Z M15.80 14.91L17.20 14.95L17.16 15.33L16.97 15.70L16.69 16.03L15.75 15.00Z M15.66 13.08L16.12 13.17L16.78 13.64L17.16 14.30L17.20 14.58L17.11 14.67L16.03 14.67L15.61 14.58Z M14.95 13.12L15.19 13.08L15.33 13.12L15.33 14.86L16.45 16.17L16.12 16.41L15.80 16.50L14.91 16.45L14.30 16.08L14.02 15.75L13.83 15.38L13.73 14.62L13.92 13.97L14.34 13.45Z M11.81 12.05L12.14 12.33L12.42 12.33L12.80 11.95L12.75 11.62L13.59 10.92L14.11 10.97L14.30 10.88L14.95 11.39L15.00 11.86L15.09 12.00L15.28 12.14L15.52 12.19L15.94 11.86L15.98 11.39L16.59 10.88L16.83 10.97L17.06 10.97L17.30 10.83L17.48 10.55L17.48 10.31L17.39 10.12L17.16 9.98L16.73 9.98L16.50 10.22L16.45 10.41L16.50 10.59L15.80 11.20L15.38 11.16L15.19 11.25L14.44 10.64L14.44 10.31L14.25 10.08L13.88 9.98L13.55 10.17L13.45 10.41L13.50 10.64L12.61 11.39L12.09 11.34L11.81 11.58Z M12.23 11.58L12.42 11.62L12.56 11.81L12.28 12.09L12.05 11.91L12.09 11.67Z M15.38 11.44L15.56 11.44L15.70 11.67L15.52 11.91L15.42 11.91L15.23 11.72L15.23 11.58Z M13.83 10.27L14.06 10.27L14.20 10.41L14.20 10.55L14.06 10.69L13.78 10.64L13.73 10.36Z M16.88 10.22L17.06 10.22L17.20 10.36L17.20 10.50L17.02 10.69L16.88 10.69L16.73 10.50Z M10.59 10.08L10.41 9.94L9.61 9.98L9.61 13.50L9.52 13.59L9.14 13.64L9.05 13.55L9.09 12.23L9.00 11.53L8.11 11.58L8.11 13.50L8.02 13.59L7.59 13.59L7.50 13.45L7.55 10.36L7.41 10.22L6.70 10.22L6.61 10.27L6.56 13.50L6.47 13.59L6.05 13.55L6.05 11.91L5.95 11.86L5.06 11.91L5.06 13.55L4.97 13.64L5.02 13.83L5.11 13.88L10.50 13.88L10.64 13.73L10.55 13.55Z M5.39 12.09L5.72 12.09L5.81 12.19L5.77 13.50L5.67 13.59L5.34 13.55Z M8.39 11.77L8.81 11.81L8.81 13.50L8.72 13.59L8.34 13.50L8.34 11.86Z M6.89 10.50L7.27 10.55L7.27 13.50L7.17 13.59L6.84 13.55Z M9.94 10.22L10.31 10.27L10.31 13.50L10.22 13.59L9.89 13.55Z M4.92 9.09L4.92 9.28L5.02 9.38L7.12 9.38L7.22 9.33L7.22 9.09Z M8.16 8.30L8.02 8.16L4.92 8.20L4.97 8.44L7.92 8.48Z M18.33 5.02L18.33 6.84L18.42 6.94L19.55 6.94L19.69 6.75L19.59 6.66L18.66 6.66L18.56 6.56L18.56 5.06L18.47 4.97Z M20.86 5.16L20.30 4.55L19.64 4.12L18.80 3.89L18.05 3.89L17.11 4.17L16.50 4.59L15.89 5.39L15.66 6.05L15.38 6.14L3.47 6.09L3.14 6.14L2.91 6.28L2.62 6.70L2.62 18.38L2.72 18.56L3.05 18.89L3.28 18.98L9.47 19.03L9.33 20.44L9.23 20.53L7.69 20.53L7.45 20.67L7.36 20.81L7.36 21.23L7.69 21.56L15.19 21.56L15.42 21.42L15.61 21.14L15.61 20.91L15.52 20.72L15.28 20.53L13.64 20.48L13.45 19.17L13.50 18.98L19.64 18.98L19.88 18.89L20.11 18.70L20.34 18.23L20.34 8.91L20.53 8.77L21.00 8.11L21.14 7.83L21.33 7.12L21.28 6.09L21.14 5.67Z M7.59 20.91L7.69 20.81L15.23 20.81L15.33 20.91L15.33 21.14L15.19 21.28L7.73 21.28L7.59 21.14Z M9.80 18.98L13.12 18.98L13.22 19.08L13.22 19.45L13.31 19.69L13.31 20.06L13.41 20.44L13.31 20.53L9.56 20.48L9.70 19.64L9.70 19.27Z M3.94 7.45L15.61 7.45L15.70 7.55L15.80 7.92L16.08 8.44L16.64 9.05L17.06 9.33L17.95 9.66L18.52 9.70L18.98 9.61L19.08 9.70L19.08 16.97L18.94 17.11L4.36 17.11L3.89 17.02Z M2.95 6.61L3.28 6.38L15.61 6.42L15.61 7.08L15.52 7.17L11.20 7.22L3.84 7.17L3.66 7.31L3.61 8.20L3.66 11.20L3.61 17.16L3.75 17.34L3.89 17.39L19.12 17.34L19.31 17.16L19.36 9.52L20.11 9.23L20.11 18.14L19.97 18.47L19.55 18.75L3.33 18.75L2.95 18.47L2.86 18.23L2.86 6.80Z M18.05 4.17L19.08 4.22L20.11 4.73L20.62 5.30L20.86 5.72L21.05 6.33L21.05 7.12L20.95 7.55L20.53 8.34L19.97 8.91L19.69 9.09L19.12 9.33L18.66 9.42L18.19 9.42L17.67 9.33L17.25 9.14L16.78 8.81L16.41 8.44L16.17 8.06L15.94 7.50L15.84 6.98L15.84 6.47L15.94 6.00L16.36 5.16L17.02 4.55L17.48 4.31Z"/></svg>
