<svg xmlns="http://www.w3.org/2000/svg" width="24" height="24" viewBox="0 0 24 24" fill="currentColor" fill-rule="evenodd" aria-hidden="true"><path d="M16.36 19.64L16.64 19.92L17.06 19.92L17.25 19.83L17.39 19.59L17.30 19.45L17.06 19.36L16.64 19.36L16.50 19.41Z M16.69 19.55L16.92 19.55L17.11 19.64L17.02 19.73L16.78 19.73L16.69 19.69Z M4.69 19.73L4.97 19.92L5.34 19.92L5.62 19.73L5.67 19.55L5.53 19.41L4.92 19.36L4.73 19.45Z M4.97 19.64L5.02 19.55L5.20 19.55L5.39 19.64L5.25 19.73L5.06 19.73Z M7.78 19.27L7.83 19.78L9.19 19.78L9.33 19.59L9.28 19.22L7.83 19.17Z M8.02 19.55L8.06 19.36L9.09 19.41L9.00 19.59Z M11.34 18.66L11.39 18.84L11.62 18.84L11.77 18.70Z M11.34 18.19L11.39 18.38L12.00 18.38L12.05 18.19Z M14.95 17.86L15.09 18.42L15.23 18.56L15.42 18.61L15.47 18.75L15.56 18.75L15.66 18.61L16.12 18.56L16.22 18.75L16.31 18.80L16.45 18.56L16.64 18.42L16.59 18.19L16.50 18.09L16.50 17.91L16.36 17.77L15.05 17.77Z M15.23 18.05L15.28 17.95L16.22 17.95L16.36 18.23L16.27 18.33L15.33 18.28Z M5.11 18.09L5.39 18.28L5.86 18.28L6.19 17.95L6.05 17.77L5.34 17.72L5.11 17.86Z M5.34 18.00L5.44 17.91L5.91 17.95L5.67 18.09Z M10.50 18.05L10.55 18.23L10.88 18.28L10.78 18.38L10.50 18.38L10.50 18.52L10.88 18.61L10.78 18.70L10.50 18.70L10.55 18.89L10.88 18.94L10.78 19.03L10.50 19.08L10.55 19.22L10.83 19.22L10.92 19.36L11.20 19.45L11.30 19.73L11.39 19.64L11.44 19.41L11.67 19.45L11.67 19.64L11.77 19.73L11.91 19.41L12.05 19.41L12.23 19.73L12.33 19.64L12.38 19.41L12.56 19.50L12.66 19.73L12.80 19.45L13.03 19.50L13.12 19.73L13.22 19.64L13.27 19.41L13.41 19.41L13.55 19.27L13.78 19.27L13.88 19.17L13.83 19.03L13.59 18.89L13.73 18.89L13.78 18.70L13.50 18.56L13.69 18.56L13.73 18.38L13.50 18.38L13.41 18.28L13.73 18.19L13.69 18.05L13.36 18.00L13.31 17.86L13.03 17.72L13.03 17.62L12.84 17.62L12.75 17.77L12.61 17.72L12.52 17.58L12.42 17.58L12.42 17.67L12.23 17.77L12.14 17.62L12.00 17.58L12.00 17.67L11.86 17.81L11.77 17.67L11.58 17.62L11.48 17.77L11.34 17.72L11.25 17.58L11.16 17.58L11.16 17.67L10.88 17.86L10.73 18.05Z M11.11 18.00L13.17 18.05L13.31 19.08L13.22 19.17L11.11 19.12L11.06 18.52Z M7.03 13.97L6.89 13.97L6.80 14.06L6.66 14.44L6.70 14.86L7.03 15.47L7.03 15.75L6.80 16.12L6.80 16.22L6.94 16.31L7.12 16.08L7.27 15.70L7.22 15.28L6.89 14.72L6.89 14.39Z M6.00 13.41L5.91 13.41L5.77 13.55L5.62 13.88L5.62 14.30L6.05 15.14L5.95 15.52L5.81 15.66L5.86 15.84L6.05 15.75L6.23 15.42L6.19 14.81L5.86 14.25L5.86 13.88L6.05 13.55Z M20.95 5.86L20.72 5.62L20.11 5.30L19.73 5.20L19.12 5.20L18.80 5.30L18.23 5.62L17.44 6.42L17.06 6.28L16.59 6.42L12.94 10.36L12.80 10.31L12.52 10.41L12.05 10.88L11.91 11.11L11.91 11.25L12.05 11.53L11.91 11.81L11.91 12.00L12.00 12.09L9.52 14.77L9.38 15.00L9.47 15.19L8.77 15.94L8.58 16.45L8.20 16.97L6.75 16.83L5.02 16.83L4.64 17.02L3.14 20.20L3.19 21.09L3.47 21.33L18.42 21.33L18.61 21.23L18.84 20.95L18.84 20.25L17.34 17.06L16.92 16.83L14.58 16.88L9.33 16.83L9.09 16.92L9.09 17.02L9.19 17.11L16.97 17.11L17.16 17.25L18.56 20.25L18.42 20.39L3.42 20.34L3.42 20.20L4.59 17.67L4.92 17.11L8.16 17.06L8.25 17.16L8.25 17.67L7.88 17.91L7.92 18.19L8.16 18.33L8.72 18.33L8.95 18.23L9.09 18.05L9.09 17.91L8.77 17.72L8.72 17.02L9.23 16.50L9.33 16.50L9.94 15.75L10.08 15.70L10.17 15.75L12.70 12.98L12.84 12.89L13.08 13.03L13.31 12.84L13.92 12.98L14.44 12.52L14.67 12.14L14.62 11.77L18.14 7.92L18.28 7.64L18.28 7.31L18.05 6.84L18.61 6.23L19.17 5.95L19.73 5.95L20.11 6.09L20.48 6.42L20.67 6.33L20.67 6.23L20.53 6.09L19.78 5.72L19.12 5.72L18.66 5.91L17.86 6.70L17.72 6.52L17.91 6.28L18.52 5.72L18.89 5.53L19.31 5.44L19.64 5.44L20.16 5.58L20.86 6.05Z M3.38 20.95L3.42 20.58L18.52 20.58L18.61 20.67L18.61 20.86L18.38 21.09L3.52 21.09Z M8.20 18.09L8.20 17.95L8.39 17.91L8.81 18.00L8.58 18.14Z M8.95 16.22L9.05 16.36L8.72 16.69L8.67 16.59Z M9.70 15.38L9.84 15.52L9.42 16.03L9.23 16.17L9.09 16.08L9.05 15.98L9.61 15.38Z M12.28 12.23L12.70 12.66L10.36 15.19L10.08 15.42L9.70 15.05L9.70 14.95L12.19 12.23Z M12.47 11.53L12.61 11.53L12.80 11.67L13.45 12.38L13.08 12.70L12.56 12.14L12.23 11.91L12.23 11.77Z M12.70 10.59L13.03 10.59L13.45 10.83L14.30 11.67L14.44 12.00L14.39 12.14L13.97 12.61L13.64 12.14L12.94 11.48L12.61 11.25L12.47 11.20L12.23 11.25L12.19 11.11Z M17.39 6.66L17.91 7.12L18.00 7.31L17.95 7.73L14.48 11.53L14.30 11.25L13.88 10.83L13.31 10.50L13.27 10.41L16.78 6.61L17.16 6.56Z"/></svg>
