<svg xmlns="http://www.w3.org/2000/svg" width="24" height="24" viewBox="0 0 24 24" fill="currentColor" fill-rule="evenodd" aria-hidden="true"><path d="M9.19 18.05L9.33 18.33L9.56 18.38L10.64 18.33L10.78 18.19L10.78 18.00L10.64 17.86L9.38 17.86Z M9.19 17.25L9.23 17.34L9.56 17.44L11.48 17.39L11.67 17.25L11.72 17.11L11.62 16.92L11.34 16.88L10.92 16.92L9.47 16.88L9.23 16.92Z M8.34 16.36L8.02 16.41L7.27 17.11L7.17 17.11L6.94 16.88L6.56 16.92L6.52 17.02L6.52 18.19L6.66 18.38L6.75 18.42L7.97 18.42L8.11 18.38L8.34 18.14L8.39 17.91L8.34 17.53L8.02 17.48L7.69 17.86L7.17 17.86L7.03 17.67L7.08 17.44L7.17 17.44L7.41 17.62L7.83 17.44L8.53 16.69L8.53 16.55Z M18.66 15.52L18.38 15.38L18.23 15.42L16.36 17.34L16.17 17.30L15.42 16.55L15.05 16.59L15.00 16.92L15.56 17.39L16.17 18.05L16.41 18.05L18.61 15.84L18.70 15.66Z M9.23 14.81L9.47 14.95L10.50 14.95L10.78 14.77L10.78 14.58L10.59 14.44L9.38 14.44L9.28 14.48Z M9.19 13.59L9.23 13.83L9.42 13.97L11.39 13.97L11.58 13.92L11.72 13.78L11.72 13.55L11.53 13.41L9.38 13.41L9.23 13.45Z M8.53 12.94L8.39 12.89L8.16 12.94L7.64 13.45L7.50 13.50L7.17 13.36L6.84 13.36L6.56 13.50L6.52 13.59L6.52 14.81L6.66 15.00L6.75 15.05L8.11 15.00L8.30 14.86L8.39 14.67L8.39 14.25L8.34 14.16L8.06 14.06L8.06 13.88L8.62 13.31L8.62 13.03Z M7.03 13.92L7.12 13.92L7.45 14.34L7.55 14.34L7.73 14.16L7.92 14.20L7.92 14.30L7.69 14.48L7.12 14.44L6.98 14.25Z M16.64 12.19L15.84 12.75L15.56 12.80L15.19 12.98L14.72 13.03L14.34 13.17L12.94 13.22L12.84 13.31L12.84 17.06L13.27 18.38L13.97 19.55L14.81 20.39L15.33 20.81L16.59 21.52L16.92 21.52L17.48 21.23L17.62 21.09L17.81 21.05L18.70 20.39L19.59 19.45L20.20 18.52L20.62 17.34L20.72 16.78L20.72 13.55L20.62 13.31L20.44 13.22L19.59 13.22L18.47 12.98L17.34 12.52L16.92 12.19Z M16.73 12.84L16.92 12.89L17.48 13.27L18.09 13.50L18.47 13.55L19.22 13.78L20.02 13.78L20.16 13.92L20.11 16.88L20.02 17.02L19.97 17.48L19.73 18.00L19.73 18.14L19.50 18.61L19.08 19.22L18.38 19.92L17.86 20.34L16.83 20.95L16.69 20.95L15.56 20.30L15.09 19.92L14.34 19.12L13.78 18.19L13.73 17.91L13.55 17.48L13.55 17.20L13.41 16.78L13.45 13.73L14.30 13.73L15.19 13.50L15.42 13.50L15.94 13.31Z M9.19 11.20L9.28 11.53L9.42 11.58L10.55 11.58L10.69 11.53L10.83 11.34L10.83 11.16L10.73 11.06L10.50 11.02L9.89 11.02L9.23 11.11Z M9.23 10.17L9.23 10.50L9.52 10.64L10.78 10.59L12.98 10.64L13.22 10.45L13.22 10.27L13.03 10.08L9.42 10.08Z M8.39 9.56L8.06 9.61L7.41 10.27L7.22 10.36L7.08 10.12L6.94 10.03L6.75 9.98L6.56 10.12L6.52 10.22L6.52 11.39L6.66 11.58L6.80 11.62L8.16 11.58L8.30 11.44L8.39 10.92L8.34 10.73L8.06 10.55L8.06 10.41L8.58 9.94L8.58 9.70Z M7.03 10.88L7.12 10.59L7.41 10.88L7.69 10.73L7.88 10.83L7.59 11.06L7.22 11.06Z M9.80 6.05L9.70 6.38L9.84 6.66L10.03 6.75L10.17 6.70L10.41 6.42L10.36 6.14L10.17 6.00Z M15.42 6.52L15.00 6.38L12.61 6.42L12.47 6.23L12.47 6.09L12.23 5.86L11.30 5.81L11.11 5.67L10.97 5.30L10.59 4.97L10.27 4.88L9.89 4.88L9.52 4.97L9.23 5.20L9.05 5.62L8.86 5.81L7.92 5.81L7.64 6.05L7.64 6.19L7.36 6.42L5.11 6.38L4.69 6.52L4.41 6.75L4.17 7.12L4.17 20.25L4.55 20.81L4.97 21.05L13.50 21.05L13.59 20.95L13.55 20.72L13.22 20.48L5.25 20.53L4.97 20.39L4.73 20.11L4.73 7.31L4.78 7.22L5.11 6.94L7.50 6.94L7.64 7.12L7.59 7.55L7.64 7.69L7.83 7.92L8.02 8.02L11.95 8.02L12.09 7.97L12.42 7.64L12.52 6.94L15.05 6.98L15.28 7.17L15.38 7.36L15.38 11.72L15.47 11.81L15.70 11.81L15.89 11.62L15.94 11.48L15.94 7.36L15.84 6.98Z M8.16 6.47L8.20 6.38L9.33 6.33L9.47 6.19L9.52 5.91L9.75 5.53L10.27 5.48L10.59 5.77L10.59 6.19L10.73 6.33L11.67 6.33L11.91 6.42L11.95 7.27L11.77 7.45L10.41 7.41L8.30 7.45L8.16 7.27L8.20 6.98Z"/></svg>
