<svg xmlns="http://www.w3.org/2000/svg" width="24" height="24" viewBox="0 0 24 24" fill="currentColor" fill-rule="evenodd" aria-hidden="true"><path d="M4.69 19.50L4.64 19.83L4.88 20.02L5.34 20.02L5.62 19.73L5.58 19.55L5.34 19.41L4.88 19.41Z M16.97 19.36L17.02 19.69L17.48 19.92L17.72 19.92L18.00 19.78L18.19 19.50L18.14 19.36L17.95 19.17L17.62 19.08L17.25 19.12L17.06 19.22Z M17.25 19.41L17.72 19.36L17.86 19.50L17.77 19.59L17.44 19.64L17.30 19.59Z M9.80 18.89L9.61 18.75L8.30 18.80L8.20 18.89L8.20 19.59L8.34 19.73L9.61 19.73L9.80 19.55Z M8.48 19.03L9.52 19.08L9.52 19.36L9.42 19.45L8.44 19.41Z M11.95 18.42L12.00 18.61L12.38 18.61L12.42 18.42L12.14 18.38Z M11.95 17.77L12.05 17.95L12.70 17.95L12.80 17.86L12.80 17.72L12.66 17.67L12.28 17.67Z M15.89 16.88L15.80 17.11L15.89 17.25L15.94 17.72L16.08 17.86L16.17 17.86L16.27 18.05L16.41 18.09L16.59 17.86L17.02 17.86L17.16 18.09L17.34 18.00L17.34 17.86L17.53 17.67L17.53 17.53L17.30 16.88L17.20 16.83Z M16.08 17.20L16.12 17.11L17.06 17.11L17.25 17.48L17.16 17.58L16.27 17.58Z M11.02 17.44L11.06 17.67L11.39 17.77L11.25 17.91L11.11 17.86L11.02 17.91L11.02 18.05L11.11 18.14L11.39 18.23L11.30 18.33L11.02 18.33L11.06 18.56L11.39 18.66L11.25 18.80L11.11 18.75L11.02 18.80L11.06 19.03L11.34 19.03L11.53 19.27L11.67 19.31L11.72 19.59L11.86 19.69L12.00 19.55L12.00 19.31L12.23 19.36L12.23 19.59L12.38 19.69L12.47 19.59L12.52 19.31L12.70 19.36L12.70 19.59L12.84 19.69L12.94 19.59L12.98 19.31L13.22 19.36L13.22 19.64L13.36 19.69L13.45 19.59L13.50 19.31L13.73 19.36L13.78 19.64L13.92 19.69L14.02 19.59L14.06 19.27L14.16 19.27L14.39 19.03L14.58 19.03L14.72 18.89L14.67 18.80L14.53 18.75L14.44 18.80L14.34 18.70L14.39 18.56L14.62 18.52L14.67 18.42L14.58 18.33L14.30 18.28L14.34 18.14L14.58 18.09L14.58 17.91L14.34 17.91L14.25 17.81L14.30 17.67L14.48 17.67L14.58 17.58L14.53 17.44L14.25 17.39L14.16 17.16L14.02 17.11L13.88 16.88L13.64 16.92L13.64 17.02L13.45 17.06L13.41 16.88L13.17 16.88L13.17 17.02L12.98 17.06L12.94 16.88L12.84 16.83L12.70 16.88L12.70 17.02L12.52 17.06L12.52 16.92L12.42 16.83L12.23 16.88L12.23 16.97L12.09 17.11L12.00 17.02L12.00 16.88L11.91 16.83L11.72 16.88L11.72 17.02L11.48 17.16L11.30 17.44Z M11.72 17.34L11.86 17.39L13.83 17.34L13.92 17.39L14.02 17.72L14.06 18.94L13.97 19.03L11.86 18.98L11.77 19.03L11.67 18.94Z M5.48 17.06L5.48 17.34L5.67 17.53L5.91 17.62L6.42 17.58L6.75 17.25L6.70 17.02L6.42 16.83L5.77 16.83Z M5.77 17.20L6.00 17.06L6.23 17.06L6.47 17.20L6.23 17.34L6.00 17.34Z M6.70 12.98L6.52 13.08L6.42 13.31L6.42 13.88L6.75 14.58L6.75 14.81L6.56 15.19L6.56 15.42L6.66 15.47L6.94 15.14L7.03 14.81L6.94 14.30L6.66 13.73L6.66 13.41L6.80 13.17Z M5.81 12.33L5.67 12.33L5.53 12.47L5.34 12.98L5.39 13.41L5.72 14.06L5.72 14.39L5.53 14.72L5.53 14.91L5.62 15.00L5.86 14.77L6.00 14.30L5.95 13.88L5.62 13.17L5.67 12.80L5.86 12.52Z M20.91 5.44L20.53 5.11L19.97 4.83L19.83 4.83L19.69 4.73L18.84 4.73L18.05 5.06L17.44 5.62L17.11 5.48L16.59 5.53L16.45 5.62L15.00 7.27L13.12 9.52L12.80 9.52L12.61 9.61L12.09 10.17L12.05 10.45L12.19 10.78L12.00 11.02L12.09 11.34L9.61 14.16L9.66 14.34L8.95 15.09L8.95 15.28L8.81 15.56L8.48 15.98L5.11 15.98L4.78 16.12L4.64 16.27L4.45 16.88L3.23 19.88L3.23 20.02L3.14 20.11L3.14 21.19L3.42 21.52L3.66 21.61L19.27 21.61L19.50 21.52L19.83 21.09L19.83 20.20L18.33 16.31L18.09 16.08L17.86 15.98L9.42 15.98L9.33 16.08L9.38 16.27L17.81 16.27L18.14 16.59L19.22 19.50L19.55 20.25L19.31 20.44L3.61 20.44L3.47 20.34L3.42 20.16L3.66 19.69L3.66 19.55L3.94 18.84L4.12 18.52L4.27 18.00L4.88 16.59L4.88 16.45L5.20 16.27L5.62 16.31L8.34 16.27L8.44 16.36L8.39 17.06L8.02 17.30L7.97 17.67L8.39 17.95L8.95 17.95L9.23 17.81L9.42 17.48L9.19 17.20L9.05 17.16L9.00 16.17L10.03 15.14L10.45 14.95L12.94 12.14L13.12 12.23L13.27 12.23L13.36 12.14L13.59 12.14L13.88 12.28L14.02 12.23L14.44 11.81L14.72 11.39L14.72 11.02L18.05 7.12L18.19 6.75L18.09 6.09L18.42 5.77L18.98 5.53L19.45 5.53L19.73 5.62L20.16 5.86L20.34 6.05L20.53 5.95L20.53 5.86L20.02 5.44L19.45 5.25L19.03 5.25L18.61 5.34L18.28 5.53L17.86 5.95L17.72 5.72L18.28 5.25L18.94 5.02L19.55 5.02L20.06 5.16L20.72 5.62Z M3.42 21.09L3.52 20.67L19.41 20.67L19.55 20.72L19.55 21.05L19.31 21.28L18.80 21.33L3.70 21.33Z M8.30 17.62L8.30 17.44L8.44 17.39L8.58 17.53L8.72 17.53L9.00 17.39L9.09 17.53L8.72 17.72Z M8.72 16.36L8.77 17.16L8.67 17.25L8.62 17.06Z M9.19 15.42L9.28 15.52L8.95 15.89L8.91 15.80Z M9.94 14.58L10.08 14.72L9.47 15.38L9.33 15.23L9.33 15.14L9.75 14.62Z M12.38 11.48L12.80 11.86L10.36 14.62L9.94 14.25L9.94 14.16L10.55 13.55L12.05 11.77Z M12.38 11.02L12.61 10.78L12.70 10.78L13.55 11.58L13.12 11.86L12.38 11.11Z M12.84 9.80L13.08 9.80L13.45 9.98L14.30 10.83L14.44 11.11L14.44 11.34L14.02 11.86L13.50 11.11L12.94 10.59L12.66 10.41L12.52 10.41L12.38 10.55L12.33 10.36L12.66 9.94Z M17.44 5.91L17.86 6.42L17.91 6.56L17.86 6.89L14.91 10.41L14.48 10.69L14.39 10.50L13.78 9.89L13.45 9.66L13.45 9.56L16.59 5.86L16.73 5.77L17.11 5.77Z"/></svg>
