<svg xmlns="http://www.w3.org/2000/svg" width="24" height="24" viewBox="0 0 24 24" fill="currentColor" fill-rule="evenodd" aria-hidden="true"><path d="M5.48 19.83L5.30 19.64L4.92 19.55L4.59 19.64L4.45 19.78L4.45 20.02L4.55 20.16L4.73 20.25L5.06 20.25L5.30 20.16L5.44 20.02Z M5.11 19.92L5.02 20.02L4.88 20.02L4.73 19.92Z M16.97 19.50L16.92 19.83L17.02 19.97L17.48 20.16L17.86 20.06L18.14 19.78L18.09 19.55L17.95 19.41L17.67 19.31L17.25 19.36Z M17.20 19.78L17.25 19.64L17.34 19.59L17.62 19.59L17.81 19.73L17.58 19.88Z M7.88 19.17L7.92 19.50L7.88 19.73L8.06 19.92L9.28 19.92L9.42 19.88L9.61 19.64L9.56 19.08L9.42 18.94L8.06 18.94L7.97 18.98Z M8.16 19.45L8.25 19.22L9.28 19.27L9.28 19.55L9.19 19.64L8.16 19.59Z M11.77 18.52L11.81 18.75L12.09 18.75L12.19 18.66L12.19 18.52Z M11.72 17.91L11.77 18.09L12.52 18.09L12.61 17.95L12.52 17.86Z M15.61 17.06L15.56 17.30L15.70 17.67L15.70 17.86L15.84 18.00L15.98 18.00L16.12 18.23L16.31 18.19L16.36 18.00L16.92 18.05L16.97 18.23L17.06 18.28L17.16 18.23L17.20 18.05L17.39 17.86L17.34 17.48L17.11 17.02L15.70 17.02Z M15.84 17.34L15.89 17.25L16.92 17.25L17.02 17.34L17.06 17.67L16.97 17.77L16.03 17.77L15.94 17.67L15.94 17.48Z M10.78 17.62L10.78 17.81L11.06 17.81L11.16 17.91L11.02 18.05L10.88 18.00L10.78 18.05L10.83 18.28L11.16 18.38L11.06 18.47L10.78 18.52L10.78 18.70L11.16 18.84L10.78 18.98L10.78 19.17L11.11 19.22L11.25 19.41L11.53 19.50L11.53 19.78L11.67 19.88L11.77 19.78L11.81 19.45L11.95 19.45L12.05 19.55L12.05 19.78L12.14 19.88L12.28 19.73L12.33 19.45L12.52 19.50L12.56 19.83L12.75 19.78L12.84 19.45L13.03 19.50L13.03 19.73L13.17 19.88L13.31 19.73L13.36 19.45L13.45 19.45L13.55 19.55L13.59 19.83L13.69 19.88L13.83 19.73L13.88 19.45L13.97 19.45L14.11 19.27L14.39 19.22L14.48 18.98L14.20 18.94L14.16 18.75L14.34 18.75L14.44 18.56L14.34 18.47L14.16 18.52L14.06 18.42L14.11 18.28L14.39 18.23L14.34 18.05L14.11 18.05L14.06 17.86L14.25 17.86L14.34 17.77L14.34 17.62L14.06 17.58L13.92 17.34L13.64 17.20L13.59 17.02L13.36 17.06L13.36 17.16L13.17 17.20L13.12 17.02L12.89 17.02L12.89 17.16L12.80 17.25L12.66 17.20L12.61 17.02L12.42 17.02L12.42 17.16L12.23 17.20L12.19 17.02L11.95 17.06L11.95 17.16L11.77 17.20L11.72 17.02L11.53 17.02L11.39 17.25L11.16 17.34L11.16 17.48L11.06 17.58Z M11.48 17.53L13.73 17.58L13.88 19.08L13.78 19.17L12.80 19.22L12.14 19.17L11.67 19.22L11.44 19.12Z M5.25 17.25L5.30 17.53L5.44 17.67L5.67 17.77L6.23 17.72L6.52 17.44L6.52 17.20L6.28 17.02L6.09 16.97L5.62 16.97L5.34 17.11Z M5.58 17.25L6.00 17.20L6.23 17.34L6.00 17.48L5.67 17.48Z M6.56 13.08L6.33 13.12L6.19 13.50L6.19 13.92L6.52 14.58L6.52 15.09L6.33 15.33L6.33 15.47L6.47 15.56L6.66 15.38L6.80 15.05L6.80 14.53L6.52 14.06L6.42 13.69L6.47 13.41L6.61 13.17Z M5.48 12.38L5.34 12.52L5.16 12.94L5.16 13.36L5.53 14.16L5.48 14.62L5.34 14.81L5.34 15.00L5.44 15.09L5.67 14.86L5.81 14.39L5.77 13.97L5.44 13.31L5.44 12.98L5.67 12.56L5.67 12.42Z M20.81 5.20L19.97 4.69L19.36 4.55L18.52 4.59L17.95 4.83L17.16 5.48L17.06 5.39L16.59 5.34L16.36 5.39L16.12 5.53L12.66 9.56L12.38 9.52L12.19 9.61L11.81 9.98L11.62 10.27L11.62 10.55L11.77 10.78L11.62 10.97L11.67 11.34L9.19 14.20L9.19 14.48L8.48 15.23L8.30 15.75L8.02 16.12L4.97 16.12L4.73 16.22L4.50 16.45L2.95 20.44L2.95 21.38L3.05 21.56L3.23 21.75L3.47 21.84L19.31 21.84L19.50 21.75L19.69 21.56L19.83 21.28L19.83 20.44L19.59 19.97L18.28 16.50L18.09 16.27L17.81 16.12L8.91 16.17L8.95 16.41L17.77 16.41L18.00 16.59L18.19 17.16L19.45 20.30L19.50 20.53L19.31 20.67L3.42 20.67L3.28 20.53L3.28 20.39L4.78 16.55L4.88 16.45L5.02 16.41L7.88 16.41L7.97 16.50L7.97 17.20L7.55 17.53L7.50 17.62L7.55 17.81L7.73 18.00L7.97 18.09L8.53 18.09L8.86 17.91L9.00 17.62L8.86 17.44L8.58 17.30L8.58 16.31L8.62 16.22L9.56 15.28L9.98 15.05L12.52 12.19L12.61 12.19L12.75 12.33L12.84 12.33L13.03 12.14L13.36 12.28L13.64 12.28L14.11 11.81L14.34 11.48L14.39 11.02L14.91 10.50L17.91 6.94L18.00 6.61L17.95 6.33L17.81 6.05L18.00 5.81L18.28 5.58L18.80 5.39L19.36 5.39L19.92 5.62L20.30 5.95L20.44 5.67L20.06 5.39L19.36 5.11L18.80 5.11L18.42 5.20L17.95 5.48L17.62 5.81L17.48 5.67L17.48 5.58L17.95 5.16L18.33 4.97L18.89 4.83L19.31 4.83L19.88 4.97L20.62 5.44L20.72 5.44Z M3.23 21.33L3.33 20.91L19.41 20.91L19.55 20.95L19.55 21.28L19.22 21.56L3.47 21.56Z M7.83 17.72L7.88 17.58L8.02 17.58L8.16 17.67L8.58 17.58L8.67 17.67L8.34 17.86L8.06 17.86Z M8.81 15.66L8.53 15.98L8.48 15.89L8.62 15.61Z M9.47 14.67L9.61 14.86L9.05 15.47L8.91 15.33L8.91 15.23L9.38 14.67Z M11.95 11.53L12.38 11.95L9.89 14.72L9.52 14.34L9.52 14.25L11.81 11.58Z M11.91 11.06L12.19 10.78L12.33 10.78L13.17 11.62L12.98 11.86L12.75 11.95Z M12.42 9.80L12.89 9.89L13.17 10.08L13.78 10.69L14.06 11.11L14.06 11.39L13.64 11.91L13.17 11.20L12.28 10.45L12.09 10.45L11.91 10.55L11.91 10.31Z M17.16 5.77L17.48 6.05L17.67 6.42L17.62 6.84L14.39 10.64L14.20 10.78L13.50 9.98L13.03 9.66L13.03 9.56L16.41 5.67L16.97 5.67Z"/></svg>
