<svg xmlns="http://www.w3.org/2000/svg" width="24" height="24" viewBox="0 0 24 24" fill="currentColor" fill-rule="evenodd" aria-hidden="true"><path d="M8.06 20.81L8.11 21.05L8.02 21.09L8.02 21.23L8.11 21.33L8.39 21.28L8.53 21.09L8.53 20.91L8.44 20.81Z M13.97 20.91L14.02 21.14L14.25 21.33L14.62 21.33L14.91 21.09L14.91 20.91L14.72 20.72L14.16 20.72Z M14.25 21.00L14.34 20.91L14.67 21.00L14.58 21.09L14.34 21.09Z M9.56 20.77L9.70 21.19L9.84 21.28L9.98 21.14L9.98 21.00L10.08 20.91L12.66 20.91L12.84 21.28L12.98 21.23L12.94 20.91L12.98 20.72L13.12 20.67L13.12 20.53L12.94 20.48L12.80 20.25L10.03 20.25L9.89 20.44L9.89 20.62L9.80 20.72Z M10.12 20.62L10.17 20.48L12.70 20.58L12.61 20.67Z M8.30 19.36L8.11 19.64L7.97 20.06L8.02 20.16L8.25 20.34L8.39 20.25L8.62 20.25L8.77 20.39L8.95 20.34L9.19 20.11L9.33 19.45L9.23 19.36Z M8.39 19.64L8.53 19.55L9.00 19.73L9.00 19.83L8.81 20.06L8.34 20.06L8.30 19.88Z M13.31 18.56L13.17 18.75L13.31 19.50L13.45 19.55L13.69 19.78L13.88 19.55L14.06 19.59L14.11 19.73L14.30 19.69L14.30 19.59L14.48 19.36L14.25 18.61Z M13.50 18.80L14.11 18.84L14.11 19.03L14.20 19.22L14.11 19.31L13.50 19.27L13.45 18.98Z M12.00 18.00L11.81 18.00L11.81 18.14L11.72 18.23L11.62 18.00L11.44 18.00L11.34 18.19L11.25 18.05L11.02 18.05L10.83 18.23L10.69 19.22L10.83 19.31L10.92 19.59L11.11 19.45L11.16 19.31L11.30 19.36L11.30 19.50L11.44 19.59L11.67 19.27L11.86 19.59L12.00 19.45L12.05 19.27L12.19 19.17L12.19 18.33L12.05 18.19Z M11.06 18.47L11.86 18.42L11.95 18.52L11.95 18.98L11.86 19.08L10.97 19.03Z M13.69 17.44L13.64 17.53L13.69 17.77L13.92 17.86L14.16 17.77L14.20 17.53L14.06 17.39Z M12.56 17.48L12.56 17.77L12.75 17.91L13.08 17.91L13.27 17.72L13.22 17.44L12.66 17.39Z M11.16 17.44L11.25 17.62L11.91 17.62L12.05 17.48L11.95 17.39Z M9.38 17.44L9.23 17.77L9.28 18.05L9.61 18.14L9.94 18.14L10.12 18.00L10.27 17.67L10.27 17.53L10.08 17.39Z M9.52 17.81L9.56 17.62L9.98 17.72L9.84 17.86Z M19.36 12.33L19.12 12.42L18.98 12.56L18.94 13.03L19.17 13.31L19.55 13.36L19.88 13.08L19.92 12.70L19.69 12.42Z M19.31 12.61L19.55 12.61L19.69 12.80L19.69 12.89L19.45 13.12L19.36 13.12L19.17 12.94L19.17 12.75Z M17.67 12.33L17.39 12.52L17.30 12.94L17.48 13.27L17.67 13.36L18.05 13.31L18.28 13.08L18.38 12.80L18.28 12.56L18.14 12.42L17.91 12.33Z M17.67 12.61L17.95 12.61L18.09 12.75L18.09 12.89L17.86 13.12L17.77 13.12L17.58 12.94L17.58 12.70Z M19.31 11.62L19.36 11.86L19.64 11.91L19.83 11.77L19.78 11.62Z M18.28 11.67L18.33 11.86L18.84 11.86L18.94 11.77L18.89 11.62Z M17.44 11.67L17.53 11.86L17.86 11.86L17.95 11.77L17.91 11.62Z M17.20 9.00L17.16 9.19L17.25 11.11L17.34 11.16L19.92 11.16L20.06 10.97L20.06 9.09L19.92 8.95Z M17.48 9.19L19.83 9.23L19.83 10.83L19.73 10.92L17.44 10.88Z M4.73 4.36L4.59 4.59L4.59 6.75L4.69 6.94L4.88 7.08L4.88 7.31L4.78 7.41L3.42 7.41L3.14 7.64L3.09 7.78L3.09 18.89L3.23 19.17L3.52 19.31L3.56 20.25L3.84 20.48L5.02 20.48L5.30 20.25L5.34 19.31L7.03 19.41L5.95 21.70L6.05 22.03L6.38 22.22L15.94 22.22L16.17 22.12L16.41 21.89L16.41 21.61L15.61 19.45L15.66 19.31L18.66 19.31L18.75 19.41L18.70 20.20L18.89 20.44L18.98 20.48L20.16 20.48L20.48 20.20L20.53 19.27L20.62 19.27L20.91 18.94L20.91 7.73L20.86 7.64L20.58 7.41L5.62 7.41L5.53 7.08L5.86 6.75L5.86 4.59L5.58 4.31Z M19.03 19.31L20.25 19.36L20.25 20.06L20.11 20.20L18.98 20.16Z M3.84 19.31L5.06 19.36L5.06 20.11L4.97 20.20L3.89 20.20L3.80 20.11Z M15.00 17.67L15.05 17.53L20.67 17.58L20.67 18.84L20.39 19.08L19.97 19.03L15.75 19.08L15.47 18.98Z M3.38 18.94L3.42 17.53L7.88 17.58L7.27 18.89L7.12 19.03L6.42 19.08L3.70 19.03L3.56 19.08Z M6.23 21.70L7.12 19.73L7.22 19.64L7.31 19.31L7.78 18.42L7.88 18.09L8.53 16.88L14.39 16.88L14.58 17.11L14.77 17.81L14.86 17.91L14.86 18.05L15.19 18.84L15.42 19.69L16.17 21.75L15.98 21.94L6.38 21.94L6.28 21.89Z M6.70 14.91L6.75 14.77L11.67 14.81L11.67 15.00L11.91 15.19L11.95 15.80L12.09 15.98L12.19 15.98L12.38 15.75L12.47 15.09L12.66 14.95L12.70 14.77L16.17 14.81L16.17 17.20L16.08 17.30L14.86 17.25L14.67 16.78L14.44 16.64L8.48 16.64L8.20 16.83L8.06 17.16L7.92 17.30L7.55 17.25L6.80 17.30L6.70 17.20Z M11.91 14.30L12.47 14.39L12.38 14.67L12.42 14.77L12.33 14.86L12.05 14.91L11.95 14.86L11.95 14.67L11.86 14.48Z M9.00 14.44L9.14 14.25L9.28 14.30L10.69 14.25L11.53 14.30L11.62 14.44L11.53 14.53Z M12.89 13.69L12.98 13.78L12.98 13.92L12.84 14.06Z M11.81 13.69L12.56 13.73L12.56 13.97L12.47 14.06L11.86 14.06L11.77 13.97Z M12.75 12.94L13.17 12.98L13.17 13.31L13.03 13.45L12.89 13.41L12.75 13.45Z M11.91 12.94L12.47 12.98L12.47 13.31L12.33 13.45L11.91 13.45L11.81 13.36Z M11.25 12.89L11.62 12.98L11.62 13.31L11.48 13.45L11.25 13.45L11.16 13.36Z M12.70 14.48L12.84 14.34L13.12 14.25L13.59 14.20L13.64 14.11L13.55 14.02L13.22 13.97L13.27 13.59L13.41 13.45L13.45 12.89L13.59 12.89L13.88 12.61L13.92 12.05L16.17 12.09L16.08 14.20L15.89 14.02L15.56 14.02L15.56 14.16L15.66 14.25L15.80 14.25L15.94 14.53L15.42 14.48L15.28 14.02L15.09 14.02L15.09 14.30L15.19 14.44L15.09 14.53L14.91 14.48L14.81 14.06L14.58 14.06L14.67 14.44L14.58 14.53L14.34 14.48L14.34 14.30L14.20 14.02L14.02 14.02L14.11 14.44L14.02 14.53Z M6.75 12.05L10.41 12.09L10.41 12.56L10.69 12.89L10.83 12.89L10.92 12.98L10.92 13.50L11.02 13.64L11.16 13.69L11.20 13.92L11.11 14.02L9.56 14.06L8.95 14.02L8.81 14.39L8.67 14.53L8.44 14.48L8.53 14.30L8.53 14.02L8.34 14.02L8.30 14.25L8.11 14.53L7.78 14.44L7.97 14.06L7.78 13.97L7.64 14.16L7.59 14.39L7.45 14.53L6.94 14.44L7.36 14.16L7.36 14.02L7.03 14.02L6.75 14.30Z M13.92 11.11L16.17 11.16L16.17 11.67L16.08 11.77L13.88 11.72Z M6.70 11.62L6.75 11.11L10.36 11.11L10.45 11.20L10.41 11.67L10.31 11.77L6.80 11.77Z M10.78 9.75L13.50 9.75L13.64 9.89L13.64 12.42L13.50 12.66L10.78 12.66L10.69 12.56L10.69 9.84Z M16.45 7.64L20.48 7.64L20.67 7.78L20.67 17.20L20.58 17.30L19.41 17.25L16.50 17.30L16.41 17.20L16.45 16.59L16.41 7.83Z M6.70 7.83L6.75 7.73L6.94 7.64L15.98 7.64L16.17 7.78L16.17 10.78L16.08 10.88L13.97 10.88L13.88 10.78L13.88 9.80L13.69 9.56L13.45 9.47L10.78 9.47L10.64 9.52L10.41 9.80L10.41 10.78L10.31 10.88L6.80 10.88L6.70 10.78Z M3.52 7.64L6.52 7.73L6.47 17.16L6.33 17.30L6.14 17.25L3.38 17.25L3.42 7.69Z M5.16 6.98L5.34 7.08L5.34 7.31L5.25 7.41L5.11 7.36Z M4.97 6.19L5.48 6.19L5.58 6.28L5.58 6.66L5.48 6.75L4.88 6.70Z M4.92 5.39L5.58 5.44L5.58 5.86L5.48 5.95L4.88 5.91Z M4.92 4.59L5.58 4.64L5.58 5.06L5.48 5.16L4.88 5.11Z"/></svg>
