<svg xmlns="http://www.w3.org/2000/svg" width="24" height="24" viewBox="0 0 24 24" fill="currentColor" fill-rule="evenodd" aria-hidden="true"><path d="M12.56 16.55L12.61 16.78L12.70 16.83L12.94 16.83L13.08 16.69L12.98 16.50Z M5.30 16.69L5.44 16.83L5.67 16.83L5.86 16.59L5.77 16.50L5.39 16.50Z M10.31 16.50L10.31 16.59L10.41 16.64L10.88 16.59L10.88 16.50L10.73 16.45Z M11.06 16.27L11.06 16.41L11.48 16.45L11.48 16.64L11.67 16.55L11.67 16.41L11.53 16.27Z M19.50 16.22L19.31 16.36L19.31 16.69L19.45 16.88L19.69 16.92L19.97 16.69L20.02 16.50L19.92 16.31L19.78 16.22Z M19.73 16.41L19.83 16.55L19.59 16.73L19.50 16.64L19.50 16.45Z M18.14 16.22L17.95 16.41L17.95 16.69L18.09 16.88L18.38 16.92L18.61 16.73L18.66 16.41L18.42 16.22Z M18.19 16.41L18.38 16.41L18.47 16.50L18.47 16.59L18.33 16.73L18.19 16.69L18.14 16.59Z M6.42 16.22L6.47 16.45L6.89 16.41L6.94 16.31L6.89 16.17Z M11.72 15.70L11.72 15.89L11.86 16.08L12.05 16.12L12.19 16.03L12.52 16.12L12.66 15.98L12.61 15.80L12.47 15.66Z M11.91 15.89L11.95 15.80L12.47 15.84L12.38 15.94Z M7.31 16.45L7.36 16.59L7.59 16.59L7.83 16.73L7.83 16.83L7.97 16.78L8.02 16.69L8.16 16.69L8.25 16.83L8.44 16.69L8.53 16.83L8.67 16.69L8.81 16.73L8.81 16.83L9.05 16.69L9.14 16.83L9.28 16.69L9.42 16.78L9.56 16.78L9.80 16.59L10.08 16.59L10.17 16.50L10.03 16.27L9.80 16.22L9.98 16.08L9.75 16.03L9.98 15.94L9.42 15.66L9.19 15.75L9.09 15.66L8.95 15.66L8.86 15.75L8.77 15.66L8.53 15.75L8.48 15.66L8.34 15.66L8.20 15.75L8.11 15.66L7.97 15.66L7.59 15.98L7.69 16.03L7.45 16.08L7.50 16.17L7.64 16.22L7.41 16.27L7.45 16.41Z M7.78 16.36L7.97 15.89L9.56 15.94L9.66 16.45L9.56 16.55L7.78 16.50Z M5.72 15.89L5.91 16.03L6.05 16.03L6.33 15.84L6.28 15.70L6.19 15.66L5.86 15.66L5.77 15.70Z M18.00 15.47L18.05 15.66L18.14 15.70L18.33 15.70L18.52 15.56L18.52 15.42Z M19.41 15.42L19.41 15.56L19.50 15.66L19.73 15.70L19.92 15.56L19.83 15.38Z M4.50 16.83L4.50 17.06L4.64 17.20L13.78 17.20L13.97 17.06L13.92 16.78L13.12 15.47L12.94 15.33L5.53 15.33L5.30 15.52Z M4.69 16.88L5.48 15.56L5.67 15.47L12.75 15.47L13.03 15.66L13.55 16.59L13.69 16.73L13.73 17.02L4.69 16.97Z M14.20 13.69L14.30 13.78L15.75 13.78L15.80 13.59L14.20 13.59Z M12.14 13.59L12.19 13.78L13.64 13.78L13.73 13.69L13.73 13.59Z M9.98 13.69L10.08 13.78L11.53 13.78L11.62 13.73L11.62 13.59Z M7.92 13.59L7.97 13.78L9.42 13.78L9.52 13.69L9.52 13.59Z M5.81 13.69L5.86 13.78L7.36 13.78L7.41 13.59Z M3.70 13.69L3.80 13.78L5.25 13.78L5.34 13.59Z M17.77 13.22L17.77 14.67L17.86 14.77L20.02 14.77L20.16 14.62L20.16 13.27L20.06 13.17Z M18.00 13.36L19.97 13.41L19.97 14.48L19.88 14.58L17.95 14.53Z M11.30 8.30L11.11 8.30L10.97 8.58L10.97 9.00L11.34 9.56L11.34 9.80L11.06 10.17L11.06 10.31L11.16 10.36L11.53 9.80L11.53 9.52L11.11 8.81Z M9.28 8.30L9.09 8.58L9.09 8.95L9.47 9.52L9.47 9.84L9.23 10.12L9.28 10.36L9.56 10.03L9.70 9.66L9.61 9.38L9.28 8.91L9.28 8.62L9.47 8.34Z M7.59 8.34L7.36 8.34L7.22 8.67L7.27 9.05L7.64 9.61L7.64 9.75L7.36 10.17L7.41 10.36L7.69 10.08L7.83 9.70L7.78 9.42L7.41 8.86L7.45 8.53Z M5.72 8.30L5.53 8.30L5.34 8.81L5.48 9.19L5.77 9.56L5.72 9.89L5.48 10.17L5.58 10.36L5.95 9.80L5.91 9.38L5.58 8.95L5.58 8.58Z M22.27 15.52L22.03 15.33L21.14 15.28L21.14 11.44L20.91 11.16L20.77 11.11L19.31 11.06L19.31 10.50L19.22 10.41L18.80 10.36L18.84 8.53L18.94 8.53L19.08 8.39L19.03 7.45L18.94 7.41L17.39 7.41L17.30 7.45L17.25 8.44L17.53 8.58L17.53 10.31L17.44 10.41L17.06 10.45L17.02 11.02L16.92 11.11L2.20 11.11L2.06 11.16L1.17 12.14L1.17 15.70L0.98 15.84L1.03 16.55L1.17 16.64L1.17 18.94L1.36 19.12L20.53 19.17L21.84 19.12L22.08 18.89L22.08 16.59L22.27 16.41Z M21.19 16.59L21.89 16.64L21.89 18.80L21.75 18.94L21.14 18.89Z M1.41 16.59L3.00 16.64L3.00 17.39L3.09 17.58L3.38 17.77L15.80 17.77L16.12 17.48L16.17 17.30L16.59 17.30L16.59 18.84L16.50 18.94L1.45 18.94L1.36 18.84Z M1.12 16.31L1.17 15.98L3.00 16.03L3.00 16.31L2.91 16.41L1.22 16.41Z M21.19 15.52L21.98 15.52L22.08 15.61L22.08 16.27L21.94 16.41L21.23 16.41L21.14 16.31Z M16.22 14.48L16.59 14.53L16.59 16.97L16.50 17.06L16.17 17.02Z M3.19 14.86L3.28 14.48L15.89 14.48L15.98 14.58L15.98 17.34L15.70 17.58L3.42 17.58L3.23 17.44L3.19 17.11Z M16.88 12.38L20.86 12.38L21.00 12.52L20.95 18.84L20.86 18.94L16.78 18.89L16.78 12.47Z M3.23 14.25L3.19 11.39L3.23 11.30L3.33 11.34L18.80 11.34L19.27 11.30L19.73 11.34L20.77 11.30L20.95 11.48L20.95 12.09L20.86 12.19L16.88 12.19L16.69 12.28L16.59 12.47L16.59 14.20L16.50 14.30Z M2.20 11.30L3.00 11.34L3.00 14.77L2.91 14.86L1.92 14.91L1.97 15.05L3.00 15.09L3.00 15.70L2.91 15.80L1.36 15.75L1.36 12.23Z M17.20 11.06L17.25 10.59L19.12 10.64L19.12 11.02L19.03 11.11Z M17.77 8.53L18.61 8.58L18.61 10.31L18.52 10.41L17.72 10.36Z M17.48 7.59L18.89 7.64L18.89 8.25L18.80 8.34L17.44 8.30Z"/></svg>
