<svg xmlns="http://www.w3.org/2000/svg" width="24" height="24" viewBox="0 0 24 24" fill="currentColor" fill-rule="evenodd" aria-hidden="true"><path d="M23.95 16.69L23.39 17.25L23.30 16.73L21.61 16.78L21.61 16.88L21.70 16.97L23.11 17.02L23.20 17.77L23.95 17.02Z M20.11 16.12L19.36 15.33L19.22 15.33L19.22 15.52L19.64 15.94L19.55 16.03L17.72 16.08L17.81 16.27L19.64 16.31L19.22 16.73L19.31 16.97Z M23.95 15.33L23.25 14.62L23.11 14.67L23.11 15.33L23.02 15.42L21.70 15.42L21.61 15.47L21.66 15.66L23.16 15.70L23.34 15.56L23.39 15.09L23.95 15.70Z M15.84 13.17L15.89 13.27L18.52 13.27L18.61 13.17L18.56 13.03L15.89 13.03Z M15.89 11.95L15.94 12.19L19.55 12.19L19.64 12.09L19.59 11.95Z M15.84 11.02L15.98 11.16L17.11 11.11L18.47 11.16L18.61 11.02L18.61 10.92L18.52 10.88L15.94 10.88Z M3.05 5.11L3.05 18.33L3.98 18.38L4.12 18.23L4.17 16.17L14.48 16.22L14.48 17.86L14.58 18.09L14.95 18.38L20.44 18.38L20.67 18.28L20.86 18.09L20.95 17.91L21.00 17.53L20.95 14.48L21.00 9.84L20.77 9.42L20.48 9.28L16.03 9.23L15.98 5.11L15.05 5.06L14.95 5.16L14.95 9.23L14.67 9.42L13.88 9.42L13.78 9.33L13.83 6.28L13.69 6.09L13.50 6.00L9.66 6.00L9.23 6.09L9.09 6.00L5.11 6.00L4.97 6.05L4.83 6.19L4.83 9.33L4.73 9.42L4.12 9.38L4.12 5.20L3.98 5.06Z M4.12 15.89L4.22 15.33L14.48 15.42L14.48 15.84L14.39 15.94Z M11.25 12.00L11.91 12.05L11.95 12.66L11.81 12.80L11.30 12.80L11.20 12.70Z M9.42 12.00L10.97 12.05L10.97 12.94L11.06 13.03L12.00 13.03L12.14 12.89L12.19 12.00L13.55 12.05L13.55 15.00L13.45 15.09L9.38 15.05Z M6.75 12.00L7.41 12.05L7.41 12.70L7.31 12.80L6.70 12.75Z M5.11 12.00L6.47 12.05L6.47 12.94L6.56 13.03L7.50 13.03L7.64 12.89L7.69 12.00L9.09 12.05L9.14 12.19L9.14 15.00L9.05 15.09L5.06 15.05Z M4.17 10.50L14.48 10.55L14.48 15.00L14.39 15.09L13.88 15.09L13.78 14.95L13.83 12.05L13.73 11.86L13.59 11.77L9.23 11.81L5.02 11.77L4.83 11.95L4.83 15.00L4.73 15.09L4.12 15.05Z M4.12 10.22L4.17 9.66L14.53 9.70L14.48 10.17L14.39 10.27Z M14.91 9.56L20.53 9.56L20.72 9.75L20.77 17.72L20.72 17.86L20.39 18.14L15.05 18.14L14.81 18.00L14.72 17.81L14.72 9.80Z M11.25 6.28L11.91 6.33L11.91 6.98L11.81 7.08L11.30 7.08L11.20 6.98Z M9.42 6.28L10.97 6.33L10.97 7.17L11.11 7.31L12.00 7.31L12.09 7.27L12.19 6.28L13.55 6.33L13.55 9.33L13.45 9.42L9.47 9.42L9.38 9.33Z M6.75 6.28L7.41 6.33L7.41 6.98L7.31 7.08L6.80 7.08L6.70 6.98Z M5.11 6.28L6.47 6.33L6.47 7.22L6.56 7.31L7.50 7.31L7.64 7.17L7.69 6.28L9.14 6.33L9.09 9.00L9.14 9.28L9.00 9.42L5.06 9.38Z M15.23 5.34L15.80 5.39L15.75 5.62L15.80 9.19L15.70 9.28L15.19 9.23L15.23 6.05L15.19 5.67Z M3.33 5.34L3.84 5.39L3.84 18.05L3.75 18.14L3.38 18.14L3.28 18.05Z"/></svg>
