<svg xmlns="http://www.w3.org/2000/svg" width="24" height="24" viewBox="0 0 24 24" fill="currentColor" fill-rule="evenodd" aria-hidden="true"><path d="M15.52 19.12L15.47 19.41L15.70 19.59L16.12 19.59L16.36 19.36L16.36 19.22L16.17 19.08L15.80 19.03Z M15.70 19.36L15.75 19.27L16.12 19.31L16.03 19.41Z M4.59 19.22L4.59 19.41L4.83 19.59L5.30 19.55L5.48 19.31L5.34 19.12L5.16 19.03L4.88 19.03Z M4.83 19.36L4.88 19.27L5.20 19.31L5.11 19.41Z M12.80 18.84L12.84 19.31L13.83 19.31L13.97 19.12L13.92 18.89L13.78 18.75L12.89 18.75Z M12.98 19.03L13.03 18.94L13.64 18.94L13.73 19.03L13.64 19.12L13.08 19.12Z M11.81 18.47L11.86 18.61L12.14 18.61L12.23 18.52Z M11.72 18.09L12.00 18.14L12.14 18.00L11.72 17.95Z M6.84 18.89L6.94 18.98L7.22 19.03L7.27 19.17L7.55 19.27L7.55 19.50L7.64 19.50L7.97 19.22L8.11 19.27L8.11 19.50L8.30 19.41L8.34 19.22L8.58 19.27L8.62 19.50L8.77 19.45L8.81 19.22L9.05 19.27L9.14 19.50L9.28 19.22L9.56 19.27L9.61 19.50L9.70 19.50L9.80 19.22L9.98 19.22L10.22 18.98L10.41 18.98L10.45 18.80L10.22 18.66L10.41 18.66L10.50 18.56L10.36 18.33L10.41 18.33L10.41 18.19L10.12 18.05L10.41 18.00L10.41 17.91L10.03 17.81L10.03 17.72L9.84 17.58L7.69 17.58L7.50 17.67L7.41 17.86L7.08 17.91L7.12 18.05L7.41 18.09L7.31 18.19L7.03 18.19L7.03 18.33L7.31 18.42L6.94 18.52L6.98 18.66L7.27 18.70L7.17 18.80Z M7.41 18.94L7.64 17.86L7.73 17.77L9.75 17.77L9.89 17.91L9.89 18.38L9.98 18.84L9.84 18.98Z M3.38 19.88L3.38 20.62L3.61 20.86L17.39 20.86L17.67 20.58L17.67 19.88L16.31 17.25L16.03 17.06L14.44 17.06L14.44 17.25L14.58 17.30L15.89 17.25L16.12 17.39L17.44 19.92L17.25 20.11L17.16 20.06L3.89 20.11L3.61 19.97L4.36 18.42L5.02 17.30L5.48 17.25L12.05 17.30L12.14 17.25L12.14 17.06L5.02 17.06L4.73 17.25Z M17.48 20.30L17.48 20.48L17.25 20.67L3.75 20.67L3.56 20.48L3.61 20.30Z M13.22 15.70L12.56 16.83L12.47 17.34L12.61 17.72L12.98 18.05L13.41 18.09L13.73 17.95L14.06 17.62L14.16 17.39L14.16 17.11L13.92 16.59L13.50 15.98L13.50 15.89L13.41 15.75Z M13.31 16.08L13.92 17.06L13.92 17.39L13.83 17.58L13.45 17.86L13.03 17.81L12.80 17.62L12.70 17.39L12.70 17.11L12.80 16.83L13.22 16.12Z M8.06 8.58L7.78 8.67L7.55 8.91L7.45 9.38L7.59 9.75L7.78 9.94L8.11 10.08L8.30 10.08L8.53 9.98L8.86 9.66L8.95 9.42L8.95 9.19L8.72 8.77L8.48 8.62Z M8.02 8.81L8.34 8.81L8.53 8.91L8.72 9.23L8.67 9.52L8.25 9.84L7.97 9.80L7.69 9.47L7.73 9.05Z M3.05 7.69L3.05 7.88L3.14 7.92L6.23 7.97L6.19 10.17L6.09 10.27L3.05 10.27L3.09 10.45L3.19 10.50L6.05 10.45L6.19 10.50L6.33 10.88L6.66 11.06L10.17 11.11L10.17 12.80L10.27 13.03L10.64 13.31L11.58 13.31L11.67 13.41L11.67 14.06L11.86 14.20L12.19 14.25L12.19 14.77L12.33 14.91L12.89 14.95L12.94 15.38L13.22 15.52L13.55 15.47L13.69 15.33L13.69 15.09L13.78 14.91L14.16 14.91L14.34 14.72L14.39 14.20L14.67 14.20L14.86 14.02L14.86 13.50L14.95 13.31L15.75 13.31L15.98 13.22L16.17 13.03L16.27 12.84L16.31 11.06L19.55 11.11L19.55 11.39L19.64 11.58L19.92 11.72L19.92 20.25L20.02 20.48L20.34 20.72L20.86 20.72L21.00 20.58L20.91 20.48L20.25 20.44L20.16 20.30L20.20 11.67L20.62 11.67L20.91 11.39L20.95 9.38L20.77 8.95L20.39 8.77L16.27 8.72L16.27 8.06L16.08 7.73L15.80 7.59L15.28 7.55L15.28 7.08L15.14 6.89L14.95 6.80L13.50 6.75L13.50 6.05L13.22 5.67L12.94 5.53L9.66 5.53L9.23 5.67L8.81 6.05L8.67 6.28L8.58 6.56L8.58 7.50L8.48 7.59L6.61 7.59L6.42 7.69Z M13.12 14.91L13.50 14.95L13.50 15.19L13.41 15.28L13.12 15.23L13.08 15.00Z M12.47 14.20L14.11 14.25L14.11 14.62L14.02 14.72L12.42 14.67Z M11.91 13.31L14.67 13.36L14.67 13.88L14.58 13.97L12.05 14.02L11.86 13.92Z M10.41 12.80L10.45 12.23L16.03 12.28L16.03 12.80L15.75 13.08L10.69 13.08Z M16.31 9.00L20.39 9.00L20.48 9.05L20.72 9.33L20.72 11.25L20.53 11.48L19.92 11.48L19.78 11.34L19.78 11.02L19.59 10.83L16.27 10.78Z M10.45 7.97L10.59 7.83L15.80 7.83L15.89 7.88L16.03 8.06L16.03 11.91L15.94 12.00L10.50 12.00L10.41 11.91L10.41 8.11Z M6.47 7.97L6.66 7.83L10.27 7.88L10.17 8.06L10.17 10.73L10.08 10.83L6.66 10.83L6.42 10.59L6.42 8.06Z M12.05 7.55L12.09 7.03L14.95 7.03L15.05 7.12L15.05 7.50L14.95 7.59Z M8.81 7.55L8.86 6.42L8.95 6.23L9.28 5.91L9.70 5.77L12.89 5.77L13.08 5.86L13.27 6.09L13.27 6.70L13.17 6.80L12.09 6.80L11.91 6.89L11.81 7.08L11.81 7.50L11.72 7.59Z"/></svg>
