<svg xmlns="http://www.w3.org/2000/svg" width="24" height="24" viewBox="0 0 24 24" fill="currentColor" fill-rule="evenodd" aria-hidden="true"><path d="M5.25 18.47L5.25 18.61L5.34 18.70L7.27 18.70L7.36 18.66L7.36 18.42L5.34 18.42Z M3.66 18.00L3.56 18.09L3.56 19.03L3.66 19.12L4.55 19.12L4.69 18.98L4.73 18.19L4.59 18.00Z M3.84 18.23L4.41 18.28L4.08 18.52L3.89 18.47L3.94 18.70L4.17 18.75L4.27 18.61L4.45 18.56L4.45 18.80L4.36 18.89L3.80 18.84Z M5.25 16.59L5.30 16.83L7.31 16.83L7.41 16.73L7.41 16.59Z M3.61 16.17L3.52 16.36L3.56 17.16L3.70 17.30L4.55 17.30L4.73 17.02L4.69 16.27L4.50 16.12Z M3.84 16.41L4.41 16.45L4.12 16.64L3.89 16.64L3.94 16.83L4.08 16.92L4.45 16.73L4.45 16.97L4.36 17.06L3.89 17.06L3.80 16.97Z M10.83 15.28L10.83 17.95L10.73 18.05L9.28 18.05L9.09 18.23L9.09 21.05L9.14 21.14L9.38 21.33L16.45 21.33L16.55 21.28L16.78 21.00L16.78 18.28L16.55 18.05L14.95 18.00L14.95 15.33L14.72 15.14L11.02 15.14Z M14.58 18.28L15.00 18.38L15.00 18.75L14.91 18.84L14.48 18.80Z M12.75 18.33L13.92 18.28L14.25 18.38L14.30 19.12L15.09 19.12L15.23 18.98L15.42 18.33L15.80 18.28L16.50 18.38L16.55 19.31L16.50 20.95L16.41 21.05L12.70 21.00Z M12.47 18.38L12.47 20.95L12.38 21.05L9.38 21.00L9.42 18.33L10.50 18.38L10.45 18.98L10.59 19.12L11.34 19.12L11.48 18.98L11.53 18.28Z M10.78 18.28L11.16 18.28L11.25 18.38L11.25 18.75L11.11 18.89L10.73 18.84Z M12.70 15.42L13.12 15.47L13.12 15.89L13.03 15.98L12.66 15.94Z M11.11 15.42L12.38 15.56L12.42 16.17L13.22 16.22L13.31 16.17L13.41 15.42L14.72 15.47L14.72 17.95L14.62 18.05L11.16 18.05L11.06 17.95L11.11 16.08L11.06 15.56Z M5.25 14.77L5.30 14.95L5.39 15.00L7.27 15.00L7.45 14.81L7.31 14.72L5.34 14.72Z M3.66 14.30L3.56 14.39L3.56 15.33L3.75 15.47L4.55 15.42L4.73 15.14L4.73 14.44L4.59 14.30Z M3.84 14.53L4.36 14.58L4.27 14.67L3.89 14.77L4.03 15.05L4.45 14.91L4.45 15.09L4.36 15.19L3.80 15.14Z M18.14 13.36L17.77 13.64L17.67 13.88L17.67 14.25L17.95 14.67L18.23 14.81L18.56 14.81L18.75 14.72L19.03 14.44L19.12 14.25L19.12 13.83L18.94 13.55L18.61 13.36Z M18.19 13.59L18.56 13.59L18.89 13.92L18.84 14.25L18.56 14.53L18.38 14.58L18.19 14.53L17.95 14.25L17.91 14.11L17.95 13.83Z M5.39 11.81L5.30 11.91L5.30 12.14L5.44 12.28L5.53 12.28L5.72 12.09L5.72 11.95L5.58 11.81Z M16.78 11.53L16.83 11.72L16.92 11.77L17.39 11.77L17.48 11.72L17.53 11.53L17.44 11.48Z M16.78 8.44L16.73 8.53L16.73 10.55L16.83 10.73L16.92 10.78L19.64 10.78L19.83 10.59L19.88 10.45L18.66 8.48L18.47 8.39Z M17.06 8.62L18.38 8.62L18.47 8.67L19.55 10.45L19.45 10.55L17.02 10.50Z M2.39 20.25L2.53 20.44L2.81 20.58L8.02 20.58L8.34 20.48L8.62 20.16L8.67 15.52L9.05 15.38L9.38 15.09L9.70 14.58L9.84 14.11L16.83 14.11L16.92 14.20L16.97 14.58L17.20 15.00L17.77 15.47L18.28 15.61L18.52 15.61L19.08 15.42L19.69 14.81L19.88 14.39L19.92 14.11L21.00 14.11L21.28 13.83L21.28 13.03L21.05 12.80L21.05 10.59L21.00 10.45L20.58 10.03L19.36 8.02L18.98 7.64L18.61 7.50L15.98 7.45L15.98 5.39L15.80 5.16L4.59 5.16L4.45 5.30L4.45 11.67L4.36 11.77L3.89 11.81L3.75 12.00L3.75 12.23L3.66 12.33L2.62 12.33L2.39 12.52L2.34 13.59Z M8.77 13.73L8.86 14.06L8.67 14.44Z M8.72 12.89L9.00 13.03L9.38 13.41L9.52 13.73L9.56 14.11L9.47 14.53L9.23 14.86L8.67 15.28L8.62 14.81L8.86 14.62L9.09 14.20L9.09 13.88L9.00 13.64L8.62 13.31Z M17.91 12.89L18.70 12.84L18.98 12.94L19.45 13.36L19.64 13.88L19.64 14.20L19.45 14.72L19.08 15.09L18.84 15.23L18.52 15.33L18.23 15.33L17.91 15.23L17.39 14.81L17.20 14.39L17.25 13.55L17.39 13.31Z M8.67 12.61L15.70 12.61L15.70 13.78L15.61 13.88L10.08 13.83L9.84 13.88L9.56 13.22L9.23 12.89Z M2.72 12.56L3.75 12.61L3.75 12.98L4.03 13.27L6.89 13.27L7.22 12.98L7.31 12.56L8.25 12.56L8.34 12.66L8.39 20.02L8.16 20.30L2.77 20.30L2.62 20.16L2.62 12.66Z M20.34 11.67L20.77 11.72L20.77 12.23L20.67 12.33L20.39 12.33L20.30 12.23Z M4.08 12.05L4.78 12.05L5.11 11.58L5.86 11.58L6.05 11.77L6.09 12.00L6.89 12.05L6.98 12.14L6.98 12.84L6.84 12.98L4.03 12.94L3.98 12.75Z M16.03 7.73L18.52 7.73L18.89 7.88L19.12 8.11L20.34 10.12L20.77 10.59L20.77 11.34L20.67 11.44L20.20 11.44L20.06 11.58L20.02 12.23L20.20 12.52L20.77 12.61L20.77 12.94L21.05 13.17L21.05 13.69L20.86 13.88L19.88 13.83L19.78 13.45L19.55 13.08L18.98 12.66L18.66 12.56L18.09 12.56L17.53 12.80L17.11 13.27L16.97 13.55L16.97 13.73L16.83 13.88L15.98 13.83Z M4.78 5.39L15.70 5.44L15.70 12.19L15.61 12.28L8.91 12.33L7.31 12.28L7.12 11.86L6.98 11.77L6.33 11.77L6.19 11.53L5.95 11.34L5.02 11.34L4.78 11.58Z"/></svg>
