<svg xmlns="http://www.w3.org/2000/svg" width="24" height="24" viewBox="0 0 24 24" fill="currentColor" fill-rule="evenodd" aria-hidden="true"><path d="M4.59 20.11L4.78 20.30L5.20 20.34L5.34 20.30L5.62 19.97L5.34 19.69L4.83 19.69L4.64 19.78Z M4.88 20.02L4.92 19.92L5.25 20.06Z M16.88 19.69L16.92 19.97L17.06 20.11L17.30 20.20L17.81 20.16L18.09 19.92L18.14 19.78L17.91 19.50L17.67 19.41L17.11 19.45Z M17.20 19.88L17.20 19.69L17.39 19.64L17.72 19.69L17.81 19.78L17.53 19.97Z M7.97 19.12L7.97 19.88L8.16 20.02L9.38 20.02L9.61 19.83L9.61 19.17L9.47 19.03L8.06 19.03Z M8.30 19.31L9.33 19.36L9.33 19.64L9.23 19.73L8.25 19.69Z M11.77 18.80L12.09 18.84L12.19 18.80L12.23 18.61L11.77 18.61Z M12.56 17.95L12.47 17.91L11.77 17.95L11.77 18.14L12.47 18.19Z M15.56 17.16L15.75 18.05L15.89 18.05L16.03 18.28L16.17 18.33L16.31 18.09L16.73 18.05L16.88 18.28L17.11 18.28L17.16 18.05L17.34 17.86L17.20 17.30L17.02 17.06L15.66 17.06Z M15.80 17.39L16.88 17.34L17.06 17.72L16.88 17.86L15.89 17.77L15.89 17.48Z M10.78 17.72L10.88 17.91L11.11 17.91L11.20 18.00L11.11 18.09L10.83 18.14L10.83 18.33L11.06 18.33L11.16 18.42L11.16 18.52L10.83 18.61L10.83 18.80L11.20 18.94L11.11 19.03L10.78 19.08L10.83 19.27L11.16 19.31L11.34 19.55L11.44 19.55L11.53 19.64L11.53 19.88L11.62 19.97L11.72 19.92L11.81 19.55L12.05 19.59L12.09 19.92L12.28 19.88L12.38 19.55L12.52 19.59L12.56 19.92L12.70 19.92L12.80 19.83L12.84 19.55L13.03 19.59L13.03 19.88L13.17 19.97L13.31 19.83L13.36 19.55L13.55 19.59L13.59 19.92L13.73 19.92L13.83 19.83L13.88 19.55L14.44 19.27L14.53 19.12L14.44 19.03L14.11 18.98L14.16 18.80L14.44 18.75L14.39 18.56L14.16 18.56L14.11 18.38L14.30 18.38L14.39 18.19L14.30 18.09L14.02 18.05L14.06 17.91L14.25 17.91L14.34 17.81L14.30 17.67L14.06 17.67L13.83 17.34L13.64 17.30L13.59 17.11L13.45 17.06L13.36 17.11L13.36 17.25L13.17 17.30L13.12 17.11L12.89 17.11L12.89 17.25L12.80 17.34L12.66 17.30L12.66 17.16L12.56 17.06L12.42 17.11L12.42 17.20L12.28 17.34L12.19 17.11L12.05 17.06L11.95 17.25L11.77 17.30L11.77 17.11L11.58 17.06L11.48 17.25L11.30 17.34L11.06 17.67Z M11.48 17.58L13.64 17.58L13.73 17.67L13.88 19.17L13.78 19.27L11.48 19.22L11.44 18.00Z M5.39 17.25L5.39 17.58L5.58 17.77L5.86 17.86L6.09 17.86L6.47 17.72L6.66 17.53L6.70 17.39L6.61 17.20L6.19 17.02L5.67 17.06Z M5.72 17.34L6.19 17.30L6.38 17.39L6.23 17.53L5.91 17.58L5.77 17.53Z M6.75 13.17L6.52 13.17L6.38 13.45L6.38 14.06L6.70 14.72L6.70 15.05L6.47 15.42L6.52 15.61L6.61 15.66L6.80 15.47L6.98 15.00L6.94 14.53L6.66 14.02L6.66 13.50L6.80 13.27Z M5.81 12.47L5.62 12.47L5.48 12.61L5.34 12.98L5.34 13.41L5.67 14.16L5.62 14.72L5.48 14.95L5.53 15.14L5.62 15.14L5.81 14.95L5.95 14.58L5.95 14.11L5.62 13.41L5.67 12.89L5.86 12.61Z M20.86 5.25L20.58 5.02L19.92 4.69L19.59 4.59L18.70 4.59L18.00 4.88L17.34 5.48L17.20 5.48L17.06 5.39L16.59 5.39L16.22 5.58L13.12 9.23L12.75 9.61L12.52 9.56L12.33 9.66L11.77 10.27L11.77 10.69L11.91 10.88L11.72 11.16L11.72 11.30L11.81 11.44L9.33 14.30L9.38 14.53L8.67 15.28L8.58 15.61L8.30 16.08L8.11 16.22L7.59 16.17L5.06 16.22L4.73 16.41L3.14 20.48L3.19 21.61L3.61 21.94L19.27 21.94L19.45 21.84L19.78 21.42L19.78 20.53L19.27 19.31L18.94 18.33L18.56 17.53L18.28 16.69L18.05 16.36L17.67 16.17L12.33 16.22L9.94 16.17L9.05 16.27L9.05 16.45L9.14 16.50L17.72 16.50L18.00 16.78L18.52 18.23L19.36 20.25L19.45 20.58L19.22 20.77L3.61 20.77L3.47 20.67L3.47 20.39L4.31 18.33L4.92 16.69L5.11 16.50L8.11 16.55L8.11 17.30L7.69 17.62L7.69 17.86L7.83 18.05L8.16 18.19L8.62 18.19L8.86 18.09L9.09 17.86L9.14 17.72L8.91 17.44L8.72 17.34L8.72 16.36L9.19 15.89L9.33 15.84L9.94 15.14L10.17 15.14L12.66 12.28L12.94 12.38L13.12 12.23L13.31 12.23L13.69 12.38L14.02 12.14L14.44 11.62L14.53 11.34L14.48 11.16L17.95 7.08L18.05 6.84L18.05 6.33L17.91 6.09L17.95 6.00L18.38 5.62L18.84 5.44L19.41 5.44L19.83 5.58L20.30 5.95L20.39 5.95L20.53 5.77L20.20 5.48L19.78 5.25L19.64 5.25L19.50 5.16L18.80 5.16L18.23 5.39L17.72 5.86L17.62 5.77L17.62 5.62L17.95 5.25L18.23 5.06L18.89 4.88L19.45 4.88L19.88 4.97L20.34 5.20L20.72 5.48L20.86 5.34Z M19.50 21.05L19.45 21.42L19.17 21.66L3.70 21.66L3.42 21.42L3.47 21.05L19.31 21.00Z M8.02 17.81L8.06 17.62L8.34 17.77L8.62 17.62L8.86 17.72L8.67 17.91L8.48 17.95L8.11 17.91Z M9.00 15.70L8.81 15.94L8.62 15.98L8.77 15.70Z M9.66 14.77L9.80 14.91L9.19 15.56L9.05 15.42L9.05 15.28L9.47 14.81Z M12.14 11.62L12.52 12.00L10.31 14.58L10.08 14.77L9.70 14.44L9.70 14.30L12.05 11.62Z M12.28 10.88L12.52 10.92L13.27 11.72L12.94 12.05L12.05 11.20L12.05 11.11Z M12.52 9.89L12.89 9.89L13.22 10.08L13.78 10.59L14.06 10.97L14.20 11.25L14.20 11.44L13.78 11.95L13.45 11.44L12.66 10.69L12.38 10.50L12.19 10.55L12.09 10.69L12.05 10.36Z M17.25 5.81L17.62 6.14L17.72 6.33L17.77 6.75L17.67 6.98L14.34 10.88L14.02 10.45L13.50 9.94L13.17 9.70L13.17 9.61L16.50 5.72L16.92 5.67Z"/></svg>
