<svg xmlns="http://www.w3.org/2000/svg" width="24" height="24" viewBox="0 0 24 24" fill="currentColor" fill-rule="evenodd" aria-hidden="true"><path d="M19.27 18.33L19.41 18.47L19.64 18.56L20.02 18.52L20.25 18.28L20.25 18.19L20.02 18.00L19.50 18.00L19.31 18.09Z M19.50 18.28L19.55 18.19L19.92 18.33Z M4.17 18.19L4.31 18.47L4.59 18.56L4.88 18.52L5.16 18.28L5.16 18.19L5.02 18.05L4.78 17.95L4.41 18.00L4.22 18.09Z M4.45 18.28L4.50 18.19L4.83 18.33Z M15.66 18.00L15.66 18.28L15.80 18.42L15.98 18.47L16.45 18.47L16.59 18.42L16.78 18.23L16.78 18.05L16.64 17.91L16.36 17.81L15.84 17.86Z M15.89 18.09L16.36 18.05L16.55 18.14L16.45 18.23L16.17 18.28Z M13.17 17.39L13.22 17.95L13.36 18.14L14.39 18.14L14.53 18.05L14.58 17.77L14.67 17.77L14.77 17.62L14.48 17.53L14.48 17.39L14.39 17.30L13.27 17.30Z M13.45 17.48L14.30 17.53L14.34 17.81L14.25 17.91L13.50 17.91L13.41 17.81Z M13.08 16.64L13.17 16.73L13.78 16.73L13.88 16.69L13.88 16.55Z M17.11 16.27L17.25 17.02L17.53 17.25L17.53 17.34L17.67 17.44L17.77 17.16L18.23 17.20L18.33 17.48L18.47 17.44L18.47 17.16L18.61 17.16L18.75 16.92L18.66 16.78L18.56 16.31L18.42 16.17L17.20 16.17Z M17.34 16.45L17.39 16.36L18.28 16.36L18.38 16.45L18.52 16.88L18.42 16.97L17.53 16.97L17.44 16.88Z M14.81 15.98L14.77 16.17L14.86 16.31L14.86 16.69L14.95 16.78L15.14 16.78L15.23 16.97L15.38 16.92L15.42 16.78L16.12 16.73L16.22 16.59L16.12 16.45L16.08 16.08L15.98 15.98L14.95 15.94Z M15.00 16.27L15.05 16.17L15.89 16.22L15.94 16.50L15.84 16.59L15.61 16.55L15.14 16.59L15.05 16.50Z M6.84 17.53L6.94 17.72L7.45 17.77L7.45 17.86L7.59 18.00L7.97 18.14L7.92 18.33L8.02 18.42L8.16 18.28L8.20 18.05L8.77 18.09L8.81 18.42L8.95 18.28L9.00 18.05L9.38 18.09L9.38 18.38L9.56 18.28L9.61 18.05L9.98 18.09L9.98 18.38L10.17 18.33L10.22 18.05L10.78 18.09L10.78 18.33L10.88 18.42L10.97 18.33L11.02 18.05L11.25 18.05L11.53 17.77L12.05 17.72L12.19 17.58L11.58 17.48L11.62 17.25L12.00 17.30L12.14 17.16L11.58 16.97L11.95 16.97L12.09 16.83L12.00 16.73L11.48 16.69L11.53 16.55L11.95 16.55L12.00 16.36L11.48 16.31L11.44 16.12L11.25 15.98L10.97 15.94L10.97 15.80L10.78 15.75L10.69 15.94L10.22 15.89L10.17 15.70L10.03 15.75L10.03 15.84L9.89 15.98L9.23 15.98L9.09 15.70L9.00 15.70L9.00 15.84L8.91 15.94L8.44 15.89L8.39 15.70L8.25 15.75L8.16 15.94L7.78 16.03L7.59 16.36L7.08 16.41L7.12 16.55L7.59 16.64L7.50 16.73L7.03 16.78L7.08 16.97L7.50 17.02L7.41 17.11L7.03 17.06L6.94 17.11L7.03 17.30L7.45 17.30L7.45 17.44L7.36 17.53Z M7.69 17.81L7.73 17.67L11.20 17.67L11.34 17.72L11.20 17.86L7.78 17.86Z M7.69 17.30L7.88 16.27L7.97 16.17L11.25 16.22L11.34 17.34L11.06 17.53L7.78 17.53Z M5.20 15.80L5.25 16.12L5.44 16.22L5.81 16.22L6.09 16.03L6.09 15.80L5.86 15.66L5.39 15.66Z M5.39 15.94L5.53 15.84L5.77 15.84L5.86 15.94L5.67 16.03L5.53 16.03Z M17.86 15.61L17.95 15.80L18.23 15.75L18.23 15.61Z M17.30 15.70L17.39 15.80L17.62 15.80L17.72 15.61Z M21.42 18.89L20.72 17.06L20.62 16.64L20.06 15.09L19.88 14.91L19.69 14.81L14.72 14.72L14.86 14.30L14.91 12.14L15.14 11.91L15.05 11.81L14.91 11.81L14.72 12.00L14.30 11.86L15.00 11.72L15.09 11.62L15.05 11.44L14.91 11.44L14.77 11.53L14.58 11.53L14.44 11.44L14.77 11.30L15.00 11.30L15.09 11.20L15.09 11.06L15.00 11.02L14.77 11.06L14.62 10.97L14.02 10.83L13.88 10.92L13.97 11.11L14.20 11.11L14.39 11.20L13.88 11.34L13.88 11.48L13.97 11.58L14.34 11.62L14.25 11.72L13.88 11.81L13.88 12.05L14.11 12.19L14.11 14.30L14.25 14.67L14.20 14.81L11.95 14.72L12.09 14.30L12.14 12.14L12.38 11.91L12.28 11.81L12.09 11.86L12.00 12.00L11.53 11.86L12.23 11.72L12.38 11.53L12.28 11.44L12.14 11.44L12.00 11.53L11.81 11.53L11.72 11.44L11.95 11.30L12.23 11.30L12.33 11.20L12.33 11.06L12.05 11.06L11.72 10.92L11.39 10.88L11.11 10.92L11.16 11.06L11.48 11.11L11.62 11.20L11.11 11.34L11.16 11.53L11.39 11.53L11.58 11.62L11.11 11.81L11.16 12.09L11.30 12.14L11.34 14.30L11.48 14.72L11.39 14.81L9.23 14.77L9.38 14.25L9.38 12.19L9.61 11.91L9.52 11.81L9.33 11.86L9.23 12.00L8.67 11.95L8.77 11.86L8.95 11.86L9.56 11.67L9.61 11.53L9.52 11.44L9.38 11.44L9.23 11.53L9.00 11.53L8.86 11.44L9.23 11.30L9.47 11.30L9.61 11.11L9.52 11.02L9.23 11.06L8.95 10.92L8.58 10.88L8.34 10.92L8.44 11.11L8.81 11.11L8.91 11.20L8.44 11.30L8.34 11.39L8.39 11.53L8.81 11.62L8.34 11.81L8.39 12.09L8.62 12.23L8.62 14.34L8.72 14.72L8.62 14.81L6.47 14.72L6.61 14.30L6.66 13.41L6.61 12.19L6.84 12.00L6.80 11.81L6.66 11.81L6.47 12.00L6.09 11.86L6.80 11.67L6.84 11.53L6.75 11.44L6.52 11.53L6.28 11.53L6.19 11.44L6.52 11.30L6.70 11.30L6.80 11.25L6.84 11.11L6.75 11.02L6.47 11.06L6.19 10.92L5.86 10.88L5.62 10.92L5.62 11.06L6.09 11.20L5.62 11.34L5.67 11.53L6.09 11.62L5.62 11.81L5.67 12.09L5.81 12.14L5.86 14.25L6.00 14.67L5.95 14.81L4.69 14.81L4.36 15.05L3.05 18.80L3.05 19.83L3.14 20.02L3.38 20.16L21.05 20.16L21.42 19.78Z M3.23 19.78L3.28 19.27L3.66 19.31L21.19 19.31L21.19 19.78L20.91 19.97L3.47 19.97Z M3.23 18.84L3.33 18.75L3.52 18.23L3.52 18.09L4.22 16.22L4.55 15.19L4.69 15.05L6.14 15.09L6.19 15.28L6.33 15.23L6.38 15.09L8.86 15.09L8.95 15.33L9.09 15.09L11.53 15.05L11.72 15.28L11.91 15.05L14.30 15.05L14.48 15.33L14.62 15.09L19.69 15.05L19.88 15.19L19.88 15.33L20.02 15.56L20.11 15.98L21.19 18.89L21.00 19.08L3.42 19.08L3.28 18.98Z M8.86 12.23L9.14 12.28L9.14 14.30L9.00 14.77L8.91 14.67L8.81 14.25Z M14.44 12.19L14.67 12.28L14.67 14.25L14.58 14.44L14.58 14.67L14.48 14.77L14.34 14.34Z M11.58 12.19L11.91 12.28L11.91 14.20L11.81 14.62L11.72 14.77L11.62 14.34L11.53 14.20L11.58 12.52L11.53 12.28Z M6.14 12.19L6.33 12.19L6.42 12.28L6.42 14.30L6.33 14.44L6.33 14.67L6.23 14.77L6.09 14.30Z M19.88 9.94L19.69 9.98L19.03 10.92L19.08 11.11L19.55 11.25L19.50 11.48L19.36 11.72L19.45 11.95L19.92 11.34L20.20 10.78L19.69 10.73L19.69 10.59L19.88 10.17Z M4.55 5.72L4.50 5.86L4.50 8.02L4.73 8.34L4.97 8.44L5.44 8.44L5.53 8.53L5.48 9.19L5.77 9.33L5.77 10.31L5.62 10.41L5.67 10.64L6.00 10.78L6.70 10.92L6.80 10.69L6.56 10.69L6.23 10.55L6.75 10.45L6.84 10.36L6.80 10.22L6.70 10.17L6.75 9.28L6.94 9.19L6.98 8.44L8.25 8.48L8.30 9.28L8.48 9.33L8.48 10.31L8.34 10.41L8.34 10.59L8.95 10.83L9.47 10.92L9.56 10.83L9.52 10.69L8.91 10.55L9.19 10.45L9.47 10.45L9.61 10.31L9.42 10.08L9.52 9.28L9.70 9.19L9.75 8.44L11.02 8.48L11.06 9.28L11.25 9.33L11.25 10.31L11.11 10.45L11.16 10.64L11.91 10.88L12.28 10.88L12.33 10.69L11.72 10.55L11.95 10.45L12.23 10.45L12.38 10.31L12.23 10.17L12.28 9.28L12.47 9.14L12.52 8.44L13.78 8.48L13.83 9.28L14.02 9.33L14.02 10.31L13.88 10.45L13.92 10.64L14.67 10.88L15.05 10.88L15.05 10.69L14.67 10.64L14.53 10.55L14.72 10.45L15.00 10.45L15.14 10.31L15.00 10.17L15.05 9.28L15.23 9.19L15.28 8.44L15.70 8.44L16.08 8.20L16.22 7.92L16.27 7.08L19.03 7.12L19.27 7.17L19.59 7.59L19.59 9.14L19.50 9.23L18.38 9.23L18.09 9.38L17.95 9.61L17.95 12.28L18.00 12.42L18.38 12.70L20.86 12.70L21.00 12.66L21.33 12.28L21.38 12.14L21.33 9.61L21.09 9.33L20.91 9.23L19.78 9.19L19.78 7.50L19.69 7.27L19.45 7.03L19.08 6.89L16.22 6.84L16.22 5.91L16.12 5.72L15.75 5.44L4.92 5.44L4.78 5.48Z M18.33 9.47L20.91 9.47L21.09 9.61L21.14 9.70L21.14 12.19L20.91 12.47L18.38 12.47L18.19 12.28L18.19 9.61Z M14.77 9.33L14.81 10.17L14.72 10.27L14.30 10.36L14.30 9.28Z M11.53 9.28L12.00 9.33L12.00 10.17L11.91 10.27L11.48 10.31Z M9.23 9.33L9.23 10.17L9.14 10.27L8.77 10.36L8.77 9.28Z M6.52 9.33L6.52 10.17L6.42 10.27L6.00 10.36L6.00 9.28Z M13.97 8.53L14.02 8.44L15.05 8.48L15.05 9.00L14.95 9.09L14.06 9.09L13.97 8.95Z M11.25 8.44L12.23 8.48L12.23 9.00L12.14 9.09L11.20 9.05Z M8.48 8.44L9.52 8.48L9.52 9.00L9.42 9.09L8.44 9.05Z M5.77 8.44L6.75 8.48L6.75 9.00L6.66 9.09L5.72 9.05Z M4.73 5.81L4.88 5.67L15.80 5.67L15.98 5.91L15.98 7.92L15.70 8.20L4.92 8.20L4.73 8.02Z"/></svg>
