<svg xmlns="http://www.w3.org/2000/svg" width="24" height="24" viewBox="0 0 24 24" fill="currentColor" fill-rule="evenodd" aria-hidden="true"><path d="M4.64 18.42L4.64 18.70L4.73 18.84L5.11 18.98L5.58 18.89L5.81 18.61L5.77 18.42L5.48 18.23L4.92 18.23Z M4.97 18.52L5.34 18.47L5.53 18.56L5.34 18.70L5.02 18.70Z M18.09 18.42L18.09 18.70L18.28 18.89L18.56 18.98L18.98 18.94L19.31 18.61L19.17 18.33L18.70 18.19L18.23 18.28Z M18.38 18.52L18.80 18.47L19.03 18.56L18.84 18.70L18.52 18.70Z M13.03 18.09L13.03 18.70L13.17 18.84L14.53 18.84L14.72 18.66L14.72 18.14L14.58 18.00L13.12 18.00Z M13.27 18.33L13.31 18.23L14.39 18.23L14.48 18.33L14.48 18.47L14.39 18.56L13.31 18.52Z M5.67 17.48L5.72 17.67L6.09 17.67L6.14 17.48L6.05 17.44Z M15.56 17.20L15.56 17.48L15.70 17.67L16.45 17.67L16.64 17.48L16.64 17.30L16.55 17.11L16.45 17.06L15.70 17.06Z M15.80 17.39L15.84 17.30L16.31 17.44Z M13.45 17.06L13.45 17.25L13.55 17.34L13.83 17.34L14.02 17.16L13.92 17.06Z M5.81 16.92L5.91 17.02L6.23 17.02L6.38 16.88L6.28 16.78L5.86 16.78Z M7.73 16.31L7.83 16.50L8.16 16.55L8.16 16.64L8.02 16.78L7.92 16.73L7.69 16.78L7.69 16.97L8.11 17.06L7.97 17.25L7.59 17.25L7.64 17.48L8.02 17.53L7.88 17.77L7.45 17.86L7.59 18.00L7.92 18.05L8.06 18.28L8.34 18.42L8.34 18.75L8.53 18.66L8.62 18.33L8.91 18.42L8.86 18.66L9.00 18.75L9.09 18.66L9.14 18.33L9.42 18.38L9.47 18.75L9.61 18.70L9.70 18.33L9.98 18.38L10.03 18.75L10.17 18.70L10.27 18.33L10.55 18.38L10.50 18.66L10.59 18.75L10.73 18.70L10.83 18.33L11.02 18.33L11.16 18.23L11.30 18.00L11.72 17.95L11.72 17.77L11.39 17.77L11.34 17.53L11.67 17.48L11.81 17.34L11.77 17.25L11.44 17.25L11.34 17.06L11.44 16.97L11.77 16.97L11.86 16.83L11.77 16.73L11.39 16.69L11.44 16.50L11.72 16.50L11.91 16.36L11.86 16.27L11.53 16.27L11.44 16.12L11.44 15.98L11.30 15.84L11.02 15.75L11.06 15.56L10.97 15.47L10.83 15.52L10.83 15.70L10.73 15.80L10.50 15.75L10.55 15.61L10.50 15.52L10.31 15.47L10.27 15.61L10.31 15.70L10.22 15.80L9.98 15.70L10.03 15.56L9.94 15.47L9.80 15.52L9.80 15.70L9.70 15.80L9.52 15.75L9.47 15.47L9.33 15.47L9.28 15.70L9.19 15.80L8.95 15.75L9.00 15.52L8.91 15.47L8.77 15.52L8.77 15.70L8.67 15.80L8.53 15.80L8.30 15.94L8.25 16.17L8.16 16.27Z M8.48 16.17L8.58 16.08L11.20 16.12L11.06 17.91L10.92 18.05L9.00 18.09L8.25 18.05L8.16 17.91L8.39 16.97Z M13.12 15.47L13.08 16.17L13.45 16.50L13.64 16.31L13.92 16.36L14.06 16.50L14.39 16.17L14.39 15.61L14.30 15.47L14.20 15.42L13.22 15.42Z M13.41 15.70L14.11 15.75L14.11 16.03L14.02 16.12L13.64 16.12L13.36 16.03Z M16.55 15.52L16.59 15.89L16.69 16.08L16.88 16.12L17.02 16.27L17.16 16.22L17.20 16.12L17.77 16.17L17.81 16.31L17.95 16.27L18.23 15.89L18.05 15.47L17.91 15.38L16.69 15.38Z M16.83 15.75L16.88 15.61L17.86 15.66L17.91 15.75L17.81 15.84L16.92 15.84Z M5.67 15.66L5.77 15.94L6.00 16.08L6.47 16.08L6.84 15.80L6.84 15.56L6.52 15.38L6.00 15.38L5.86 15.42Z M6.00 15.66L6.42 15.61L6.56 15.70L6.47 15.80L6.14 15.84Z M3.19 19.31L3.19 19.50L3.28 19.69L3.56 19.88L20.44 19.88L20.62 19.78L20.86 19.45L20.86 19.31L20.25 17.95L19.45 15.89L19.22 15.47L19.08 15.00L18.89 14.67L18.52 14.48L5.48 14.48L5.20 14.58L4.97 14.81L4.83 15.33Z M3.47 19.36L4.55 16.78L4.55 16.64L4.97 15.70L5.20 15.00L5.30 14.86L5.53 14.77L9.75 14.81L18.42 14.77L18.66 14.86L18.80 15.05L19.27 16.31L20.58 19.41L20.34 19.59L3.66 19.59L3.52 19.50Z M15.28 13.88L15.38 14.11L15.56 14.11L15.56 13.97L15.47 13.83Z M8.58 13.83L8.48 13.83L8.39 13.97L8.48 14.16L8.67 13.92Z M11.91 13.64L11.95 13.92L12.09 13.88L12.09 13.64L12.00 13.59Z M14.91 13.17L14.91 13.31L15.05 13.55L15.14 13.55L15.23 13.41L15.09 13.17Z M9.09 13.17L8.86 13.17L8.77 13.31L8.77 13.55L8.95 13.45Z M12.05 12.80L11.91 12.80L11.95 13.27L12.05 13.22Z M14.48 12.52L14.62 12.80L14.81 12.80L14.62 12.42Z M9.47 12.42L9.28 12.42L9.14 12.66L9.23 12.84L9.42 12.61Z M12.05 12.09L11.91 12.14L11.95 12.47L12.09 12.38Z M14.16 11.81L14.16 11.95L14.34 12.14L14.44 11.95L14.34 11.81Z M9.80 11.77L9.61 11.81L9.56 11.91L9.61 12.14L9.80 11.91Z M18.42 10.59L18.42 10.73L18.52 10.83L20.02 10.83L20.16 10.97L20.16 12.42L20.30 12.52L20.44 12.38L20.44 10.92L20.25 10.64L20.06 10.55Z M5.67 10.64L5.58 10.55L3.98 10.55L3.80 10.64L3.66 10.83L3.66 12.42L3.70 12.52L3.80 12.52L3.94 12.38L3.98 10.83L5.53 10.83Z M11.81 5.39L11.53 5.67L11.53 6.05L11.77 6.33L12.14 6.38L12.52 6.05L12.56 5.72L12.23 5.39Z M11.91 5.62L12.14 5.62L12.28 5.77L12.28 5.91L12.05 6.14L11.95 6.14L11.77 5.95L11.77 5.77Z M11.86 4.83L11.39 5.02L11.06 5.39L11.02 6.14L11.20 6.52L11.48 6.75L11.81 6.89L12.19 6.89L12.61 6.70L12.94 6.38L13.08 6.00L13.08 5.62L12.89 5.25L12.56 4.97L12.19 4.83Z M11.77 5.11L12.23 5.11L12.52 5.25L12.80 5.67L12.80 6.00L12.70 6.23L12.33 6.56L12.00 6.66L11.77 6.61L11.53 6.47L11.30 6.19L11.25 5.95L11.34 5.44Z M3.42 5.34L3.42 6.38L3.56 6.52L8.91 6.56L8.91 8.02L9.19 8.39L9.38 8.48L9.75 8.48L9.80 9.66L9.94 9.84L10.12 9.89L10.22 10.88L10.45 11.06L11.02 11.11L11.02 11.53L11.16 11.67L12.84 11.67L13.03 11.48L13.12 11.02L13.55 11.06L13.88 10.78L13.92 9.89L14.11 9.84L14.30 9.61L14.39 8.44L14.58 8.48L14.77 8.44L15.05 8.20L15.14 8.02L15.19 6.52L20.48 6.52L20.72 6.23L20.72 5.39L20.53 5.20L15.14 5.16L15.14 3.52L15.05 3.33L14.72 3.09L9.28 3.09L9.09 3.19L8.91 3.47L8.91 5.11L8.81 5.20L3.47 5.25Z M11.25 11.39L11.30 11.06L12.80 11.16L12.66 11.44Z M10.50 9.94L13.59 9.98L13.59 10.64L13.45 10.78L10.55 10.78L10.45 10.69Z M10.08 8.48L14.02 8.53L14.02 9.52L13.88 9.66L10.17 9.66L10.03 9.52Z M15.14 6.19L15.19 5.44L20.34 5.44L20.44 5.53L20.39 5.86L20.44 6.14L20.34 6.23Z M3.75 5.44L3.84 5.48L8.91 5.48L8.91 6.14L8.81 6.23L3.70 6.19Z M9.19 3.52L9.33 3.38L14.72 3.38L14.86 3.56L14.86 7.97L14.62 8.20L9.38 8.20L9.19 8.02Z"/></svg>
