<svg xmlns="http://www.w3.org/2000/svg" width="24" height="24" viewBox="0 0 24 24" fill="currentColor" fill-rule="evenodd" aria-hidden="true"><path d="M18.61 20.02L18.61 20.25L18.89 20.44L19.36 20.44L19.64 20.20L19.64 20.06L19.41 19.88L18.84 19.88Z M6.84 20.11L6.70 19.92L6.28 19.83L5.91 19.92L5.77 20.06L5.77 20.20L5.86 20.34L6.05 20.44L6.47 20.44L6.70 20.34Z M6.05 20.16L6.52 20.16L6.38 20.25Z M13.88 19.59L13.92 20.11L14.02 20.20L15.38 20.20L15.52 20.02L15.56 19.73L15.47 19.69L15.47 19.55L15.33 19.41L14.02 19.41Z M14.20 19.64L15.23 19.69L15.19 19.97L14.16 19.92Z M6.42 19.08L6.47 19.22L7.03 19.22L7.12 19.12L7.12 19.03Z M16.45 18.52L16.59 19.22L16.69 19.31L16.92 19.36L16.92 19.50L17.02 19.59L17.20 19.31L17.77 19.36L17.91 19.59L18.05 19.31L18.33 19.17L18.14 18.47L17.11 18.38L16.55 18.42Z M16.69 18.70L17.91 18.66L18.05 18.94L18.00 19.08L16.78 19.03L16.78 18.84Z M14.16 18.33L14.11 18.66L14.30 18.84L14.95 18.84L15.14 18.61L15.14 18.47L15.00 18.28L14.44 18.23Z M14.91 18.52L14.81 18.61L14.39 18.47L14.81 18.42Z M8.39 19.55L8.48 19.73L8.95 19.78L9.05 19.92L9.38 20.06L9.33 20.25L9.42 20.34L9.56 20.20L9.56 20.06L9.66 19.97L10.03 20.02L10.08 20.30L10.27 20.20L10.27 20.06L10.36 19.97L10.83 20.02L10.92 20.30L11.06 20.02L11.53 20.02L11.58 20.30L11.67 20.30L11.77 20.20L11.81 19.97L12.05 19.97L12.28 19.73L12.80 19.69L12.84 19.50L12.33 19.45L12.38 19.31L12.80 19.31L12.84 19.12L12.42 18.98L12.84 18.98L12.94 18.89L12.42 18.66L12.84 18.66L12.94 18.52L12.47 18.47L12.23 18.19L11.95 18.09L11.95 17.95L11.77 17.91L11.62 18.14L11.30 18.09L11.25 17.91L11.11 17.95L11.02 18.14L10.59 18.09L10.55 17.91L10.41 17.95L10.31 18.14L9.94 18.09L9.89 17.91L9.80 17.91L9.61 18.14L9.33 18.19L9.09 18.47L8.67 18.47L8.67 18.66L9.14 18.70L9.05 18.80L8.58 18.84L8.58 18.98L8.95 19.12L8.53 19.12L8.53 19.31L8.62 19.36L8.81 19.31L8.95 19.41L8.86 19.50Z M9.19 19.59L9.19 19.41L9.47 18.42L11.86 18.42L12.05 18.38L12.14 18.47L12.09 19.50L11.95 19.64L11.72 19.69L9.28 19.69Z M17.39 17.81L17.39 18.00L17.81 17.95L17.77 17.81Z M16.73 17.86L16.78 18.00L17.16 18.00L17.25 17.91L17.16 17.81Z M6.75 18.00L6.75 18.19L7.03 18.38L7.45 18.38L7.83 18.09L7.78 17.91L7.45 17.77L6.94 17.81Z M7.03 18.09L7.08 18.00L7.55 18.05L7.45 18.14Z M4.45 20.77L4.45 21.61L4.59 21.89L4.83 22.03L20.58 22.03L20.95 21.66L20.91 20.58L20.81 20.48L19.50 17.34L19.36 17.16L19.08 17.02L6.33 17.02L6.00 17.25Z M4.73 21.61L4.78 21.09L20.72 21.19L20.72 21.56L20.53 21.75L20.25 21.80L5.02 21.75L4.92 21.80Z M4.78 20.62L5.30 19.59L6.19 17.44L6.42 17.25L15.70 17.25L16.31 17.30L17.25 17.25L19.08 17.30L19.22 17.39L20.67 20.81L20.58 20.91L4.88 20.91L4.78 20.81Z M15.14 16.27L15.23 16.59L15.33 16.36L15.28 16.27Z M17.67 16.22L17.67 16.36L17.81 16.55L17.95 16.45L17.77 16.22Z M10.27 16.22L10.17 16.27L10.08 16.45L10.22 16.55Z M7.78 16.22L7.59 16.27L7.50 16.41L7.50 16.55L7.69 16.45Z M14.91 15.61L15.00 15.94L15.14 15.84L15.09 15.70Z M10.55 15.61L10.41 15.61L10.31 15.89L10.41 15.94Z M17.25 15.56L17.39 15.89L17.53 15.80L17.39 15.61Z M8.25 15.56L8.11 15.56L7.92 15.75L7.97 15.94Z M12.80 15.14L12.66 15.14L12.70 15.47L12.80 15.38Z M16.92 15.09L16.92 15.23L17.06 15.38L17.16 15.28L17.06 15.14Z M8.39 15.38L8.53 15.14L8.30 15.23Z M14.72 15.05L14.81 15.38L14.91 15.33L14.81 15.05Z M10.73 15.05L10.59 15.05L10.55 15.33L10.69 15.28Z M16.64 14.72L16.64 14.81L16.88 14.86L16.73 14.72Z M8.81 14.72L8.62 14.72L8.58 14.95Z M12.80 14.53L12.66 14.53L12.66 14.86L12.80 14.81L12.84 14.72Z M14.48 14.48L14.58 14.77L14.67 14.62L14.62 14.48Z M10.92 14.44L10.73 14.62L10.83 14.77L10.97 14.58Z M16.27 14.16L16.27 14.30L16.36 14.44L16.50 14.39L16.41 14.16Z M9.19 14.16L9.00 14.20L8.91 14.34L9.00 14.48L9.19 14.25Z M12.52 7.12L12.23 7.27L12.05 7.50L12.00 8.16L12.33 8.58L12.56 8.67L12.84 8.67L13.08 8.58L13.36 8.34L13.50 8.06L13.50 7.69L13.22 7.27L12.94 7.12Z M12.52 7.41L12.94 7.41L13.17 7.59L13.27 7.78L13.27 7.97L13.17 8.16L12.80 8.44L12.52 8.39L12.28 8.16L12.23 8.02L12.28 7.59Z M3.09 6.42L3.09 10.78L3.19 10.88L5.48 10.88L5.62 10.73L5.67 9.94L10.12 9.98L10.17 10.31L10.45 10.69L10.73 10.83L11.16 10.88L11.16 11.58L11.02 11.72L10.59 11.72L9.70 11.91L9.33 12.05L9.05 12.28L9.00 12.38L9.00 13.45L9.23 13.73L9.42 13.83L10.59 14.11L12.42 14.25L13.88 14.20L14.81 14.11L15.75 13.92L16.22 13.73L16.50 13.45L17.44 13.45L17.58 13.31L17.58 12.61L17.48 12.52L16.45 12.42L16.45 12.33L16.27 12.14L15.89 11.95L14.86 11.72L14.58 11.72L14.34 11.62L14.39 10.83L14.67 10.83L15.00 10.69L15.23 10.45L15.38 10.17L15.38 5.20L15.05 4.69L14.77 4.41L14.58 4.31L10.92 4.31L10.64 4.45L10.41 4.69L10.12 5.20L10.08 6.23L10.12 6.84L10.03 6.94L5.62 6.89L5.58 6.42Z M9.28 13.41L9.33 12.80L9.56 12.94L10.12 13.08L11.53 13.27L14.39 13.22L15.70 12.98L15.98 12.84L16.22 12.84L16.22 13.36L16.08 13.50L15.66 13.69L14.30 13.92L11.72 13.97L9.98 13.73L9.52 13.59Z M16.50 12.75L17.30 12.80L17.34 13.12L17.25 13.22L16.45 13.17Z M9.28 12.47L9.33 12.33L9.52 12.23L10.83 11.95L11.16 12.00L11.16 12.38L11.25 12.47L11.77 12.56L14.02 12.52L14.34 12.33L14.39 11.95L14.67 11.95L15.80 12.19L16.08 12.33L16.17 12.47L15.89 12.66L15.42 12.80L13.50 13.03L12.00 13.03L11.53 12.94L10.50 12.89L9.56 12.66Z M11.44 10.83L14.06 10.88L14.06 12.19L13.97 12.28L13.45 12.33L11.48 12.28L11.39 12.19Z M5.67 7.22L10.08 7.41L10.12 8.91L10.03 9.66L5.62 9.61Z M3.38 6.66L5.39 6.70L5.39 10.12L5.34 10.50L5.25 10.59L3.33 10.55Z M10.41 5.25L15.09 5.30L15.14 5.39L15.09 5.58L15.14 9.23L15.09 10.17L14.81 10.50L14.72 10.55L10.73 10.55L10.45 10.31L10.36 10.12Z M10.59 4.97L10.69 4.73L11.02 4.55L14.48 4.55L14.67 4.64L14.91 4.92L14.81 5.02Z"/></svg>
