<svg xmlns="http://www.w3.org/2000/svg" width="24" height="24" viewBox="0 0 24 24" fill="currentColor" fill-rule="evenodd" aria-hidden="true"><path d="M6.14 17.77L6.14 17.95L6.23 18.05L7.03 18.00L10.73 18.05L10.92 17.91L10.88 17.77Z M6.14 16.83L6.19 17.06L10.83 17.06L10.97 16.88L10.88 16.78Z M12.52 16.17L12.56 16.50L12.84 16.45L12.80 16.12Z M12.09 15.75L12.09 16.83L12.19 16.92L13.12 16.92L13.27 16.73L13.27 15.84L13.22 15.75Z M12.38 15.98L12.94 15.98L13.03 16.08L13.03 16.59L12.94 16.69L12.33 16.64Z M12.52 15.28L12.56 15.52L12.80 15.47L12.80 15.28Z M12.14 15.28L12.14 15.52L12.28 15.52L12.38 15.42L12.33 15.28Z M13.45 14.58L13.45 14.95L13.17 15.28L12.98 15.28L13.03 15.52L13.41 15.56L13.45 15.75L13.55 15.75L13.73 15.52L13.83 15.66L13.45 16.03L13.55 16.17L13.73 16.08L13.97 15.80L14.06 15.94L13.78 16.22L13.64 16.22L13.69 16.69L13.83 16.73L13.88 16.88L14.02 16.88L14.16 16.73L14.34 16.78L14.44 16.92L14.95 16.88L14.95 16.69L14.58 16.69L14.53 16.50L14.67 16.50L14.81 16.36L14.81 16.22L15.00 16.12L15.05 16.03L15.00 15.70L14.81 15.61L14.81 15.47L14.62 15.42L14.62 15.28L14.25 15.23L14.11 15.28L14.11 15.47L14.20 15.56L14.11 15.75L13.83 15.19L13.69 15.09L13.59 14.58Z M13.92 16.36L13.97 16.27L14.30 16.36L14.20 16.45L14.02 16.45Z M14.48 15.98L14.53 16.17L14.34 16.27L14.25 16.17L14.30 16.03Z M14.44 15.52L14.58 15.56L14.58 15.66L14.81 15.89L14.67 16.03L14.48 15.98L14.39 15.61Z M14.30 14.30L14.30 14.67L14.53 14.67L14.62 14.58L14.58 14.30Z M12.52 14.30L12.56 14.67L12.75 14.67L12.84 14.58L12.80 14.30Z M13.59 14.06L13.41 14.11L13.41 14.39L13.55 14.48L13.64 14.39Z M9.98 13.92L9.75 13.92L9.80 15.98L9.98 15.94L10.03 15.84Z M9.00 13.92L8.77 13.92L8.81 15.98L9.00 15.94L9.05 15.84Z M6.61 13.92L6.66 15.98L6.75 15.98L6.84 15.89L6.84 13.92Z M13.88 13.92L13.92 15.05L15.00 15.00L15.05 14.02L15.00 13.92L14.91 13.88Z M14.16 14.11L14.72 14.11L14.81 14.20L14.77 14.58L14.81 14.72L14.72 14.81L14.11 14.77Z M12.09 13.92L12.14 15.05L13.22 15.00L13.27 14.44L13.22 13.92L13.12 13.88L12.61 13.92L12.19 13.88Z M12.38 14.11L12.94 14.11L13.03 14.20L13.03 14.72L12.94 14.81L12.33 14.77Z M10.92 13.92L10.69 13.97L10.73 15.98L10.92 15.94L10.97 15.84Z M10.27 13.92L10.27 15.98L10.41 15.98L10.50 15.89L10.45 13.92Z M9.47 13.88L9.33 13.97L9.38 15.98L9.56 15.89L9.61 15.61L9.56 13.92Z M8.44 13.88L8.34 13.92L8.39 15.98L8.58 15.89L8.58 13.92Z M7.78 13.88L7.69 13.97L7.69 15.47L7.78 15.98L7.88 15.98L7.97 15.89L7.97 13.97Z M7.50 13.92L7.27 13.97L7.31 14.58L7.27 14.62L7.31 15.14L7.27 15.70L7.36 15.98L7.55 15.89Z M6.28 13.88L6.14 13.92L6.19 15.98L6.28 15.98L6.42 15.84L6.42 14.02Z M5.20 13.12L5.11 13.36L5.11 18.56L5.39 18.98L5.58 19.08L15.42 19.08L15.66 18.98L15.94 18.70L16.03 18.47L15.98 17.95L16.03 13.45L15.89 13.12L15.66 12.94L15.52 12.89L5.53 12.89L5.39 12.94Z M15.70 13.36L15.75 17.81L15.70 18.52L15.52 18.75L15.42 18.80L5.67 18.80L5.44 18.61L5.39 18.52L5.39 13.36L5.53 13.17L15.38 13.12L15.52 13.17Z M3.28 8.11L3.19 8.30L3.14 11.62L3.19 14.02L3.14 20.72L3.28 21.05L3.47 21.23L3.70 21.33L20.39 21.33L20.58 21.23L20.86 20.95L20.91 20.81L20.95 9.28L20.91 8.34L20.86 8.20L18.09 5.20L18.00 5.16L6.14 5.16L5.62 5.62Z M10.45 8.39L13.55 8.44L13.55 10.64L13.45 10.73L10.50 10.73L10.41 10.59Z M3.52 8.39L9.61 8.44L10.08 8.39L10.17 8.48L10.12 10.45L10.17 10.88L10.31 11.02L13.64 11.02L13.83 10.78L13.88 8.39L20.58 8.39L20.67 8.48L20.67 20.72L20.62 20.81L20.34 21.05L3.70 21.05L3.47 20.81L3.42 20.67Z M13.36 5.44L17.91 5.44L20.20 7.88L20.30 8.16L20.11 8.11L13.83 8.11L13.64 7.27L13.64 6.98L13.55 6.84L13.41 5.77L13.31 5.58Z M10.97 5.44L13.03 5.48L13.50 8.06L13.41 8.16L10.45 8.11L10.73 6.47L10.83 6.23L10.88 5.67Z M3.75 8.02L6.23 5.44L10.64 5.48L10.50 6.42L10.41 6.61L10.41 6.89L10.31 7.12L10.22 7.92L10.08 8.16L4.12 8.11L3.80 8.16Z"/></svg>
