<svg xmlns="http://www.w3.org/2000/svg" width="24" height="24" viewBox="0 0 24 24" fill="currentColor" fill-rule="evenodd" aria-hidden="true"><path d="M19.31 17.58L19.12 17.72L19.12 18.09L19.31 18.28L19.55 18.28L19.83 18.00L19.83 17.81L19.59 17.58Z M19.50 17.77L19.64 17.91L19.41 18.09L19.31 18.00L19.31 17.86Z M17.72 17.58L17.53 17.72L17.48 18.00L17.72 18.28L17.95 18.28L18.14 18.14L18.23 17.86L18.05 17.62Z M17.91 17.81L18.00 17.95L17.81 18.09L17.67 17.91L17.77 17.81Z M10.50 17.77L10.59 17.86L10.83 17.67L11.25 17.53L11.62 17.53L12.09 17.72L12.23 17.86L12.38 17.67L11.86 17.39L11.06 17.34L10.50 17.62Z M9.89 17.02L9.98 17.20L10.27 16.97L11.02 16.69L11.81 16.69L12.19 16.78L12.80 17.16L12.89 17.16L12.94 16.97L12.61 16.73L12.05 16.50L11.02 16.45L10.50 16.59Z M17.44 15.94L17.39 17.06L17.48 17.16L19.78 17.16L19.88 17.06L19.92 16.69L19.83 15.94L19.73 15.89L19.59 15.94L17.53 15.89Z M17.67 16.12L19.69 16.17L19.69 16.88L19.59 16.97L17.81 16.92L17.67 16.97Z M9.38 16.50L9.47 16.50L9.80 16.22L10.36 15.94L11.16 15.75L11.72 15.75L12.33 15.89L12.70 16.03L13.45 16.50L13.55 16.36L13.17 16.03L12.19 15.61L10.88 15.56L10.22 15.75L9.61 16.08L9.38 16.27Z M17.67 13.27L17.53 13.41L17.53 13.64L17.81 13.83L18.05 13.64L18.09 13.50L17.95 13.31Z M15.05 13.36L15.09 13.69L15.28 13.78L15.56 13.73L15.75 13.45L15.52 13.27L15.14 13.27Z M15.23 13.50L15.52 13.50L15.42 13.59Z M8.11 13.41L8.16 13.69L8.34 13.78L8.48 13.78L8.77 13.59L8.77 13.36L8.62 13.27L8.25 13.27Z M6.00 13.17L5.77 13.36L5.77 13.59L5.91 13.78L6.09 13.83L6.33 13.69L6.42 13.45L6.23 13.22Z M6.09 13.36L6.19 13.50L6.05 13.59L5.95 13.45Z M13.27 13.12L13.31 13.55L14.02 13.55L14.16 13.41L14.06 13.08Z M13.45 13.31L13.50 13.22L13.88 13.36L13.55 13.41Z M8.62 12.80L8.72 12.89L8.86 12.89L8.95 12.70Z M4.97 12.38L4.88 12.47L4.88 12.75L4.97 12.84L5.20 12.84L5.39 12.66L5.39 12.52L5.25 12.38Z M8.77 12.33L8.77 12.47L8.86 12.52L9.05 12.47L9.05 12.33Z M13.78 11.95L13.97 12.52L14.20 12.56L14.30 12.70L14.39 12.56L14.72 12.52L14.81 12.66L14.95 12.66L15.00 12.52L15.14 12.42L15.05 12.05L14.91 11.86L13.83 11.86Z M14.02 12.09L14.86 12.09L14.91 12.23L14.81 12.33L14.06 12.28Z M18.61 11.77L18.38 12.00L18.33 12.14L18.38 12.38L18.70 12.70L19.03 12.66L19.31 12.33L19.31 12.05L19.03 11.77Z M18.94 11.95L19.12 12.14L19.12 12.23L18.94 12.47L18.80 12.52L18.56 12.33L18.56 12.09L18.70 11.95Z M9.89 12.14L9.89 12.28L10.12 12.38L9.84 12.47L9.89 12.61L10.08 12.66L9.98 12.75L9.80 12.75L9.80 12.89L9.98 13.03L9.70 13.12L9.75 13.22L9.94 13.22L10.08 13.41L10.22 13.45L10.36 13.69L10.50 13.45L10.69 13.50L10.73 13.69L10.83 13.64L10.92 13.41L11.06 13.45L11.16 13.69L11.34 13.41L11.44 13.50L11.44 13.69L11.58 13.59L11.62 13.45L11.81 13.50L11.91 13.69L12.05 13.45L12.19 13.41L12.28 13.27L12.52 13.22L12.56 13.03L12.38 12.89L12.52 12.89L12.61 12.80L12.38 12.61L12.47 12.61L12.52 12.42L12.38 12.28L12.47 12.33L12.61 12.19L12.33 12.09L12.05 11.72L11.91 11.72L11.77 11.91L11.72 11.72L11.53 11.72L11.44 11.91L11.34 11.72L11.20 11.72L11.11 11.86L10.97 11.67L10.88 11.72L10.78 11.91L10.69 11.72L10.55 11.72L10.41 11.91L10.27 11.95L10.08 12.14L9.98 12.09Z M10.45 12.09L12.09 12.28L12.14 13.12L12.05 13.22L10.22 13.17L10.31 12.52Z M14.39 11.44L14.44 11.58L14.62 11.62L14.67 11.44Z M13.73 11.58L14.06 11.62L14.16 11.58L14.20 11.44L13.73 11.44Z M8.77 11.58L8.81 11.86L9.00 11.95L9.19 11.95L9.38 11.86L9.47 11.72L9.42 11.53L9.23 11.44L8.95 11.44Z M9.00 11.72L9.05 11.62L9.23 11.67L9.14 11.77Z M7.22 13.88L7.22 14.20L7.41 14.39L16.55 14.39L16.69 14.20L16.69 13.97L15.94 12.09L15.70 11.34L15.56 11.06L15.33 10.92L13.55 10.97L13.36 10.88L12.98 10.92L11.30 10.88L8.48 10.92L8.25 11.16L7.92 12.14L7.78 12.38L7.78 12.52Z M7.45 13.92L8.06 12.23L8.44 11.39L8.44 11.25L8.53 11.16L15.33 11.16L15.47 11.34L16.45 13.97L16.27 14.16L7.59 14.16L7.50 14.11Z M17.72 10.78L17.39 10.88L17.25 11.11L17.25 11.39L17.34 11.53L17.67 11.72L17.91 11.62L18.14 11.34L18.09 11.02L17.95 10.88Z M17.58 11.02L17.81 11.02L17.91 11.11L17.95 11.25L17.77 11.48L17.62 11.48L17.44 11.25L17.44 11.16Z M5.81 10.78L5.58 10.92L5.44 11.44L5.53 11.67L5.67 11.81L5.86 11.91L6.14 11.91L6.52 11.62L6.61 11.44L6.61 11.25L6.38 10.88L6.19 10.78Z M5.95 10.97L6.19 11.02L6.38 11.20L6.33 11.53L6.09 11.72L5.81 11.67L5.67 11.48L5.67 11.16Z M3.14 7.41L3.00 7.73L3.05 7.97L3.00 18.70L3.09 18.94L3.33 19.17L3.56 19.27L20.48 19.27L20.86 19.08L21.00 18.89L21.09 18.61L21.05 17.48L21.09 8.48L21.05 7.64L20.86 7.36L20.67 7.27L20.06 7.27L19.92 7.36L19.88 7.69L19.78 7.78L4.22 7.73L4.22 7.50L3.98 7.27L3.38 7.27Z M4.27 10.03L4.41 10.08L4.73 10.03L5.34 9.80L5.95 9.80L6.75 10.08L7.17 10.08L8.02 9.80L8.62 9.80L9.33 10.03L10.03 10.08L10.97 9.80L11.91 9.80L12.94 10.08L13.55 10.08L14.62 9.80L15.42 9.80L16.17 10.03L17.02 10.08L18.05 9.80L18.47 9.80L19.41 10.08L19.88 10.12L19.88 14.25L19.83 14.39L19.55 14.67L19.31 14.77L16.27 14.72L4.69 14.77L4.41 14.62L4.22 14.30Z M4.27 8.02L19.88 8.06L19.88 9.75L19.78 9.84L19.41 9.84L18.61 9.61L17.91 9.61L17.11 9.84L16.31 9.84L15.80 9.66L14.77 9.56L13.59 9.84L12.89 9.84L12.05 9.61L11.16 9.56L10.08 9.84L9.47 9.84L8.77 9.61L8.16 9.56L7.22 9.84L6.75 9.84L6.05 9.61L5.53 9.56L5.02 9.66L4.78 9.80L4.55 9.84L4.22 9.80Z M3.38 7.50L3.98 7.55L3.98 14.30L4.22 14.77L4.55 14.95L7.41 15.00L9.14 14.95L11.16 15.00L16.31 14.95L16.88 15.00L19.45 14.95L19.69 14.86L19.97 14.58L20.06 14.39L20.11 8.95L20.06 7.59L20.16 7.50L20.67 7.50L20.86 7.73L20.86 18.66L20.81 18.80L20.53 19.03L3.52 19.03L3.42 18.98L3.23 18.75L3.23 7.69Z"/></svg>
