<svg xmlns="http://www.w3.org/2000/svg" width="24" height="24" viewBox="0 0 24 24" fill="currentColor" fill-rule="evenodd" aria-hidden="true"><path d="M4.69 19.59L4.64 19.92L4.88 20.11L5.34 20.11L5.62 19.88L5.62 19.69L5.48 19.55L5.20 19.45Z M4.92 19.83L4.97 19.73L5.34 19.78L5.25 19.88Z M16.97 19.41L16.92 19.50L16.97 19.78L17.20 19.97L17.39 20.02L17.86 19.97L18.09 19.78L18.19 19.59L18.00 19.31L17.58 19.17L17.16 19.27Z M17.30 19.69L17.30 19.50L17.62 19.45L17.86 19.59L17.77 19.69L17.48 19.73Z M8.20 18.98L8.20 19.69L8.30 19.78L9.66 19.78L9.80 19.64L9.80 18.98L9.66 18.84L8.34 18.84Z M8.44 19.41L8.58 19.08L9.56 19.17L9.56 19.41L9.42 19.55L8.53 19.55Z M11.95 18.47L12.00 18.66L12.23 18.70L12.42 18.56L12.42 18.47L12.33 18.42Z M12.75 17.81L12.66 17.77L11.95 17.81L11.95 18.00L12.66 18.05Z M10.97 17.58L11.06 17.77L11.39 17.81L11.25 17.95L10.97 18.00L11.02 18.19L11.34 18.23L11.34 18.33L11.06 18.38L10.97 18.56L11.06 18.66L11.30 18.66L11.39 18.75L11.20 18.89L10.97 18.89L10.97 19.03L11.06 19.12L11.25 19.08L11.44 19.31L11.72 19.41L11.77 19.73L11.86 19.73L12.00 19.59L12.05 19.36L12.23 19.41L12.28 19.73L12.47 19.64L12.52 19.36L12.70 19.41L12.75 19.73L12.94 19.64L12.98 19.36L13.12 19.36L13.22 19.45L13.27 19.73L13.45 19.64L13.50 19.36L13.73 19.41L13.73 19.64L13.78 19.73L13.88 19.73L14.02 19.59L14.02 19.36L14.16 19.36L14.30 19.17L14.62 19.08L14.62 18.89L14.39 18.89L14.30 18.80L14.34 18.66L14.53 18.66L14.62 18.56L14.62 18.47L14.34 18.42L14.30 18.23L14.53 18.19L14.58 18.00L14.48 17.95L14.30 18.00L14.25 17.77L14.44 17.77L14.58 17.62L14.48 17.53L14.20 17.48L14.16 17.30L13.88 17.16L13.83 16.97L13.59 17.02L13.59 17.11L13.41 17.16L13.36 16.97L13.12 17.02L13.12 17.11L12.94 17.16L12.89 16.97L12.66 16.97L12.66 17.11L12.47 17.16L12.42 16.97L12.19 17.02L12.19 17.11L12.00 17.16L11.95 16.97L11.72 16.97L11.72 17.11L11.62 17.20L11.48 17.20L11.25 17.53L11.06 17.48Z M11.67 17.44L13.92 17.48L14.06 18.98L13.97 19.08L12.70 19.12L11.62 19.03Z M15.80 17.02L15.89 17.77L15.94 17.86L16.12 17.91L16.27 18.14L16.36 18.19L16.55 17.91L16.97 17.91L17.16 18.19L17.25 18.14L17.48 17.62L17.34 17.06L17.20 16.92L15.89 16.92Z M16.08 17.34L16.12 17.20L17.11 17.25L17.20 17.58L17.11 17.67L16.12 17.62Z M5.48 17.16L5.53 17.48L6.00 17.72L6.47 17.62L6.75 17.30L6.70 17.11L6.56 16.97L6.33 16.88L5.86 16.88Z M5.81 17.20L6.28 17.16L6.47 17.25L6.33 17.39L6.05 17.44L5.86 17.39Z M6.70 13.08L6.61 13.08L6.47 13.22L6.38 13.50L6.38 13.88L6.70 14.53L6.70 15.00L6.52 15.28L6.52 15.42L6.66 15.52L6.84 15.33L6.98 15.05L6.98 14.53L6.66 13.88L6.66 13.45L6.80 13.17Z M5.81 12.42L5.62 12.42L5.53 12.52L5.34 12.94L5.34 13.41L5.72 14.16L5.72 14.44L5.53 14.81L5.62 15.05L5.81 14.86L6.00 14.30L5.91 13.88L5.62 13.31L5.62 12.98L5.86 12.56Z M20.91 5.39L20.44 5.02L19.92 4.78L19.50 4.69L18.98 4.69L18.23 4.92L17.39 5.62L17.11 5.48L16.78 5.48L16.45 5.62L13.41 9.23L13.03 9.61L12.66 9.61L12.09 10.17L12.00 10.50L12.14 10.88L11.95 11.11L11.95 11.20L12.09 11.34L9.66 14.11L9.61 14.25L9.66 14.39L8.95 15.19L8.77 15.66L8.44 16.08L5.06 16.08L4.69 16.31L3.14 20.34L3.14 21.19L3.23 21.42L3.61 21.70L19.31 21.70L19.55 21.56L19.83 21.14L19.78 20.20L19.69 20.11L19.69 19.97L18.61 17.30L18.38 16.55L18.09 16.17L17.86 16.08L9.38 16.08L9.33 16.27L9.42 16.36L17.81 16.36L18.09 16.59L18.09 16.73L19.50 20.30L19.50 20.39L19.36 20.53L15.66 20.58L15.38 20.53L9.84 20.58L3.56 20.53L3.47 20.44L3.47 20.20L4.03 18.89L4.88 16.59L5.11 16.36L8.39 16.41L8.39 17.16L7.97 17.39L7.92 17.53L7.97 17.77L8.16 17.95L8.44 18.05L8.86 18.05L9.19 17.91L9.33 17.77L9.38 17.53L9.19 17.30L8.95 17.20L8.95 16.27L9.38 15.84L9.56 15.75L10.22 15.00L10.45 15.00L12.89 12.23L13.22 12.28L13.50 12.14L13.73 12.28L14.02 12.28L14.67 11.58L14.72 11.11L18.09 7.12L18.19 6.89L18.19 6.52L18.05 6.19L18.42 5.77L18.94 5.53L19.69 5.58L20.44 6.05L20.58 5.86L20.11 5.48L19.45 5.25L18.98 5.25L18.52 5.39L18.09 5.67L17.86 5.95L17.72 5.81L17.72 5.72L18.33 5.20L19.03 4.97L19.41 4.97L20.02 5.11L20.48 5.39L20.67 5.58L20.77 5.58Z M3.42 21.19L3.52 20.77L3.66 20.86L19.45 20.77L19.55 20.86L19.50 21.19L19.27 21.42L3.66 21.42Z M8.25 17.53L8.44 17.48L8.67 17.62L8.86 17.48L9.00 17.48L9.09 17.62L8.91 17.77L8.53 17.81L8.30 17.72Z M9.19 15.52L9.28 15.61L8.91 15.98L8.86 15.89L9.05 15.61Z M9.94 14.67L10.03 14.81L9.42 15.42L9.33 15.33L9.33 15.19L9.80 14.67Z M12.38 11.58L12.80 11.95L12.61 12.09L10.64 14.39L10.27 14.62L9.94 14.25L12.28 11.58Z M12.56 10.83L12.70 10.83L13.45 11.53L13.50 11.67L13.17 12.00L12.33 11.16L12.33 11.06Z M12.75 9.89L13.17 9.89L13.50 10.08L13.97 10.50L14.30 10.92L14.44 11.20L14.44 11.39L14.11 11.81L13.92 11.86L13.59 11.30L12.61 10.45L12.38 10.59L12.28 10.45Z M17.39 5.91L17.77 6.28L17.91 6.61L17.86 6.94L14.58 10.83L14.25 10.41L13.92 10.08L13.50 9.80L13.41 9.66L15.98 6.56L16.69 5.81L17.02 5.77Z"/></svg>
