<svg xmlns="http://www.w3.org/2000/svg" width="24" height="24" viewBox="0 0 24 24" fill="currentColor" fill-rule="evenodd" aria-hidden="true"><path d="M16.41 6.89L15.89 7.17L15.61 7.45L15.33 7.92L15.19 8.44L15.19 9.38L15.33 9.61L15.38 9.89L15.56 10.27L16.27 10.97L15.89 11.30L15.52 11.44L15.47 11.72L15.61 11.86L15.80 11.86L15.98 11.72L16.22 11.67L16.55 11.91L17.06 12.00L17.53 11.91L17.67 11.77L17.95 11.77L18.61 12.14L19.08 12.61L19.45 13.31L19.50 13.78L19.69 14.53L19.64 15.89L19.69 16.17L19.45 16.41L18.52 16.45L17.06 16.41L16.83 16.50L16.78 16.83L16.92 16.97L19.45 16.92L19.73 16.83L20.16 16.41L20.20 15.89L20.11 13.55L19.97 13.27L19.92 12.98L19.50 12.28L18.94 11.72L18.33 11.34L17.77 11.11L17.77 10.88L17.95 10.78L18.33 10.41L18.75 9.56L18.84 9.09L18.84 8.53L18.75 8.25L18.75 7.97L18.52 7.55L18.14 7.17L17.81 6.98L17.20 6.80L16.78 6.80Z M16.59 11.25L16.64 11.02L16.78 11.02L16.92 11.11L17.30 11.11L17.44 11.20L17.16 11.48L16.88 11.48Z M16.88 7.31L17.34 7.36L17.72 7.55L18.09 7.92L18.23 8.25L18.28 9.28L18.14 9.52L18.14 9.66L17.95 9.98L17.58 10.36L17.16 10.55L16.69 10.55L16.41 10.41L16.08 10.08L15.80 9.52L15.80 8.11L16.36 7.45Z M7.83 6.94L7.27 6.80L6.98 6.80L6.47 6.94L6.09 7.12L5.62 7.59L5.48 7.83L5.48 8.02L5.34 8.34L5.34 9.38L5.48 9.66L5.48 9.84L5.72 10.31L6.38 10.92L6.38 11.02L6.09 11.25L5.72 11.34L5.39 11.53L4.97 11.86L4.55 12.33L4.12 13.17L3.94 13.78L3.89 14.34L3.89 16.36L3.94 16.50L4.36 16.88L4.69 16.97L6.98 16.97L7.27 16.78L7.27 16.55L7.03 16.41L5.91 16.45L4.55 16.36L4.45 16.22L4.45 14.44L4.55 14.11L4.59 13.50L4.92 12.75L5.16 12.42L5.72 11.95L6.19 11.72L6.33 11.72L6.56 11.91L6.89 12.00L7.45 12.00L7.78 11.91L8.02 11.72L8.20 11.72L8.39 11.91L8.67 11.91L8.81 11.77L8.81 11.58L8.48 11.34L8.25 11.30L7.92 11.06L7.92 10.88L8.53 10.31L8.72 10.03L9.05 9.19L9.05 8.44L8.91 8.20L8.81 7.73L8.34 7.22Z M6.75 11.16L6.89 11.02L7.50 11.06L7.59 11.16L7.59 11.30L7.36 11.48L7.12 11.53L6.94 11.48L6.75 11.30Z M6.89 7.36L7.41 7.36L7.78 7.50L8.20 7.88L8.39 8.20L8.44 9.38L8.06 10.08L7.83 10.31L7.50 10.50L6.84 10.50L6.56 10.36L6.23 10.03L5.91 9.38L5.91 8.16L6.09 7.83L6.42 7.55Z M11.30 5.72L10.69 6.05L10.17 6.61L9.98 7.08L9.84 8.67L10.27 9.75L10.97 10.55L11.30 10.73L11.30 10.88L11.11 10.92L10.83 11.16L9.98 11.48L9.56 11.77L8.86 12.52L8.44 13.31L8.25 13.92L8.11 14.77L8.11 17.77L8.16 17.91L8.53 18.23L9.42 18.33L12.94 18.28L15.09 18.33L15.52 18.23L15.89 17.91L15.98 17.67L15.98 15.33L15.94 14.44L15.84 14.25L15.80 13.78L15.42 12.84L15.05 12.33L14.34 11.67L13.69 11.30L13.27 11.16L12.98 10.92L12.70 10.97L12.33 11.48L12.09 11.53L11.81 11.48L11.58 11.25L11.48 10.83L12.38 10.92L12.75 10.78L13.36 10.36L13.78 9.89L14.20 9.00L14.34 8.30L14.25 8.02L14.20 7.22L14.06 6.80L13.88 6.47L13.41 6.00L12.98 5.77L12.23 5.58L11.62 5.62Z M9.47 12.61L10.22 11.95L10.92 11.62L11.11 11.62L11.53 11.91L12.05 12.09L12.52 11.95L12.94 11.67L13.17 11.67L13.88 11.95L14.34 12.33L14.72 12.75L15.09 13.45L15.38 14.48L15.42 15.05L15.38 17.62L15.23 17.77L8.77 17.77L8.67 17.67L8.67 14.58L8.95 13.50L9.14 13.08Z M11.62 6.19L12.61 6.23L13.08 6.47L13.59 7.08L13.59 7.45L13.69 7.69L13.78 8.58L13.22 9.70L12.80 10.08L12.38 10.31L11.72 10.31L11.34 10.12L10.78 9.56L10.45 8.81L10.50 7.27L10.59 6.98L11.02 6.47Z"/></svg>
