<svg xmlns="http://www.w3.org/2000/svg" width="24" height="24" viewBox="0 0 24 24" fill="currentColor" fill-rule="evenodd" aria-hidden="true"><path d="M18.33 18.05L18.52 18.28L18.66 18.33L19.08 18.28L19.27 18.05L19.12 17.86L18.89 17.77L18.52 17.81L18.38 17.91Z M18.56 18.05L18.70 17.95L19.03 18.05L18.94 18.14L18.66 18.14Z M4.22 17.95L4.22 18.14L4.50 18.33L4.92 18.28L5.11 18.09L5.11 17.95L4.78 17.77L4.36 17.81Z M4.41 18.05L4.55 17.95L4.73 17.95L4.88 18.05L4.78 18.14L4.50 18.14Z M14.16 17.39L14.20 17.81L15.23 17.86L15.38 17.72L15.33 17.44L15.23 17.34Z M14.34 17.67L14.39 17.44L14.91 17.44L15.14 17.62L15.05 17.72Z M16.64 16.03L16.73 16.69L16.88 16.88L17.02 16.92L17.02 17.06L17.11 17.11L17.25 16.88L17.62 16.92L17.67 17.16L17.81 17.06L17.77 16.92L17.95 16.83L18.05 16.64L17.86 16.03Z M16.88 16.17L17.72 16.22L17.81 16.59L17.72 16.69L16.92 16.64Z M8.11 17.39L8.16 17.53L8.44 17.53L8.67 17.81L8.95 17.86L9.00 18.14L9.14 17.95L9.47 17.81L9.56 17.91L9.52 18.00L9.56 18.09L9.70 18.05L9.75 17.81L9.98 17.86L10.08 18.09L10.31 17.86L10.55 18.05L10.64 17.81L10.92 17.81L11.02 17.91L11.06 18.14L11.20 17.86L11.44 17.81L11.67 17.58L11.95 17.58L12.00 17.39L11.62 17.34L11.67 17.20L12.00 17.16L12.00 17.06L11.62 16.92L11.95 16.88L11.95 16.73L11.58 16.59L11.91 16.45L11.53 16.41L11.44 16.17L11.16 16.08L11.16 15.94L11.02 15.94L10.92 16.12L10.64 16.08L10.64 15.94L10.50 15.94L10.41 16.12L9.94 16.08L9.89 15.94L9.75 15.94L9.66 16.12L9.38 16.08L9.38 15.94L9.23 15.94L9.09 16.12L8.86 16.17L8.67 16.45L8.58 16.41L8.34 16.45L8.39 16.59L8.72 16.64L8.62 16.73L8.30 16.78L8.34 16.92L8.62 16.97L8.53 17.06L8.20 17.06L8.25 17.20L8.58 17.30L8.48 17.39Z M11.11 17.62L11.30 17.53L11.44 17.58L11.34 17.67Z M8.77 17.62L8.81 17.53L11.02 17.62Z M8.77 17.20L9.00 16.31L11.34 16.36L11.44 17.20L11.34 17.39L8.77 17.34Z M14.58 15.94L14.62 16.45L14.72 16.55L14.95 16.59L14.95 16.69L15.14 16.64L15.19 16.55L15.61 16.55L15.70 16.45L15.66 15.98L15.56 15.89Z M14.77 16.12L15.42 16.08L15.52 16.17L15.47 16.36L14.81 16.31Z M5.30 15.75L5.34 15.94L5.58 16.08L6.00 16.03L6.19 15.84L6.19 15.70L6.00 15.56L5.48 15.56Z M5.48 15.80L5.62 15.70L5.86 15.70L5.95 15.80L5.86 15.89L5.58 15.89Z M17.30 15.52L17.34 15.66L17.48 15.66L17.58 15.52Z M16.78 15.52L16.83 15.66L16.97 15.66L17.11 15.52Z M14.86 15.33L14.72 15.33L14.77 15.56L14.91 15.42Z M11.91 15.33L11.77 15.38L11.91 15.56L11.95 15.42Z M2.95 18.75L3.00 18.89L2.95 19.45L3.05 19.64L3.28 19.83L20.16 19.83L20.30 19.78L20.53 19.50L20.48 18.52L19.12 15.09L18.98 14.91L18.80 14.81L4.73 14.81L4.59 14.86L4.36 15.19Z M3.19 19.50L3.23 18.98L20.20 18.98L20.34 19.03L20.34 19.41L20.16 19.59L3.28 19.59Z M3.19 18.61L3.38 18.28L4.59 15.14L4.73 15.00L5.91 15.09L6.00 15.33L6.05 15.00L8.81 15.05L8.95 15.14L9.00 15.00L11.72 15.00L11.81 15.19L11.91 15.14L11.95 15.00L14.67 15.00L14.77 15.19L14.86 15.14L14.91 15.00L18.70 15.00L18.98 15.28L19.12 15.75L20.30 18.56L20.30 18.70L20.16 18.84L3.33 18.84Z M19.78 10.17L19.64 10.17L18.94 11.06L18.98 11.30L19.50 11.34L19.27 11.91L19.27 12.09L19.50 11.91L20.11 11.11L20.06 10.97L19.55 10.88L19.73 10.50Z M4.36 6.38L4.31 6.52L4.31 8.62L4.45 8.86L4.73 9.00L5.25 9.05L5.20 9.42L5.30 9.84L5.48 9.89L5.48 10.78L5.34 10.88L5.34 10.97L5.81 11.20L5.67 11.30L5.34 11.30L5.44 11.48L5.62 11.48L5.81 11.58L5.67 11.67L5.34 11.72L5.44 11.91L5.67 11.91L5.77 12.00L5.34 12.14L5.34 12.33L5.62 12.56L5.58 13.92L5.77 14.30L5.77 14.44L5.86 14.62L5.95 14.67L6.05 14.58L6.14 14.16L6.28 13.92L6.33 12.42L6.42 12.42L6.56 12.28L6.52 12.14L6.38 12.14L6.23 12.28L5.77 12.23L5.91 12.14L6.47 12.00L6.56 11.91L6.47 11.81L6.28 11.86L6.09 11.72L6.23 11.72L6.33 11.62L6.42 11.67L6.52 11.44L6.33 11.48L6.05 11.44L5.91 11.34L6.42 11.34L6.56 11.20L6.33 11.16L6.05 10.92L6.47 10.92L6.56 10.83L6.52 10.69L6.42 10.64L6.47 9.84L6.56 9.84L6.70 9.70L6.75 9.00L8.16 9.05L8.16 9.75L8.44 9.89L8.44 10.73L8.30 10.88L8.30 10.97L8.77 11.20L8.53 11.30L8.30 11.30L8.34 11.48L8.62 11.48L8.72 11.58L8.58 11.67L8.30 11.72L8.39 11.91L8.58 11.91L8.72 12.00L8.30 12.14L8.30 12.33L8.34 12.42L8.48 12.47L8.58 14.02L8.72 14.25L8.81 14.62L9.00 14.58L9.23 13.92L9.28 12.42L9.52 12.28L9.47 12.14L9.33 12.14L9.19 12.28L8.67 12.23L9.42 12.00L9.52 11.91L9.47 11.81L8.95 11.86L8.95 11.72L9.14 11.72L9.28 11.62L9.38 11.67L9.47 11.44L9.05 11.44L8.91 11.34L9.47 11.30L9.47 11.16L9.28 11.16L8.95 10.92L9.23 10.88L9.38 10.92L9.52 10.78L9.38 10.64L9.42 9.84L9.52 9.84L9.66 9.70L9.70 9.00L11.11 9.05L11.11 9.75L11.39 9.89L11.39 10.73L11.25 10.88L11.25 11.02L11.62 11.11L11.72 11.20L11.25 11.30L11.30 11.48L11.53 11.48L11.72 11.58L11.25 11.72L11.30 11.91L11.67 11.95L11.58 12.05L11.25 12.14L11.25 12.38L11.48 12.52L11.48 13.97L11.58 14.06L11.72 14.58L11.81 14.67L11.91 14.62L12.19 13.88L12.19 12.47L12.33 12.38L12.42 12.14L12.28 12.14L12.14 12.28L11.62 12.23L12.05 12.05L12.38 12.00L12.47 11.91L12.38 11.81L12.05 11.91L11.81 11.77L12.38 11.62L12.47 11.53L12.42 11.44L12.00 11.44L11.91 11.34L12.33 11.34L12.47 11.20L12.38 11.11L12.14 11.11L11.95 10.92L12.38 10.92L12.42 10.73L12.33 10.69L12.38 9.84L12.47 9.84L12.61 9.70L12.66 9.00L14.06 9.05L14.06 9.75L14.34 9.89L14.34 10.73L14.20 10.88L14.20 10.97L14.67 11.20L14.20 11.30L14.25 11.48L14.48 11.48L14.62 11.58L14.20 11.72L14.30 11.91L14.48 11.91L14.58 12.00L14.20 12.14L14.20 12.33L14.44 12.52L14.48 14.02L14.67 14.58L14.77 14.67L14.86 14.62L15.14 13.92L15.19 12.42L15.42 12.28L15.42 12.14L15.23 12.14L15.09 12.28L14.53 12.23L14.86 12.09L15.33 12.00L15.38 11.81L15.14 11.86L14.91 11.72L15.38 11.62L15.38 11.44L14.95 11.30L15.23 11.34L15.42 11.16L14.86 10.92L15.42 10.88L15.42 10.73L15.28 10.64L15.33 9.84L15.42 9.84L15.56 9.70L15.61 9.00L16.22 8.95L16.55 8.67L16.64 7.36L18.98 7.36L19.12 7.41L19.41 7.69L19.45 7.83L19.45 9.38L19.36 9.47L18.14 9.47L17.91 9.66L17.81 9.84L17.81 12.33L17.91 12.56L18.09 12.75L18.23 12.80L20.81 12.80L21.19 12.47L21.23 12.33L21.23 9.84L21.14 9.66L20.91 9.47L19.64 9.42L19.64 7.78L19.55 7.55L19.27 7.27L19.08 7.17L16.59 7.12L16.55 6.47L16.27 6.19L4.59 6.19Z M14.67 12.47L14.95 12.52L14.95 13.88L14.81 14.25L14.62 13.88L14.62 12.56Z M11.72 12.47L12.00 12.52L12.00 13.88L11.77 14.16L11.77 14.02L11.67 13.88Z M8.81 12.47L9.05 12.52L9.05 13.88L8.91 14.25L8.77 13.92Z M5.86 12.47L6.09 12.52L6.09 13.88L5.95 14.25L5.81 13.92Z M14.58 9.84L15.09 9.89L15.09 10.69L15.00 10.78L14.53 10.73Z M11.62 9.84L12.14 9.89L12.14 10.69L12.05 10.78L11.58 10.73Z M8.67 9.84L9.19 9.89L9.19 10.69L9.09 10.78L8.62 10.73Z M5.72 9.84L6.23 9.89L6.23 10.69L6.14 10.78L5.67 10.73Z M18.19 9.66L20.81 9.66L21.05 9.94L21.00 10.27L21.05 12.28L20.77 12.61L18.28 12.61L18.09 12.47L18.05 12.38L18.05 9.80Z M11.34 9.00L12.42 9.05L12.42 9.56L12.33 9.66L11.30 9.61Z M8.34 9.09L8.39 9.00L9.47 9.05L9.47 9.56L9.38 9.66L8.44 9.70L8.34 9.61Z M5.48 9.00L6.52 9.05L6.52 9.56L6.38 9.70L5.44 9.66Z M14.34 8.95L15.38 9.05L15.38 9.56L15.28 9.66L15.00 9.70L14.25 9.61Z M4.50 6.56L4.69 6.38L16.17 6.38L16.36 6.56L16.36 7.12L16.41 7.17L16.36 8.58L16.12 8.81L4.73 8.81L4.59 8.72L4.50 8.53Z"/></svg>
